<svg width="48" height="48" viewBox="0 0 48 48" fill="none" xmlns="http://www.w3.org/2000/svg">
<path d="M24 0.111328C25.43 0.113224 26.8009 0.68214 27.8121 1.69332C28.8233 2.7045 29.3922 4.07542 29.3941 5.50544C29.3935 6.37808 29.1812 7.23754 28.7753 8.01003C28.3694 8.78252 27.7821 9.44494 27.0637 9.94041C30.2254 11.1719 32.4769 14.2416 32.4769 17.8357V21.689H24.7704V22.4594C24.7704 22.8846 25.1168 23.2298 25.5408 23.2298H27.0816C28.3573 23.2298 29.3941 24.2666 29.3941 25.5411V27.0819C29.3935 27.6948 29.1498 28.2824 28.7165 28.7159C28.2832 29.1494 27.6957 29.3934 27.0828 29.3943H25.7056L26.5298 30.2185L25.3784 32.1177C25.4345 32.2371 25.4751 32.3566 25.5265 32.476H33.0359C32.3767 31.8996 31.8482 31.189 31.4858 30.3918C31.1235 29.5946 30.9356 28.7292 30.9349 27.8535C30.9368 26.2189 31.5871 24.6519 32.743 23.4962C33.8989 22.3405 35.4661 21.6905 37.1006 21.689C38.7348 21.6909 40.3015 22.3408 41.4571 23.4962C42.6127 24.6516 43.263 26.2182 43.2652 27.8523C43.2651 28.7677 43.061 29.6715 42.6676 30.498C42.2742 31.3245 41.7014 32.0529 40.9909 32.6301C44.9123 33.3718 47.8889 36.819 47.8889 40.9542V47.8891H30.1645V39.0263C30.1639 38.7202 30.042 38.4268 29.8255 38.2103C29.609 37.9938 29.3156 37.8719 29.0095 37.8713H27.8533V39.2449L25.7009 39.7741C25.6053 40.0309 25.4978 40.2877 25.3796 40.5409L26.5298 42.4401L22.4054 46.5657L20.5062 45.4154C20.2506 45.5349 19.995 45.6424 19.7394 45.7355L19.2103 47.8891H13.3778L12.8498 45.7367C12.59 45.6405 12.3341 45.5337 12.083 45.4166L10.1838 46.5657L6.05822 42.4412L7.20847 40.5421C7.09151 40.2909 6.98472 40.0351 6.88836 39.7752L4.73478 39.2461V33.4124L6.88836 32.8833C6.98272 32.6277 7.09022 32.3721 7.20847 32.1165L6.05822 30.2173L6.88239 29.3931H5.5052C4.89251 29.3922 4.30518 29.1484 3.87194 28.7151C3.4387 28.2819 3.19489 27.6946 3.19394 27.0819V25.5411C3.19394 24.2654 4.23072 23.2286 5.5052 23.2286H7.04603C7.1473 23.2288 7.24761 23.209 7.34122 23.1703C7.43483 23.1317 7.5199 23.0749 7.59157 23.0034C7.66323 22.9318 7.72009 22.8468 7.75888 22.7533C7.79767 22.6597 7.81764 22.5595 7.81764 22.4582V21.6878H0.111084V17.8345C0.111084 14.2404 2.36261 11.1707 5.52431 9.93922C4.80597 9.44375 4.21864 8.78132 3.81273 8.00883C3.40683 7.23635 3.19449 6.37688 3.19394 5.50424C3.19616 4.07443 3.76521 2.70382 4.77636 1.6929C5.78751 0.681974 7.15824 0.113224 8.58806 0.111328C10.0181 0.113224 11.389 0.68214 12.4002 1.69332C13.4114 2.7045 13.9803 4.07542 13.9822 5.50544C13.9815 6.37818 13.769 7.23772 13.3629 8.01021C12.9567 8.78271 12.3692 9.44507 11.6506 9.94041C13.7084 10.7438 15.3733 12.3157 16.2934 14.324C17.2137 12.3158 18.8785 10.744 20.9362 9.94041C20.2179 9.44494 19.6306 8.78252 19.2247 8.01003C18.8187 7.23754 18.6064 6.37808 18.6059 5.50544C18.6078 4.07542 19.1767 2.7045 20.1879 1.69332C21.199 0.68214 22.57 0.113224 24 0.111328ZM39.4119 34.018H18.9905C18.6929 34.0316 18.412 34.1593 18.2062 34.3746C18.0005 34.59 17.8856 34.8764 17.8856 35.1742C17.8856 35.4721 18.0005 35.7585 18.2062 35.9739C18.412 36.1892 18.6929 36.3169 18.9905 36.3305H29.0095C29.7246 36.3311 30.4102 36.6155 30.9159 37.1211C31.4215 37.6268 31.7059 38.3124 31.7065 39.0275V46.3483H42.4948V37.8713H44.0356V46.3483H46.348V40.9542C46.3461 39.1152 45.6148 37.352 44.3144 36.0517C43.014 34.7513 41.2509 34.0199 39.4119 34.018ZM18.0015 26.3115H14.5854L14.1434 28.1199L13.7289 28.2512C13.2707 28.3979 12.8259 28.5838 12.3995 28.8067L12.0173 29.0061L10.4179 28.0386L8.00397 30.4538L8.97147 32.052L8.77081 32.4342C8.54812 32.8611 8.36231 33.3063 8.21539 33.7648L8.084 34.1781L6.27561 34.6224V38.0385L8.084 38.4805L8.2142 38.8949C8.35395 39.3345 8.54028 39.7824 8.77081 40.2244L8.97028 40.6066L8.00278 42.2059L10.4168 44.6199L12.0149 43.6524L12.3995 43.8531C12.8415 44.0824 13.2882 44.2699 13.7301 44.4097L14.141 44.5411L14.5866 46.3483H18.0027L18.4446 44.5399L18.8579 44.4097C19.3162 44.2626 19.7609 44.0764 20.1873 43.8531L20.5719 43.6536L22.1701 44.6211L24.5841 42.2071L23.6166 40.609L23.816 40.2244C24.0466 39.7824 24.2341 39.3357 24.3738 38.8937L24.5052 38.4829L26.3112 38.0373V37.8701H23.0564C22.706 39.402 21.8463 40.7698 20.6179 41.7498C19.3895 42.7298 17.8649 43.2641 16.2934 43.2654C14.4548 43.2632 12.6922 42.5318 11.3921 41.2318C10.092 39.9317 9.36069 38.1691 9.35847 36.3305C9.36037 34.4917 10.0916 32.7287 11.3917 31.4284C12.6918 30.1281 14.4546 29.3965 16.2934 29.3943C18.6059 29.3943 20.7606 30.5709 22.0423 32.4772H23.8375L23.8172 32.4366L23.6178 32.052L24.5853 30.4538L22.1701 28.0398L20.5719 29.0073L20.1885 28.8079C19.762 28.5848 19.3173 28.3986 18.8591 28.2512L18.4458 28.1199L18.0015 26.3115ZM16.2934 30.9352C14.8632 30.9371 13.4921 31.5061 12.4809 32.5176C11.4697 33.529 10.9009 34.9002 10.8993 36.3305C10.9012 37.7605 11.4701 39.1314 12.4813 40.1426C13.4925 41.1538 14.8634 41.7227 16.2934 41.7246C17.4547 41.7234 18.5847 41.3479 19.5157 40.6538C20.4467 39.9597 21.1291 38.9839 21.4618 37.8713H19.8242C19.5204 38.5673 19.0176 39.1579 18.3791 39.569C17.7406 39.9801 16.9948 40.1933 16.2355 40.1818C15.4762 40.1703 14.7372 39.9346 14.1114 39.5044C13.4857 39.0741 13.001 38.4685 12.7184 37.7637C12.4358 37.0588 12.3679 36.2861 12.5231 35.5428C12.6783 34.7994 13.0498 34.1185 13.5909 33.5856C14.1319 33.0528 14.8184 32.6917 15.564 32.5478C16.3097 32.404 17.0812 32.4837 17.7817 32.777C18.1553 32.5831 18.5695 32.4804 18.9905 32.4772H20.0631C19.0549 31.4926 17.7026 30.9386 16.2934 30.9352ZM16.2934 34.018C15.6805 34.019 15.093 34.2629 14.6597 34.6964C14.2265 35.1299 13.9828 35.7176 13.9822 36.3305C13.9822 37.6049 15.0189 38.6417 16.2934 38.6417C17.0376 38.6417 17.7076 38.2834 18.1353 37.7184C17.6005 37.5406 17.1351 37.1994 16.8047 36.7429C16.4742 36.2864 16.2954 35.7378 16.2934 35.1742C16.2934 34.7717 16.389 34.3943 16.5466 34.0515C16.4618 34.0407 16.3794 34.018 16.2934 34.018ZM37.1006 23.2298C35.875 23.2311 34.6998 23.7184 33.833 24.585C32.9662 25.4516 32.4785 26.6266 32.4769 27.8523C32.4779 29.0782 32.9651 30.2536 33.8317 31.1207C34.6984 31.9878 35.8736 32.4756 37.0994 32.4772C38.3255 32.4762 39.5012 31.9888 40.3683 31.122C41.2354 30.2551 41.7231 29.0796 41.7243 27.8535C41.7231 26.6276 41.2355 25.4523 40.3687 24.5854C39.5019 23.7186 38.3265 23.2311 37.1006 23.2298ZM23.2296 21.689H9.35847V22.4594C9.35753 23.0723 9.11355 23.6598 8.68005 24.0931C8.24656 24.5263 7.65893 24.77 7.04603 24.7706H5.5052C5.30087 24.7706 5.10491 24.8518 4.96043 24.9963C4.81595 25.1408 4.73478 25.3367 4.73478 25.5411V27.0819C4.73478 27.5083 5.07997 27.8535 5.5052 27.8535H8.42322L10.1826 26.0953L12.0818 27.2443C12.3362 27.1249 12.593 27.0186 12.8486 26.9242L13.3778 24.7706H19.2103L19.7394 26.9242C19.995 27.0198 20.2506 27.1261 20.5062 27.2443L22.4054 26.0953L24.1636 27.8535H27.0828C27.2872 27.8535 27.4831 27.7723 27.6276 27.6278C27.7721 27.4834 27.8533 27.2874 27.8533 27.0831V25.5422C27.8534 25.441 27.8336 25.3407 27.795 25.2471C27.7563 25.1534 27.6996 25.0684 27.628 24.9967C27.5565 24.925 27.4715 24.8682 27.3779 24.8294C27.2844 24.7906 27.1841 24.7706 27.0828 24.7706H25.542C24.9291 24.77 24.3415 24.5263 23.908 24.0931C23.4745 23.6598 23.2305 23.0723 23.2296 22.4594V21.689ZM8.58806 10.8996C6.74906 10.9014 4.98593 11.6328 3.68556 12.9332C2.38519 14.2336 1.65382 15.9967 1.65192 17.8357V20.1469H3.96436V13.9824H5.5052V20.1469H11.6697V13.9824H13.2106V20.1469H15.523V17.8369C15.5211 15.9981 14.7899 14.2351 13.4898 12.9348C12.1897 11.6345 10.4268 10.903 8.58806 10.9007V10.8996ZM24 10.8996C22.1612 10.9018 20.3984 11.6333 19.0982 12.9336C17.7981 14.2339 17.0669 15.9969 17.065 17.8357V20.1469H19.3763V13.9824H20.9171V20.1469H27.0828V13.9824H28.6237V20.1469H30.9349V17.8369C30.9333 15.9979 30.2023 14.2346 28.9021 12.934C27.602 11.6334 25.839 10.9018 24 10.8996ZM42.4948 9.35872C43.9248 9.36061 45.2957 9.92953 46.3069 10.9407C47.3181 11.9519 47.887 13.3228 47.8889 14.7528C47.887 16.1829 47.3181 17.5538 46.3069 18.5649C45.2957 19.5761 43.9248 20.145 42.4948 20.1469H34.0178V14.7528C34.0197 13.3228 34.5886 11.9519 35.5998 10.9407C36.611 9.92953 37.9819 9.36061 39.4119 9.35872H42.4948ZM42.4948 10.8996H39.4131C38.3913 10.9005 37.4116 11.3067 36.689 12.0291C35.9664 12.7515 35.5599 13.7311 35.5586 14.7528V18.6061H42.4948C43.5163 18.6048 44.4957 18.1985 45.218 17.4761C45.9404 16.7538 46.3468 15.7744 46.348 14.7528C46.3468 13.7313 45.9404 12.7519 45.218 12.0295C44.4957 11.3072 43.5163 10.9008 42.4948 10.8996ZM38.6415 15.5232V17.0641H37.1006V15.5232H38.6415ZM41.7231 15.5232V17.0641H40.1823V15.5232H41.7231ZM44.806 15.5232V17.0641H43.2652V15.5232H44.806ZM44.806 12.4416V13.9824H37.1006V12.4416H44.806ZM8.58806 1.65216C7.56649 1.65343 6.58713 2.0598 5.86478 2.78216C5.14242 3.50451 4.73604 4.48388 4.73478 5.50544C4.73604 6.52701 5.14242 7.50637 5.86478 8.22872C6.58713 8.95108 7.56649 9.35745 8.58806 9.35872C9.60962 9.35745 10.589 8.95108 11.3113 8.22872C12.0337 7.50637 12.4401 6.52701 12.4413 5.50544C12.4401 4.48388 12.0337 3.50451 11.3113 2.78216C10.589 2.0598 9.60962 1.65343 8.58806 1.65216ZM24 1.65216C22.9784 1.65343 21.999 2.0598 21.2767 2.78216C20.5543 3.50451 20.148 4.48388 20.1467 5.50544C20.148 6.52701 20.5543 7.50637 21.2767 8.22872C21.999 8.95108 22.9784 9.35745 24 9.35872C25.0215 9.35745 26.0009 8.95108 26.7233 8.22872C27.4456 7.50637 27.852 6.52701 27.8533 5.50544C27.852 4.48388 27.4456 3.50451 26.7233 2.78216C26.0009 2.0598 25.0215 1.65343 24 1.65216Z" fill="#1DC7AC"/>
</svg>
