<svg width="48" height="48" viewBox="0 0 48 48" fill="none" xmlns="http://www.w3.org/2000/svg">
<path d="M35.9253 0.111328C36.9804 0.112593 37.992 0.532306 38.7381 1.27841C39.4842 2.02451 39.9039 3.03607 39.9052 4.09122V8.54291L44.8144 13.4616C46.7599 15.4078 47.8562 18.0449 47.8638 20.7967V47.0673C47.8639 47.172 47.8434 47.2757 47.8035 47.3724C47.7635 47.4691 47.7048 47.557 47.6308 47.631C47.5568 47.705 47.4689 47.7637 47.3721 47.8037C47.2754 47.8437 47.1717 47.8642 47.0671 47.864H32.7433C32.6386 47.8642 32.535 47.8437 32.4382 47.8037C32.3415 47.7637 32.2536 47.705 32.1796 47.631C32.1056 47.557 32.0469 47.4691 32.0069 47.3724C31.9669 47.2757 31.9465 47.172 31.9466 47.0673V39.3369L31.4903 38.6059C30.5456 37.096 29.9643 35.3873 29.7922 33.6145C29.6202 31.8417 29.8621 30.0532 30.4989 28.3898L11.8154 35.5863C10.8307 35.9658 9.73555 35.9387 8.77081 35.5109C7.80607 35.0831 7.05076 34.2896 6.67097 33.3049L3.68008 25.5387C2.70355 25.4392 1.79844 24.9816 1.13938 24.2541C0.480322 23.5267 0.114001 22.581 0.111084 21.5994V4.09122C0.112348 3.03607 0.532062 2.02451 1.27816 1.27841C2.02426 0.532306 3.03583 0.112593 4.09097 0.111328H35.9253ZM46.2716 39.9054H33.5388V46.2718H46.2716V39.9054ZM36.7208 41.4964V43.0886H35.1298V41.4964H36.7208ZM41.1104 12.0056L43.8039 18.9991C44.1826 19.9835 44.1551 21.0781 43.7273 22.0423C43.2996 23.0064 42.5065 23.7614 41.5225 24.1412L40.7067 24.4589L43.651 27.4044L42.5258 28.5295L29.8432 15.8505C29.3527 15.3587 28.689 15.0788 27.9945 15.0708C27.2999 15.0628 26.63 15.3274 26.1283 15.8078C25.6266 16.2882 25.3333 16.9461 25.3112 17.6403C25.2892 18.3345 25.5401 19.0098 26.0102 19.521L32.5319 26.6364C32.766 26.8908 32.809 27.2694 32.637 27.568C31.7455 29.1265 31.2934 30.8975 31.329 32.6926C31.3645 34.4877 31.8863 36.2395 32.8389 37.7614L33.1841 38.3132H46.2716V20.7967C46.2651 18.4672 45.3367 16.235 43.6892 14.588L41.1104 12.0044V12.0056ZM29.4072 25.5745H16.3137V25.5793L6.8143 29.2402L8.15686 32.7316C8.26955 33.0242 8.43878 33.2918 8.65488 33.519C8.87098 33.7462 9.12972 33.9287 9.41632 34.0559C9.70293 34.1831 10.0118 34.2526 10.3253 34.2605C10.6387 34.2683 10.9507 34.2143 11.2433 34.1016L30.4416 26.702L29.4072 25.5745ZM11.8991 25.5793H5.40128L6.23978 27.7579L11.8991 25.5793ZM35.9253 1.70233H4.09097C3.4574 1.70233 2.84978 1.95401 2.40177 2.40202C1.95377 2.85002 1.70208 3.45764 1.70208 4.09122V21.5994C1.70208 22.233 1.95377 22.8406 2.40177 23.2886C2.84978 23.7366 3.4574 23.9883 4.09097 23.9883H27.9488L24.8409 20.5925C24.11 19.7715 23.726 18.699 23.7696 17.6007C23.8131 16.5024 24.2809 15.4638 25.0745 14.7033C25.8682 13.9428 26.9258 13.5196 28.0249 13.5229C29.1241 13.5261 30.1792 13.9554 30.9684 14.7206L38.2592 22.0127C38.2891 21.8765 38.307 21.7379 38.313 21.5994V9.16761L38.3058 9.14969H38.313V4.09122C38.313 3.45785 38.0615 2.85041 37.6137 2.40244C37.166 1.95447 36.5587 1.70265 35.9253 1.70233ZM39.9052 13.3028V21.5994C39.9038 22.1476 39.7891 22.6897 39.5684 23.1916L40.9491 22.6589C41.2419 22.5463 41.5095 22.3771 41.7369 22.1611C41.9642 21.945 42.1468 21.6863 42.2741 21.3997C42.4015 21.1131 42.4711 20.8042 42.479 20.4907C42.487 20.1771 42.433 19.8651 42.3204 19.5724L39.9052 13.3016V13.3028ZM7.27297 18.4162V20.0084H4.09097V18.4162H7.27417H7.27297ZM21.5991 18.4162V20.0084H18.4159V18.4162H21.5991ZM7.27417 13.6408V15.233H4.09097V13.6408H7.27417ZM12.0496 13.6408V15.233H8.86517V13.6408H12.0496ZM16.8249 13.6408V15.233H13.6406V13.6408H16.8249ZM21.5991 13.6408V15.233H18.4159V13.6408H21.5991ZM9.18408 3.29452C10.3272 3.29452 11.2529 4.22141 11.2529 5.36449V9.18433C11.2529 10.3274 10.3272 11.2531 9.18408 11.2531H5.36425C5.09247 11.2533 4.82333 11.1999 4.5722 11.096C4.32106 10.9921 4.09286 10.8397 3.90063 10.6476C3.7084 10.4555 3.55591 10.2274 3.45187 9.97629C3.34783 9.72522 3.29428 9.4561 3.29428 9.18433V5.36449C3.29428 4.22141 4.22117 3.29452 5.36425 3.29452H9.18408ZM9.18408 4.88672H5.36425C5.23754 4.88672 5.11601 4.93705 5.02641 5.02666C4.93681 5.11626 4.88647 5.23778 4.88647 5.36449V6.47772H6.47747V8.06991H4.88647V9.18433C4.88647 9.44711 5.10028 9.66211 5.36425 9.66211H9.18408C9.3108 9.66211 9.43232 9.61177 9.52192 9.52217C9.61152 9.43257 9.66186 9.31104 9.66186 9.18433V8.06991H8.06967V6.47772H9.66186V5.36449C9.66186 5.23778 9.61152 5.11626 9.52192 5.02666C9.43232 4.93705 9.3108 4.88672 9.18408 4.88672ZM35.1298 4.09122V6.47772H33.5376V4.09122H35.1298ZM31.9454 4.09122V6.47772H30.3544V4.09122H31.9454ZM28.7622 4.09122V6.47772H27.1712V4.09122H28.7622ZM25.579 4.09122V6.47772H23.9868V4.09122H25.579Z" fill="#1DC7AC"/>
</svg>
