<svg width="84" height="60" viewBox="0 0 84 60" fill="none" xmlns="http://www.w3.org/2000/svg">
<path d="M66.45 22.3599C66.2809 20.5312 66.4103 15.56 71.1732 8.64715C71.5335 8.1255 71.4681 7.42196 71.0207 6.97472C69.0788 5.03313 67.8766 3.80794 67.0333 2.9506C65.9245 1.82016 65.4183 1.30507 64.6774 0.633418C64.1827 0.188801 63.4342 0.181058 62.9343 0.616883C54.6324 7.8398 45.4116 22.7649 46.7459 41.0504C47.5277 51.7873 55.3605 59.5806 65.3696 59.5806C75.6413 59.5806 83.9983 51.226 83.9983 40.9555C83.9983 31.0477 76.2208 22.9225 66.45 22.3599ZM65.3696 56.9559C56.7742 56.9559 50.0438 50.1867 49.3633 40.8607C49.3633 40.8607 49.3633 40.8607 49.3633 40.8594C47.8623 20.2941 60.0888 6.93627 63.7828 3.39915C64.1429 3.75413 64.5544 4.17185 65.1606 4.78956C65.8912 5.53286 66.891 6.55044 68.4034 8.06789C62.6215 16.9748 63.7123 23.3211 64.1903 24.231C64.4172 24.6629 64.8825 24.9539 65.3696 24.9539C74.1943 24.9539 81.3733 32.1319 81.3733 40.9555C81.3733 49.7779 74.1943 56.9559 65.3696 56.9559Z" fill="#DADADA" fill-opacity="0.6"/>
<path d="M19.8358 22.359C19.6653 20.5354 19.7909 15.5681 24.559 8.64659C24.918 8.12496 24.8538 7.42144 24.4065 6.97421C22.4684 5.03648 21.2675 3.81263 20.4254 2.95531C19.3129 1.82241 18.8053 1.30589 18.0645 0.633081C17.5697 0.188476 16.8212 0.182046 16.3214 0.615233C8.01954 7.83796 -1.2026 22.7602 0.129061 41.0489V41.0502C0.913541 51.7856 8.74745 59.5786 18.7566 59.5786C29.0284 59.5786 37.3854 51.2243 37.3854 40.954C37.3854 31.0453 29.6078 22.9191 19.8358 22.359ZM18.7566 56.954C10.1626 56.954 3.42829 50.185 2.74644 40.858V40.8593C1.24941 20.2894 13.4759 6.93444 17.1698 3.39874C17.5312 3.75371 17.944 4.17404 18.5516 4.79305C19.2808 5.53633 20.2793 6.55257 21.7892 8.06735C16.0073 16.9753 17.0981 23.3201 17.5761 24.2287C17.803 24.6606 18.2695 24.9529 18.7566 24.9529C27.5814 24.9529 34.7604 32.1307 34.7604 40.954C34.7604 49.7762 27.5814 56.954 18.7566 56.954Z" fill="#DADADA" fill-opacity="0.6"/>
</svg>
