<svg width="515" height="298" viewBox="0 0 515 298" fill="none" xmlns="http://www.w3.org/2000/svg">
<g filter="url(#filter0_d)">
<rect x="40" y="20" width="435" height="218" rx="24" fill="#FFE0E8"/>
</g>
<path d="M90.876 64.372C90.876 65.3427 90.624 66.2573 90.12 67.116C89.6347 67.956 88.9067 68.656 87.936 69.216C86.984 69.7573 85.8547 70.0747 84.548 70.168V72.436H82.756V70.14C80.8893 69.972 79.3867 69.412 78.248 68.46C77.1093 67.4893 76.5213 66.1827 76.484 64.54H80.684C80.796 65.884 81.4867 66.696 82.756 66.976V61.628C81.412 61.292 80.3293 60.956 79.508 60.62C78.6867 60.284 77.9773 59.7427 77.38 58.996C76.7827 58.2493 76.484 57.232 76.484 55.944C76.484 54.32 77.0627 52.9947 78.22 51.968C79.396 50.9413 80.908 50.3533 82.756 50.204V47.936H84.548V50.204C86.34 50.3533 87.768 50.8947 88.832 51.828C89.9147 52.7613 90.5213 54.0493 90.652 55.692H86.424C86.368 55.1507 86.172 54.684 85.836 54.292C85.5187 53.8813 85.0893 53.592 84.548 53.424V58.716C85.948 59.0707 87.0493 59.416 87.852 59.752C88.6733 60.0693 89.3827 60.6013 89.98 61.348C90.5773 62.076 90.876 63.084 90.876 64.372ZM80.572 55.748C80.572 56.364 80.7587 56.868 81.132 57.26C81.5053 57.6333 82.0467 57.9413 82.756 58.184V53.34C82.084 53.4333 81.552 53.6853 81.16 54.096C80.768 54.5067 80.572 55.0573 80.572 55.748ZM84.548 67.032C85.2573 66.9013 85.808 66.612 86.2 66.164C86.6107 65.716 86.816 65.1747 86.816 64.54C86.816 63.924 86.62 63.4293 86.228 63.056C85.836 62.6827 85.276 62.3747 84.548 62.132V67.032ZM102.12 53.2V49.588H108.868V70H104.836V53.2H102.12ZM126.293 52.556L118.845 70H114.869L122.373 53.004H112.797V49.644H126.293V52.556ZM147.016 54.684C146.83 53.9 146.503 53.312 146.036 52.92C145.588 52.528 144.935 52.332 144.076 52.332C142.788 52.332 141.836 52.8547 141.22 53.9C140.623 54.9267 140.315 56.6067 140.296 58.94C140.744 58.1933 141.398 57.6147 142.256 57.204C143.115 56.7747 144.048 56.56 145.056 56.56C146.27 56.56 147.343 56.8213 148.276 57.344C149.21 57.8667 149.938 58.632 150.46 59.64C150.983 60.6293 151.244 61.824 151.244 63.224C151.244 64.5493 150.974 65.7347 150.432 66.78C149.91 67.8067 149.135 68.6093 148.108 69.188C147.082 69.7667 145.859 70.056 144.44 70.056C142.499 70.056 140.968 69.6267 139.848 68.768C138.747 67.9093 137.972 66.7147 137.524 65.184C137.095 63.6347 136.88 61.7307 136.88 59.472C136.88 56.056 137.468 53.48 138.644 51.744C139.82 49.9893 141.678 49.112 144.216 49.112C146.176 49.112 147.698 49.644 148.78 50.708C149.863 51.772 150.488 53.0973 150.656 54.684H147.016ZM144.16 59.78C143.171 59.78 142.34 60.0693 141.668 60.648C140.996 61.2267 140.66 62.0667 140.66 63.168C140.66 64.2693 140.968 65.1373 141.584 65.772C142.219 66.4067 143.106 66.724 144.244 66.724C145.252 66.724 146.046 66.416 146.624 65.8C147.222 65.184 147.52 64.3533 147.52 63.308C147.52 62.2253 147.231 61.3667 146.652 60.732C146.092 60.0973 145.262 59.78 144.16 59.78ZM154.735 66.024V62.944L163.891 49.84H168.455V62.608H170.919V66.024H168.455V70H164.535V66.024H154.735ZM164.787 54.04L159.047 62.608H164.787V54.04ZM174.03 54.964C174.124 53.0973 174.777 51.66 175.99 50.652C177.222 49.6253 178.837 49.112 180.834 49.112C182.197 49.112 183.364 49.3547 184.334 49.84C185.305 50.3067 186.033 50.9507 186.518 51.772C187.022 52.5747 187.274 53.4893 187.274 54.516C187.274 55.692 186.966 56.6907 186.35 57.512C185.753 58.3147 185.034 58.856 184.194 59.136V59.248C185.277 59.584 186.117 60.1813 186.714 61.04C187.33 61.8987 187.638 63 187.638 64.344C187.638 65.464 187.377 66.4627 186.854 67.34C186.35 68.2173 185.594 68.908 184.586 69.412C183.597 69.8973 182.402 70.14 181.002 70.14C178.893 70.14 177.176 69.608 175.85 68.544C174.525 67.48 173.825 65.912 173.75 63.84H177.558C177.596 64.7547 177.904 65.492 178.482 66.052C179.08 66.5933 179.892 66.864 180.918 66.864C181.87 66.864 182.598 66.6027 183.102 66.08C183.625 65.5387 183.886 64.848 183.886 64.008C183.886 62.888 183.532 62.0853 182.822 61.6C182.113 61.1147 181.012 60.872 179.518 60.872H178.706V57.652H179.518C182.169 57.652 183.494 56.7653 183.494 54.992C183.494 54.1893 183.252 53.564 182.766 53.116C182.3 52.668 181.618 52.444 180.722 52.444C179.845 52.444 179.164 52.6867 178.678 53.172C178.212 53.6387 177.941 54.236 177.866 54.964H174.03ZM193.48 70.196C192.771 70.196 192.183 69.9813 191.716 69.552C191.268 69.104 191.044 68.5533 191.044 67.9C191.044 67.2467 191.268 66.7053 191.716 66.276C192.183 65.828 192.771 65.604 193.48 65.604C194.171 65.604 194.74 65.828 195.188 66.276C195.636 66.7053 195.86 67.2467 195.86 67.9C195.86 68.5533 195.636 69.104 195.188 69.552C194.74 69.9813 194.171 70.196 193.48 70.196ZM198.961 66.024V62.944L208.117 49.84H212.681V62.608H215.145V66.024H212.681V70H208.761V66.024H198.961ZM209.013 54.04L203.273 62.608H209.013V54.04ZM217.725 53.2V49.588H224.473V70H220.441V53.2H217.725Z" fill="black"/>
<path d="M83.602 94.098C83.602 94.91 83.322 95.5867 82.762 96.128C82.2113 96.66 81.3667 96.926 80.228 96.926H78.352V101H77.078V91.242H80.228C81.3293 91.242 82.1647 91.508 82.734 92.04C83.3127 92.572 83.602 93.258 83.602 94.098ZM80.228 95.876C80.9373 95.876 81.46 95.722 81.796 95.414C82.132 95.106 82.3 94.6673 82.3 94.098C82.3 92.894 81.6093 92.292 80.228 92.292H78.352V95.876H80.228ZM88.8114 101.126C88.0928 101.126 87.4394 100.963 86.8514 100.636C86.2728 100.309 85.8154 99.8473 85.4794 99.25C85.1528 98.6433 84.9894 97.9433 84.9894 97.15C84.9894 96.366 85.1574 95.6753 85.4934 95.078C85.8388 94.4713 86.3054 94.0093 86.8934 93.692C87.4814 93.3653 88.1394 93.202 88.8674 93.202C89.5954 93.202 90.2534 93.3653 90.8414 93.692C91.4294 94.0093 91.8914 94.4667 92.2274 95.064C92.5728 95.6613 92.7454 96.3567 92.7454 97.15C92.7454 97.9433 92.5681 98.6433 92.2134 99.25C91.8681 99.8473 91.3968 100.309 90.7994 100.636C90.2021 100.963 89.5394 101.126 88.8114 101.126ZM88.8114 100.006C89.2688 100.006 89.6981 99.8987 90.0994 99.684C90.5008 99.4693 90.8228 99.1473 91.0654 98.718C91.3174 98.2887 91.4434 97.766 91.4434 97.15C91.4434 96.534 91.3221 96.0113 91.0794 95.582C90.8368 95.1527 90.5194 94.8353 90.1274 94.63C89.7354 94.4153 89.3108 94.308 88.8534 94.308C88.3868 94.308 87.9574 94.4153 87.5654 94.63C87.1828 94.8353 86.8748 95.1527 86.6414 95.582C86.4081 96.0113 86.2914 96.534 86.2914 97.15C86.2914 97.7753 86.4034 98.3027 86.6274 98.732C86.8608 99.1613 87.1688 99.4833 87.5514 99.698C87.9341 99.9033 88.3541 100.006 88.8114 100.006ZM95.9745 94.574C96.1985 94.1353 96.5158 93.7947 96.9265 93.552C97.3465 93.3093 97.8552 93.188 98.4525 93.188V94.504H98.1165C96.6885 94.504 95.9745 95.2787 95.9745 96.828V101H94.7005V93.328H95.9745V94.574ZM101.757 94.378V98.9C101.757 99.2733 101.836 99.5393 101.995 99.698C102.154 99.8473 102.429 99.922 102.821 99.922H103.759V101H102.611C101.902 101 101.37 100.837 101.015 100.51C100.66 100.183 100.483 99.6467 100.483 98.9V94.378H99.4892V93.328H100.483V91.396H101.757V93.328H103.759V94.378H101.757ZM108.705 94.378H107.095V101H105.821V94.378H104.827V93.328H105.821V92.782C105.821 91.9233 106.04 91.298 106.479 90.906C106.927 90.5047 107.641 90.304 108.621 90.304V91.368C108.061 91.368 107.664 91.48 107.431 91.704C107.207 91.9187 107.095 92.278 107.095 92.782V93.328H108.705V94.378ZM113.816 101.126C113.098 101.126 112.444 100.963 111.856 100.636C111.278 100.309 110.82 99.8473 110.484 99.25C110.158 98.6433 109.994 97.9433 109.994 97.15C109.994 96.366 110.162 95.6753 110.498 95.078C110.844 94.4713 111.31 94.0093 111.898 93.692C112.486 93.3653 113.144 93.202 113.872 93.202C114.6 93.202 115.258 93.3653 115.846 93.692C116.434 94.0093 116.896 94.4667 117.232 95.064C117.578 95.6613 117.75 96.3567 117.75 97.15C117.75 97.9433 117.573 98.6433 117.218 99.25C116.873 99.8473 116.402 100.309 115.804 100.636C115.207 100.963 114.544 101.126 113.816 101.126ZM113.816 100.006C114.274 100.006 114.703 99.8987 115.104 99.684C115.506 99.4693 115.828 99.1473 116.07 98.718C116.322 98.2887 116.448 97.766 116.448 97.15C116.448 96.534 116.327 96.0113 116.084 95.582C115.842 95.1527 115.524 94.8353 115.132 94.63C114.74 94.4153 114.316 94.308 113.858 94.308C113.392 94.308 112.962 94.4153 112.57 94.63C112.188 94.8353 111.88 95.1527 111.646 95.582C111.413 96.0113 111.296 96.534 111.296 97.15C111.296 97.7753 111.408 98.3027 111.632 98.732C111.866 99.1613 112.174 99.4833 112.556 99.698C112.939 99.9033 113.359 100.006 113.816 100.006ZM120.979 90.64V101H119.705V90.64H120.979ZM124.089 92.082C123.846 92.082 123.641 91.998 123.473 91.83C123.305 91.662 123.221 91.4567 123.221 91.214C123.221 90.9713 123.305 90.766 123.473 90.598C123.641 90.43 123.846 90.346 124.089 90.346C124.322 90.346 124.518 90.43 124.677 90.598C124.845 90.766 124.929 90.9713 124.929 91.214C124.929 91.4567 124.845 91.662 124.677 91.83C124.518 91.998 124.322 92.082 124.089 92.082ZM124.705 93.328V101H123.431V93.328H124.705ZM130.502 101.126C129.783 101.126 129.13 100.963 128.542 100.636C127.963 100.309 127.506 99.8473 127.17 99.25C126.843 98.6433 126.68 97.9433 126.68 97.15C126.68 96.366 126.848 95.6753 127.184 95.078C127.529 94.4713 127.996 94.0093 128.584 93.692C129.172 93.3653 129.83 93.202 130.558 93.202C131.286 93.202 131.944 93.3653 132.532 93.692C133.12 94.0093 133.582 94.4667 133.918 95.064C134.263 95.6613 134.436 96.3567 134.436 97.15C134.436 97.9433 134.259 98.6433 133.904 99.25C133.559 99.8473 133.087 100.309 132.49 100.636C131.893 100.963 131.23 101.126 130.502 101.126ZM130.502 100.006C130.959 100.006 131.389 99.8987 131.79 99.684C132.191 99.4693 132.513 99.1473 132.756 98.718C133.008 98.2887 133.134 97.766 133.134 97.15C133.134 96.534 133.013 96.0113 132.77 95.582C132.527 95.1527 132.21 94.8353 131.818 94.63C131.426 94.4153 131.001 94.308 130.544 94.308C130.077 94.308 129.648 94.4153 129.256 94.63C128.873 94.8353 128.565 95.1527 128.332 95.582C128.099 96.0113 127.982 96.534 127.982 97.15C127.982 97.7753 128.094 98.3027 128.318 98.732C128.551 99.1613 128.859 99.4833 129.242 99.698C129.625 99.9033 130.045 100.006 130.502 100.006ZM141.677 94.756C141.939 94.2987 142.321 93.9253 142.825 93.636C143.329 93.3467 143.903 93.202 144.547 93.202C145.238 93.202 145.859 93.3653 146.409 93.692C146.96 94.0187 147.394 94.4807 147.711 95.078C148.029 95.666 148.187 96.352 148.187 97.136C148.187 97.9107 148.029 98.6013 147.711 99.208C147.394 99.8147 146.955 100.286 146.395 100.622C145.845 100.958 145.229 101.126 144.547 101.126C143.885 101.126 143.301 100.981 142.797 100.692C142.303 100.403 141.929 100.034 141.677 99.586V101H140.403V90.64H141.677V94.756ZM146.885 97.136C146.885 96.5573 146.769 96.0533 146.535 95.624C146.302 95.1947 145.985 94.868 145.583 94.644C145.191 94.42 144.757 94.308 144.281 94.308C143.815 94.308 143.381 94.4247 142.979 94.658C142.587 94.882 142.27 95.2133 142.027 95.652C141.794 96.0813 141.677 96.5807 141.677 97.15C141.677 97.7287 141.794 98.2373 142.027 98.676C142.27 99.1053 142.587 99.4367 142.979 99.67C143.381 99.894 143.815 100.006 144.281 100.006C144.757 100.006 145.191 99.894 145.583 99.67C145.985 99.4367 146.302 99.1053 146.535 98.676C146.769 98.2373 146.885 97.724 146.885 97.136ZM149.668 97.136C149.668 96.352 149.827 95.666 150.144 95.078C150.462 94.4807 150.896 94.0187 151.446 93.692C152.006 93.3653 152.627 93.202 153.308 93.202C153.98 93.202 154.564 93.3467 155.058 93.636C155.553 93.9253 155.922 94.2893 156.164 94.728V93.328H157.452V101H156.164V99.572C155.912 100.02 155.534 100.393 155.03 100.692C154.536 100.981 153.957 101.126 153.294 101.126C152.613 101.126 151.997 100.958 151.446 100.622C150.896 100.286 150.462 99.8147 150.144 99.208C149.827 98.6013 149.668 97.9107 149.668 97.136ZM156.164 97.15C156.164 96.5713 156.048 96.0673 155.814 95.638C155.581 95.2087 155.264 94.882 154.862 94.658C154.47 94.4247 154.036 94.308 153.56 94.308C153.084 94.308 152.65 94.42 152.258 94.644C151.866 94.868 151.554 95.1947 151.32 95.624C151.087 96.0533 150.97 96.5573 150.97 97.136C150.97 97.724 151.087 98.2373 151.32 98.676C151.554 99.1053 151.866 99.4367 152.258 99.67C152.65 99.894 153.084 100.006 153.56 100.006C154.036 100.006 154.47 99.894 154.862 99.67C155.264 99.4367 155.581 99.1053 155.814 98.676C156.048 98.2373 156.164 97.7287 156.164 97.15ZM161.159 90.64V101H159.885V90.64H161.159ZM163.135 97.136C163.135 96.352 163.293 95.666 163.611 95.078C163.928 94.4807 164.362 94.0187 164.913 93.692C165.473 93.3653 166.093 93.202 166.775 93.202C167.447 93.202 168.03 93.3467 168.525 93.636C169.019 93.9253 169.388 94.2893 169.631 94.728V93.328H170.919V101H169.631V99.572C169.379 100.02 169.001 100.393 168.497 100.692C168.002 100.981 167.423 101.126 166.761 101.126C166.079 101.126 165.463 100.958 164.913 100.622C164.362 100.286 163.928 99.8147 163.611 99.208C163.293 98.6013 163.135 97.9107 163.135 97.136ZM169.631 97.15C169.631 96.5713 169.514 96.0673 169.281 95.638C169.047 95.2087 168.73 94.882 168.329 94.658C167.937 94.4247 167.503 94.308 167.027 94.308C166.551 94.308 166.117 94.42 165.725 94.644C165.333 94.868 165.02 95.1947 164.787 95.624C164.553 96.0533 164.437 96.5573 164.437 97.136C164.437 97.724 164.553 98.2373 164.787 98.676C165.02 99.1053 165.333 99.4367 165.725 99.67C166.117 99.894 166.551 100.006 167.027 100.006C167.503 100.006 167.937 99.894 168.329 99.67C168.73 99.4367 169.047 99.1053 169.281 98.676C169.514 98.2373 169.631 97.7287 169.631 97.15ZM177.09 93.188C178.023 93.188 178.779 93.4727 179.358 94.042C179.936 94.602 180.226 95.414 180.226 96.478V101H178.966V96.66C178.966 95.8947 178.774 95.3113 178.392 94.91C178.009 94.4993 177.486 94.294 176.824 94.294C176.152 94.294 175.615 94.504 175.214 94.924C174.822 95.344 174.626 95.9553 174.626 96.758V101H173.352V93.328H174.626V94.42C174.878 94.028 175.218 93.7247 175.648 93.51C176.086 93.2953 176.567 93.188 177.09 93.188ZM182.111 97.15C182.111 96.3567 182.269 95.666 182.587 95.078C182.904 94.4807 183.343 94.0187 183.903 93.692C184.472 93.3653 185.121 93.202 185.849 93.202C186.791 93.202 187.566 93.4307 188.173 93.888C188.789 94.3453 189.195 94.98 189.391 95.792H188.019C187.888 95.3253 187.631 94.9567 187.249 94.686C186.875 94.4153 186.409 94.28 185.849 94.28C185.121 94.28 184.533 94.532 184.085 95.036C183.637 95.5307 183.413 96.2353 183.413 97.15C183.413 98.074 183.637 98.788 184.085 99.292C184.533 99.796 185.121 100.048 185.849 100.048C186.409 100.048 186.875 99.9173 187.249 99.656C187.622 99.3947 187.879 99.0213 188.019 98.536H189.391C189.185 99.32 188.775 99.95 188.159 100.426C187.543 100.893 186.773 101.126 185.849 101.126C185.121 101.126 184.472 100.963 183.903 100.636C183.343 100.309 182.904 99.8473 182.587 99.25C182.269 98.6527 182.111 97.9527 182.111 97.15ZM198.371 96.87C198.371 97.1127 198.357 97.3693 198.329 97.64H192.197C192.243 98.396 192.5 98.9887 192.967 99.418C193.443 99.838 194.017 100.048 194.689 100.048C195.239 100.048 195.697 99.922 196.061 99.67C196.434 99.4087 196.695 99.0633 196.845 98.634H198.217C198.011 99.3713 197.601 99.9733 196.985 100.44C196.369 100.897 195.603 101.126 194.689 101.126C193.961 101.126 193.307 100.963 192.729 100.636C192.159 100.309 191.711 99.8473 191.385 99.25C191.058 98.6433 190.895 97.9433 190.895 97.15C190.895 96.3567 191.053 95.6613 191.371 95.064C191.688 94.4667 192.131 94.0093 192.701 93.692C193.279 93.3653 193.942 93.202 194.689 93.202C195.417 93.202 196.061 93.3607 196.621 93.678C197.181 93.9953 197.61 94.434 197.909 94.994C198.217 95.5447 198.371 96.17 198.371 96.87ZM197.055 96.604C197.055 96.1187 196.947 95.7033 196.733 95.358C196.518 95.0033 196.224 94.7373 195.851 94.56C195.487 94.3733 195.081 94.28 194.633 94.28C193.989 94.28 193.438 94.4853 192.981 94.896C192.533 95.3067 192.276 95.876 192.211 96.604H197.055Z" fill="black"/>
<path d="M322.5 67C322.5 54.8497 332.35 45 344.5 45H426.5C438.65 45 448.5 54.8497 448.5 67C448.5 79.1503 438.65 89 426.5 89H344.5C332.35 89 322.5 79.1503 322.5 67Z" fill="#222222"/>
<path d="M385 96L378.938 88.5H391.062L385 96Z" fill="#222222"/>
<path d="M349.488 69.736C349.488 70.3227 349.333 70.8667 349.024 71.368C348.725 71.8587 348.277 72.264 347.68 72.584C347.093 72.8933 346.395 73.064 345.584 73.096V74.392H344.56V73.08C343.429 72.984 342.517 72.648 341.824 72.072C341.131 71.4853 340.763 70.6907 340.72 69.688H343.632C343.696 70.328 344.005 70.7387 344.56 70.92V68.392C343.728 68.1787 343.061 67.9707 342.56 67.768C342.069 67.5653 341.637 67.24 341.264 66.792C340.891 66.344 340.704 65.7307 340.704 64.952C340.704 63.9813 341.061 63.2027 341.776 62.616C342.501 62.0293 343.429 61.6987 344.56 61.624V60.328H345.584V61.624C346.704 61.7093 347.589 62.0347 348.24 62.6C348.891 63.1653 349.253 63.9493 349.328 64.952H346.4C346.336 64.376 346.064 64.0027 345.584 63.832V66.312C346.469 66.5573 347.152 66.776 347.632 66.968C348.112 67.16 348.539 67.48 348.912 67.928C349.296 68.3653 349.488 68.968 349.488 69.736ZM343.6 64.824C343.6 65.0907 343.68 65.3147 343.84 65.496C344.011 65.6773 344.251 65.8373 344.56 65.976V63.752C344.261 63.8053 344.027 63.9227 343.856 64.104C343.685 64.2747 343.6 64.5147 343.6 64.824ZM345.584 70.968C345.904 70.9147 346.155 70.7867 346.336 70.584C346.528 70.3813 346.624 70.1307 346.624 69.832C346.624 69.5547 346.533 69.3307 346.352 69.16C346.181 68.9787 345.925 68.824 345.584 68.696V70.968ZM351.475 70.808C351.838 70.52 352.003 70.3867 351.971 70.408C353.017 69.544 353.838 68.8347 354.435 68.28C355.043 67.7253 355.555 67.144 355.971 66.536C356.387 65.928 356.595 65.336 356.595 64.76C356.595 64.3227 356.494 63.9813 356.291 63.736C356.089 63.4907 355.785 63.368 355.379 63.368C354.974 63.368 354.654 63.5227 354.419 63.832C354.195 64.1307 354.083 64.5573 354.083 65.112H351.443C351.465 64.2053 351.657 63.448 352.019 62.84C352.393 62.232 352.878 61.784 353.475 61.496C354.083 61.208 354.755 61.064 355.491 61.064C356.761 61.064 357.715 61.3893 358.355 62.04C359.006 62.6907 359.331 63.5387 359.331 64.584C359.331 65.7253 358.942 66.7867 358.163 67.768C357.385 68.7387 356.393 69.688 355.187 70.616H359.507V72.84H351.475V70.808ZM368.488 63.368L364.472 73H361.672L365.736 63.672H360.76V61.336H368.488V63.368ZM373.689 70.92V68.712L378.745 61.48H381.801V68.552H383.113V70.92H381.801V73H379.065V70.92H373.689ZM379.257 64.488L376.569 68.552H379.257V64.488ZM386.693 66.728C385.69 66.1947 385.189 65.3573 385.189 64.216C385.189 63.64 385.338 63.1173 385.637 62.648C385.936 62.168 386.389 61.7893 386.997 61.512C387.605 61.224 388.352 61.08 389.237 61.08C390.122 61.08 390.864 61.224 391.461 61.512C392.069 61.7893 392.522 62.168 392.821 62.648C393.12 63.1173 393.269 63.64 393.269 64.216C393.269 64.792 393.13 65.2933 392.853 65.72C392.586 66.1467 392.224 66.4827 391.765 66.728C392.341 67.0053 392.784 67.3893 393.093 67.88C393.402 68.36 393.557 68.9253 393.557 69.576C393.557 70.3333 393.365 70.9893 392.981 71.544C392.597 72.088 392.074 72.504 391.413 72.792C390.762 73.08 390.037 73.224 389.237 73.224C388.437 73.224 387.706 73.08 387.045 72.792C386.394 72.504 385.877 72.088 385.493 71.544C385.109 70.9893 384.917 70.3333 384.917 69.576C384.917 68.9147 385.072 68.344 385.381 67.864C385.69 67.3733 386.128 66.9947 386.693 66.728ZM390.613 64.632C390.613 64.1947 390.485 63.8587 390.229 63.624C389.984 63.3787 389.653 63.256 389.237 63.256C388.821 63.256 388.485 63.3787 388.229 63.624C387.984 63.8693 387.861 64.2107 387.861 64.648C387.861 65.064 387.989 65.3947 388.245 65.64C388.501 65.8747 388.832 65.992 389.237 65.992C389.642 65.992 389.973 65.8693 390.229 65.624C390.485 65.3787 390.613 65.048 390.613 64.632ZM389.237 67.912C388.736 67.912 388.33 68.0507 388.021 68.328C387.712 68.5947 387.557 68.968 387.557 69.448C387.557 69.896 387.706 70.264 388.005 70.552C388.314 70.84 388.725 70.984 389.237 70.984C389.749 70.984 390.149 70.84 390.437 70.552C390.736 70.264 390.885 69.896 390.885 69.448C390.885 68.9787 390.73 68.6053 390.421 68.328C390.122 68.0507 389.728 67.912 389.237 67.912ZM395.372 70.808C395.735 70.52 395.9 70.3867 395.868 70.408C396.913 69.544 397.735 68.8347 398.332 68.28C398.94 67.7253 399.452 67.144 399.868 66.536C400.284 65.928 400.492 65.336 400.492 64.76C400.492 64.3227 400.391 63.9813 400.188 63.736C399.985 63.4907 399.681 63.368 399.276 63.368C398.871 63.368 398.551 63.5227 398.316 63.832C398.092 64.1307 397.98 64.5573 397.98 65.112H395.34C395.361 64.2053 395.553 63.448 395.916 62.84C396.289 62.232 396.775 61.784 397.372 61.496C397.98 61.208 398.652 61.064 399.388 61.064C400.657 61.064 401.612 61.3893 402.252 62.04C402.903 62.6907 403.228 63.5387 403.228 64.584C403.228 65.7253 402.839 66.7867 402.06 67.768C401.281 68.7387 400.289 69.688 399.084 70.616H403.404V72.84H395.372V70.808ZM406.481 73.128C406.001 73.128 405.606 72.9893 405.297 72.712C404.998 72.424 404.849 72.072 404.849 71.656C404.849 71.2293 404.998 70.872 405.297 70.584C405.606 70.296 406.001 70.152 406.481 70.152C406.95 70.152 407.334 70.296 407.633 70.584C407.942 70.872 408.097 71.2293 408.097 71.656C408.097 72.072 407.942 72.424 407.633 72.712C407.334 72.9893 406.95 73.128 406.481 73.128ZM409.764 67C409.764 65.1653 410.116 63.72 410.82 62.664C411.535 61.608 412.682 61.08 414.26 61.08C415.839 61.08 416.98 61.608 417.684 62.664C418.399 63.72 418.756 65.1653 418.756 67C418.756 68.856 418.399 70.312 417.684 71.368C416.98 72.424 415.839 72.952 414.26 72.952C412.682 72.952 411.535 72.424 410.82 71.368C410.116 70.312 409.764 68.856 409.764 67ZM416.068 67C416.068 65.9227 415.951 65.096 415.716 64.52C415.482 63.9333 414.996 63.64 414.26 63.64C413.524 63.64 413.039 63.9333 412.804 64.52C412.57 65.096 412.452 65.9227 412.452 67C412.452 67.7253 412.495 68.328 412.58 68.808C412.666 69.2773 412.836 69.6613 413.092 69.96C413.359 70.248 413.748 70.392 414.26 70.392C414.772 70.392 415.156 70.248 415.412 69.96C415.679 69.6613 415.855 69.2773 415.94 68.808C416.026 68.328 416.068 67.7253 416.068 67ZM420.522 67C420.522 65.1653 420.874 63.72 421.578 62.664C422.293 61.608 423.439 61.08 425.018 61.08C426.597 61.08 427.738 61.608 428.442 62.664C429.157 63.72 429.514 65.1653 429.514 67C429.514 68.856 429.157 70.312 428.442 71.368C427.738 72.424 426.597 72.952 425.018 72.952C423.439 72.952 422.293 72.424 421.578 71.368C420.874 70.312 420.522 68.856 420.522 67ZM426.826 67C426.826 65.9227 426.709 65.096 426.474 64.52C426.239 63.9333 425.754 63.64 425.018 63.64C424.282 63.64 423.797 63.9333 423.562 64.52C423.327 65.096 423.21 65.9227 423.21 67C423.21 67.7253 423.253 68.328 423.338 68.808C423.423 69.2773 423.594 69.6613 423.85 69.96C424.117 70.248 424.506 70.392 425.018 70.392C425.53 70.392 425.914 70.248 426.17 69.96C426.437 69.6613 426.613 69.2773 426.698 68.808C426.783 68.328 426.826 67.7253 426.826 67Z" fill="white"/>
<circle cx="496" cy="33" r="2" fill="#A0A9B2"/>
<circle cx="496" cy="40" r="2" fill="#A0A9B2"/>
<circle cx="496" cy="48" r="2" fill="#A0A9B2"/>
<path d="M74.532 203.04V201.878H77.164V212H75.876V203.04H74.532ZM87.3604 202.242V212H86.0864V207.576H81.1164V212H79.8424V202.242H81.1164V206.526H86.0864V202.242H87.3604Z" fill="#ACBCCD"/>
<path d="M112.714 210.978C113.899 210.026 114.828 209.247 115.5 208.64C116.172 208.024 116.737 207.385 117.194 206.722C117.661 206.05 117.894 205.392 117.894 204.748C117.894 204.141 117.745 203.665 117.446 203.32C117.157 202.965 116.685 202.788 116.032 202.788C115.397 202.788 114.903 202.989 114.548 203.39C114.203 203.782 114.016 204.309 113.988 204.972H112.756C112.793 203.927 113.111 203.119 113.708 202.55C114.305 201.981 115.075 201.696 116.018 201.696C116.979 201.696 117.74 201.962 118.3 202.494C118.869 203.026 119.154 203.759 119.154 204.692C119.154 205.467 118.921 206.223 118.454 206.96C117.997 207.688 117.474 208.332 116.886 208.892C116.298 209.443 115.547 210.087 114.632 210.824H119.448V211.888H112.714V210.978ZM120.893 209.746V208.78L125.807 201.976H127.333V208.64H128.733V209.746H127.333V212H126.073V209.746H120.893ZM126.129 203.306L122.363 208.64H126.129V203.306ZM138.013 202.242V212H136.739V207.576H131.769V212H130.495V202.242H131.769V206.526H136.739V202.242H138.013Z" fill="#ACBCCD"/>
<path d="M207.532 203.04V201.878H210.164V212H208.876V203.04H207.532ZM222.74 202.312V212H221.466V204.776L218.246 212H217.35L214.116 204.762V212H212.842V202.312H214.214L217.798 210.32L221.382 202.312H222.74Z" fill="#ACBCCD"/>
<path d="M249.532 203.04V201.878H252.164V212H250.876V203.04H249.532ZM261.674 202.242L258.496 208.318V212H257.222V208.318L254.03 202.242H255.444L257.852 207.184L260.26 202.242H261.674Z" fill="#ACBCCD"/>
<path d="M292.846 209.83H288.59L287.806 212H286.462L289.99 202.298H291.46L294.974 212H293.63L292.846 209.83ZM292.482 208.794L290.718 203.866L288.954 208.794H292.482ZM298.066 210.964H301.482V212H296.792V202.242H298.066V210.964ZM304.389 210.964H307.805V212H303.115V202.242H304.389V210.964Z" fill="#ACBCCD"/>
<path d="M164.532 203.04V201.878H167.164V212H165.876V203.04H164.532ZM182.106 202.242L179.278 212H177.85L175.582 204.146L173.23 212L171.816 212.014L169.086 202.242H170.444L172.572 210.516L174.924 202.242H176.352L178.592 210.488L180.734 202.242H182.106Z" fill="#040404"/>
<path d="M41 154.826L50.8433 155.716L53.0804 154.826L53.5278 153.936H58.0021L58.8969 154.826H73.2144L74.1093 153.936H77.6887L78.5835 154.826L80.3732 155.271L81.268 153.936H82.1629L83.0577 153.491L83.5052 153.046H83.9526V147.706H85.7423L86.6371 146.817H88.4268L90.2165 148.596H92.0062L92.901 148.151L96.4804 147.706L96.9278 148.596H99.1649L100.955 146.817H106.324L107.219 147.706H109.008L111.693 145.927H117.062L117.957 144.592L119.746 142.367L120.641 143.257H122.431L123.326 142.367H131.379L134.064 140.587L134.959 141.477H137.196L141.223 137.917H142.118L143.012 139.697L143.907 140.587H144.802L145.697 139.697H146.592L147.487 140.587L148.381 141.477H158.225H159.12L160.014 140.587L160.909 141.477L162.252 142.367L166.278 138.807H172.542L173.437 138.362V134.358L174.332 133.468H175.227L176.122 134.358H177.911L178.806 135.248H181.491V136.138H184.175L185.07 137.028H186.412V135.248L187.755 134.358H188.649L192.229 137.028H193.124L194.019 136.138L194.913 135.693L198.94 138.807L200.73 137.917H205.652L206.546 138.807V139.697L207.441 140.587L208.336 139.697L209.231 138.807H210.126L211.915 140.587H212.81L214.153 139.697L215.942 138.807H217.285L218.179 137.917H221.759L223.548 135.248L224.443 134.358L225.338 135.248H228.918L231.155 133.913L231.602 133.468L235.181 137.028H237.866L238.761 136.583L239.656 136.138L240.551 137.028H241.445L242.34 137.917L243.235 138.807H249.946L250.841 139.697H251.736L252.184 138.807H256.658V136.138L257.553 135.248H260.237V134.358L261.132 133.913L262.027 133.468L262.922 134.358L264.711 133.468L268.291 135.248H272.318L273.66 134.803L275.897 134.358L276.344 132.578H280.371L281.713 131.688H282.608L283.503 133.023L284.398 133.913L285.293 132.578L287.977 130.798H290.214L291.557 131.688H296.031V130.798H298.715L299.61 131.688H302.742L303.637 130.798H305.874L306.322 131.688H308.559L309.454 130.798H311.243L313.033 132.578H313.928L314.823 131.688H317.507L317.955 132.578H318.402L318.849 131.688H322.876L324.666 134.358H325.561L326.456 133.468L330.035 131.688H333.167L333.614 133.023L335.404 134.358L338.089 134.803L342.115 134.358L343.905 133.468L345.247 132.578V130.798L349.274 130.353L350.169 129.908H351.959V130.798L353.301 130.353L355.091 129.463V130.97C355.24 131.358 355.628 132.133 355.986 132.133C356.344 132.133 357.03 132.43 357.328 132.578L358.67 133.023L360.012 132.578L364.934 131.243L366.276 128.573L368.066 129.908L369.856 129.463L370.751 127.683L371.645 125.459V125.014L372.54 127.239L372.988 127.683L374.777 127.239V126.794L374.33 126.349C374.33 126.052 374.33 125.37 374.33 125.014C374.33 124.569 373.882 123.679 374.33 123.679C374.777 123.679 375.214 124.569 375.443 125.014C375.626 125.37 376.567 125.162 377.014 125.014L378.357 123.679L378.804 123.234L381.041 122.789V118.339H382.384L382.831 117.45H383.726V115.225L384.621 113H385.963L388.2 115.67L390.437 113.89H391.779L392.674 115.67H393.569V114.335L394.464 113.89L395.359 114.335L395.806 115.67L396.254 193.982L397.148 195.317V209.555L401.175 209.11L403.412 207.33L404.755 208.22H409.229L409.676 207.33H412.361L412.808 208.22H415.045L415.94 209.11L416.835 210L423.546 209.555L423.994 154.381L428.021 153.936L435.627 150.376C435.925 150.228 436.522 150.02 436.522 150.376C436.522 150.732 436.522 152.898 436.522 153.936C436.969 153.936 437.953 153.936 438.311 153.936C438.669 153.936 438.759 154.529 438.759 154.826H441.891V155.716H444.575L445.47 156.606H446.365L446.812 158.385H450.839L451.734 157.495H454.866L455.761 156.606H457.103L457.998 157.495L458.893 158.83H459.244H460.235L461.577 158.385L463.367 157.495L464.709 157.05L465.157 155.716V144.592L468.289 144.147L468.736 143.257V138.807L470.526 137.917H474.553L475 137.028" stroke="#FF2E63" stroke-width="2"/>
<circle cx="384.5" cy="113.5" r="11.5" fill="white"/>
<circle cx="385" cy="114" r="8" fill="#7FBCF0"/>
<defs>
<filter id="filter0_d" x="0" y="0" width="515" height="298" filterUnits="userSpaceOnUse" color-interpolation-filters="sRGB">
<feFlood flood-opacity="0" result="BackgroundImageFix"/>
<feColorMatrix in="SourceAlpha" type="matrix" values="0 0 0 0 0 0 0 0 0 0 0 0 0 0 0 0 0 0 127 0" result="hardAlpha"/>
<feOffset dy="20"/>
<feGaussianBlur stdDeviation="20"/>
<feComposite in2="hardAlpha" operator="out"/>
<feColorMatrix type="matrix" values="0 0 0 0 1 0 0 0 0 0.180392 0 0 0 0 0.388235 0 0 0 0.15 0"/>
<feBlend mode="normal" in2="BackgroundImageFix" result="effect1_dropShadow"/>
<feBlend mode="normal" in="SourceGraphic" in2="effect1_dropShadow" result="shape"/>
</filter>
</defs>
</svg>
