<svg width="340" height="355" viewBox="0 0 340 355" fill="none" xmlns="http://www.w3.org/2000/svg">
<g filter="url(#filter0_d)">
<rect x="40" y="20" width="260" height="275" rx="24" fill="#FBDCE4"/>
</g>
<path d="M100.788 53.8H102.908L108.428 68H106.068L104.568 64.14H99.0879L97.6079 68H95.2279L100.788 53.8ZM104.128 62.48L101.848 56.26L99.4879 62.48H104.128ZM108.951 62.78C108.951 61.78 109.151 60.8733 109.551 60.06C109.964 59.2333 110.524 58.58 111.231 58.1C111.938 57.6067 112.751 57.36 113.671 57.36C114.471 57.36 115.191 57.5667 115.831 57.98C116.484 58.3933 116.991 58.9067 117.351 59.52V53.4H119.551V65.52C119.551 65.7733 119.598 65.9533 119.691 66.06C119.784 66.1667 119.938 66.2267 120.151 66.24V68C119.738 68.0667 119.418 68.1 119.191 68.1C118.778 68.1 118.424 67.9867 118.131 67.76C117.851 67.52 117.704 67.2267 117.691 66.88L117.671 66.1C117.271 66.7667 116.731 67.2867 116.051 67.66C115.371 68.02 114.664 68.2 113.931 68.2C112.971 68.2 112.111 67.9533 111.351 67.46C110.604 66.9667 110.018 66.3133 109.591 65.5C109.164 64.6733 108.951 63.7667 108.951 62.78ZM117.351 64.24V61.5C117.191 61.0733 116.951 60.6933 116.631 60.36C116.311 60.0133 115.944 59.74 115.531 59.54C115.131 59.34 114.731 59.24 114.331 59.24C113.704 59.24 113.158 59.4133 112.691 59.76C112.238 60.0933 111.878 60.5333 111.611 61.08C111.358 61.6267 111.231 62.2067 111.231 62.82C111.231 63.46 111.371 64.0467 111.651 64.58C111.944 65.1133 112.338 65.54 112.831 65.86C113.324 66.1667 113.878 66.32 114.491 66.32C114.864 66.32 115.251 66.2333 115.651 66.06C116.064 65.8733 116.424 65.6267 116.731 65.32C117.038 65 117.244 64.64 117.351 64.24ZM127.085 68.2C126.005 68.2 125.059 67.9533 124.245 67.46C123.432 66.9667 122.799 66.3133 122.345 65.5C121.892 64.6733 121.665 63.7733 121.665 62.8C121.665 61.8133 121.892 60.9067 122.345 60.08C122.799 59.2533 123.432 58.5933 124.245 58.1C125.059 57.6067 126.012 57.36 127.105 57.36C128.199 57.36 129.145 57.6133 129.945 58.12C130.745 58.6133 131.359 59.2667 131.785 60.08C132.225 60.8933 132.445 61.7667 132.445 62.7C132.445 63.0333 132.425 63.3 132.385 63.5H124.005C124.045 64.1133 124.212 64.6533 124.505 65.12C124.812 65.5733 125.192 65.9333 125.645 66.2C126.112 66.4533 126.619 66.58 127.165 66.58C127.752 66.58 128.305 66.4333 128.825 66.14C129.345 65.8467 129.705 65.46 129.905 64.98L131.785 65.52C131.425 66.3067 130.825 66.9533 129.985 67.46C129.159 67.9533 128.192 68.2 127.085 68.2ZM123.945 62.04H130.265C130.212 61.44 130.039 60.9133 129.745 60.46C129.452 59.9933 129.072 59.6333 128.605 59.38C128.152 59.1133 127.645 58.98 127.085 58.98C126.539 58.98 126.032 59.1133 125.565 59.38C125.112 59.6333 124.739 59.9933 124.445 60.46C124.152 60.9133 123.985 61.44 123.945 62.04ZM134.26 53.4H136.46V64.98C136.46 65.5133 136.54 65.8533 136.7 66C136.86 66.1467 137.06 66.22 137.3 66.22C137.567 66.22 137.82 66.1933 138.06 66.14C138.3 66.0867 138.5 66.02 138.66 65.94L138.98 67.68C138.66 67.8133 138.28 67.9267 137.84 68.02C137.4 68.1133 137.007 68.16 136.66 68.16C135.913 68.16 135.327 67.9533 134.9 67.54C134.473 67.1133 134.26 66.5267 134.26 65.78V53.4ZM144.996 68.2C143.916 68.2 142.969 67.9533 142.156 67.46C141.342 66.9667 140.709 66.3133 140.256 65.5C139.802 64.6733 139.576 63.7733 139.576 62.8C139.576 61.8133 139.802 60.9067 140.256 60.08C140.709 59.2533 141.342 58.5933 142.156 58.1C142.969 57.6067 143.922 57.36 145.016 57.36C146.109 57.36 147.056 57.6133 147.856 58.12C148.656 58.6133 149.269 59.2667 149.696 60.08C150.136 60.8933 150.356 61.7667 150.356 62.7C150.356 63.0333 150.336 63.3 150.296 63.5H141.916C141.956 64.1133 142.122 64.6533 142.416 65.12C142.722 65.5733 143.102 65.9333 143.556 66.2C144.022 66.4533 144.529 66.58 145.076 66.58C145.662 66.58 146.216 66.4333 146.736 66.14C147.256 65.8467 147.616 65.46 147.816 64.98L149.696 65.52C149.336 66.3067 148.736 66.9533 147.896 67.46C147.069 67.9533 146.102 68.2 144.996 68.2ZM141.856 62.04H148.176C148.122 61.44 147.949 60.9133 147.656 60.46C147.362 59.9933 146.982 59.6333 146.516 59.38C146.062 59.1133 145.556 58.98 144.996 58.98C144.449 58.98 143.942 59.1133 143.476 59.38C143.022 59.6333 142.649 59.9933 142.356 60.46C142.062 60.9133 141.896 61.44 141.856 62.04ZM159.43 68L156.07 63.18L154.35 64.82V68H152.15V53.4H154.35V62.6L159.19 57.56H161.55L157.49 61.94L161.77 68H159.43ZM167.3 68.2C166.22 68.2 165.274 67.9533 164.46 67.46C163.647 66.9667 163.014 66.3133 162.56 65.5C162.107 64.6733 161.88 63.7733 161.88 62.8C161.88 61.8133 162.107 60.9067 162.56 60.08C163.014 59.2533 163.647 58.5933 164.46 58.1C165.274 57.6067 166.227 57.36 167.32 57.36C168.414 57.36 169.36 57.6133 170.16 58.12C170.96 58.6133 171.574 59.2667 172 60.08C172.44 60.8933 172.66 61.7667 172.66 62.7C172.66 63.0333 172.64 63.3 172.6 63.5H164.22C164.26 64.1133 164.427 64.6533 164.72 65.12C165.027 65.5733 165.407 65.9333 165.86 66.2C166.327 66.4533 166.834 66.58 167.38 66.58C167.967 66.58 168.52 66.4333 169.04 66.14C169.56 65.8467 169.92 65.46 170.12 64.98L172 65.52C171.64 66.3067 171.04 66.9533 170.2 67.46C169.374 67.9533 168.407 68.2 167.3 68.2ZM164.16 62.04H170.48C170.427 61.44 170.254 60.9133 169.96 60.46C169.667 59.9933 169.287 59.6333 168.82 59.38C168.367 59.1133 167.86 58.98 167.3 58.98C166.754 58.98 166.247 59.1133 165.78 59.38C165.327 59.6333 164.954 59.9933 164.66 60.46C164.367 60.9133 164.2 61.44 164.16 62.04ZM179.676 68V53.8H185.856C186.496 53.8 187.083 53.9333 187.616 54.2C188.15 54.4667 188.61 54.82 188.996 55.26C189.396 55.7 189.703 56.1933 189.916 56.74C190.143 57.2867 190.256 57.8467 190.256 58.42C190.256 59.06 190.136 59.6667 189.896 60.24C189.67 60.8 189.35 61.2867 188.936 61.7C188.523 62.1133 188.036 62.4133 187.476 62.6L190.816 68H188.296L185.216 63.06H181.916V68H179.676ZM181.916 61.08H185.836C186.25 61.08 186.616 60.96 186.936 60.72C187.256 60.4667 187.51 60.14 187.696 59.74C187.883 59.34 187.976 58.9 187.976 58.42C187.976 57.9267 187.87 57.4867 187.656 57.1C187.443 56.7 187.163 56.38 186.816 56.14C186.47 55.9 186.103 55.78 185.716 55.78H181.916V61.08ZM191.683 64.94C191.683 64.2733 191.87 63.6933 192.243 63.2C192.616 62.6933 193.136 62.3067 193.803 62.04C194.483 61.76 195.263 61.62 196.143 61.62C196.61 61.62 197.083 61.66 197.563 61.74C198.056 61.8067 198.49 61.9067 198.863 62.04V61.38C198.863 60.6467 198.643 60.0733 198.203 59.66C197.763 59.2467 197.13 59.04 196.303 59.04C195.73 59.04 195.176 59.14 194.643 59.34C194.11 59.54 193.556 59.8333 192.983 60.22L192.243 58.74C192.936 58.2867 193.63 57.9467 194.323 57.72C195.03 57.48 195.77 57.36 196.543 57.36C197.943 57.36 199.043 57.7333 199.843 58.48C200.656 59.2133 201.063 60.26 201.063 61.62V65.52C201.063 65.7733 201.103 65.9533 201.183 66.06C201.276 66.1667 201.43 66.2267 201.643 66.24V68C201.443 68.04 201.263 68.0667 201.103 68.08C200.943 68.0933 200.81 68.1 200.703 68.1C200.223 68.1 199.863 67.9867 199.623 67.76C199.396 67.52 199.263 67.2533 199.223 66.96L199.163 66.36C198.71 66.9467 198.13 67.4 197.423 67.72C196.716 68.04 196.003 68.2 195.283 68.2C194.59 68.2 193.97 68.06 193.423 67.78C192.876 67.4867 192.45 67.0933 192.143 66.6C191.836 66.1067 191.683 65.5533 191.683 64.94ZM198.343 65.58C198.69 65.2333 198.863 64.9067 198.863 64.6V63.4C198.076 63.1067 197.276 62.96 196.463 62.96C195.663 62.96 195.01 63.1267 194.503 63.46C194.01 63.78 193.763 64.2133 193.763 64.76C193.763 65.2133 193.943 65.6333 194.303 66.02C194.676 66.3933 195.21 66.58 195.903 66.58C196.37 66.58 196.823 66.4867 197.263 66.3C197.703 66.1133 198.063 65.8733 198.343 65.58ZM219.732 68H217.532V62.14C217.532 61.18 217.372 60.4733 217.052 60.02C216.732 59.5533 216.265 59.32 215.652 59.32C215.039 59.32 214.465 59.5533 213.932 60.02C213.412 60.4733 213.045 61.0667 212.832 61.8V68H210.632V62.14C210.632 61.1533 210.472 60.44 210.152 60C209.832 59.5467 209.372 59.32 208.772 59.32C208.159 59.32 207.585 59.5467 207.052 60C206.532 60.4533 206.159 61.0467 205.932 61.78V68H203.732V57.54H205.732V59.64C206.132 58.9067 206.672 58.3467 207.352 57.96C208.032 57.56 208.805 57.36 209.672 57.36C210.539 57.36 211.219 57.5867 211.712 58.04C212.219 58.4933 212.532 59.06 212.652 59.74C213.559 58.1533 214.872 57.36 216.592 57.36C217.419 57.36 218.059 57.56 218.512 57.96C218.965 58.3467 219.279 58.8667 219.452 59.52C219.639 60.16 219.732 60.86 219.732 61.62V68ZM226.967 68.2C225.874 68.2 224.921 67.9533 224.107 67.46C223.307 66.9533 222.687 66.2933 222.247 65.48C221.807 64.6533 221.587 63.7533 221.587 62.78C221.587 61.8067 221.807 60.9133 222.247 60.1C222.701 59.2733 223.327 58.6133 224.127 58.12C224.941 57.6133 225.887 57.36 226.967 57.36C228.047 57.36 228.987 57.6133 229.787 58.12C230.601 58.6133 231.227 59.2733 231.667 60.1C232.121 60.9133 232.347 61.8067 232.347 62.78C232.347 63.7533 232.127 64.6533 231.687 65.48C231.247 66.2933 230.621 66.9533 229.807 67.46C229.007 67.9533 228.061 68.2 226.967 68.2ZM223.847 62.8C223.847 63.4667 223.987 64.0667 224.267 64.6C224.547 65.1333 224.921 65.5533 225.387 65.86C225.854 66.1667 226.381 66.32 226.967 66.32C227.541 66.32 228.061 66.1667 228.527 65.86C229.007 65.54 229.387 65.1133 229.667 64.58C229.947 64.0467 230.087 63.4467 230.087 62.78C230.087 62.1133 229.947 61.5133 229.667 60.98C229.387 60.4467 229.007 60.0267 228.527 59.72C228.061 59.4 227.541 59.24 226.967 59.24C226.394 59.24 225.867 59.4 225.387 59.72C224.921 60.0267 224.547 60.4533 224.267 61C223.987 61.5333 223.847 62.1333 223.847 62.8ZM243.679 68H241.479V62.14C241.479 61.1533 241.319 60.44 240.999 60C240.692 59.5467 240.232 59.32 239.619 59.32C239.192 59.32 238.765 59.4267 238.339 59.64C237.925 59.8533 237.552 60.1467 237.219 60.52C236.885 60.8933 236.645 61.3133 236.499 61.78V68H234.299V57.54H236.299V59.64C236.699 58.9467 237.279 58.3933 238.039 57.98C238.799 57.5667 239.639 57.36 240.559 57.36C241.385 57.36 242.025 57.56 242.479 57.96C242.932 58.3467 243.245 58.86 243.419 59.5C243.592 60.14 243.679 60.8467 243.679 61.62V68Z" fill="#22211F"/>
<path d="M117.237 90.18V88.78H118.189V90.18H117.237ZM117.237 99V91.706H118.189V99H117.237ZM122.679 99.14C122.082 99.14 121.527 99.042 121.013 98.846C120.509 98.6407 120.066 98.342 119.683 97.95L120.075 97.278C120.486 97.6607 120.897 97.9407 121.307 98.118C121.727 98.286 122.171 98.37 122.637 98.37C123.197 98.37 123.655 98.258 124.009 98.034C124.373 97.8007 124.555 97.4693 124.555 97.04C124.555 96.7507 124.467 96.5313 124.289 96.382C124.121 96.2233 123.874 96.0973 123.547 96.004C123.23 95.9107 122.847 95.8033 122.399 95.682C121.895 95.542 121.471 95.3973 121.125 95.248C120.789 95.0893 120.533 94.8933 120.355 94.66C120.187 94.4173 120.103 94.1047 120.103 93.722C120.103 93.2553 120.22 92.8633 120.453 92.546C120.696 92.2287 121.023 91.9907 121.433 91.832C121.853 91.664 122.32 91.58 122.833 91.58C123.393 91.58 123.888 91.6687 124.317 91.846C124.747 92.0233 125.097 92.2707 125.367 92.588L124.905 93.232C124.653 92.9333 124.341 92.714 123.967 92.574C123.603 92.4247 123.207 92.35 122.777 92.35C122.479 92.35 122.194 92.392 121.923 92.476C121.653 92.5507 121.429 92.6813 121.251 92.868C121.083 93.0453 120.999 93.2927 120.999 93.61C120.999 94.002 121.144 94.2727 121.433 94.422C121.723 94.5713 122.161 94.73 122.749 94.898C123.3 95.0473 123.781 95.1967 124.191 95.346C124.602 95.4953 124.919 95.696 125.143 95.948C125.367 96.1907 125.479 96.5313 125.479 96.97C125.479 97.6513 125.223 98.1833 124.709 98.566C124.196 98.9487 123.519 99.14 122.679 99.14ZM134.261 92.546C133.627 92.5647 133.067 92.742 132.581 93.078C132.105 93.414 131.769 93.876 131.573 94.464V99H130.621V91.706H131.517V93.456C131.769 92.9427 132.101 92.5273 132.511 92.21C132.931 91.8927 133.375 91.7153 133.841 91.678C133.935 91.6687 134.014 91.664 134.079 91.664C134.145 91.664 134.205 91.6687 134.261 91.678V92.546ZM138.461 99.14C137.761 99.14 137.135 98.9673 136.585 98.622C136.034 98.2767 135.6 97.8147 135.283 97.236C134.965 96.6573 134.807 96.0227 134.807 95.332C134.807 94.6507 134.961 94.0253 135.269 93.456C135.586 92.8867 136.02 92.434 136.571 92.098C137.121 91.7527 137.747 91.58 138.447 91.58C139.165 91.58 139.795 91.7527 140.337 92.098C140.878 92.4433 141.298 92.9007 141.597 93.47C141.905 94.03 142.059 94.646 142.059 95.318C142.059 95.4673 142.054 95.5933 142.045 95.696H135.801C135.847 96.2187 135.997 96.6853 136.249 97.096C136.501 97.4973 136.823 97.8193 137.215 98.062C137.607 98.2953 138.036 98.412 138.503 98.412C138.979 98.412 139.427 98.2907 139.847 98.048C140.267 97.8053 140.565 97.488 140.743 97.096L141.569 97.32C141.419 97.6747 141.186 97.992 140.869 98.272C140.561 98.5427 140.201 98.7573 139.791 98.916C139.38 99.0653 138.937 99.14 138.461 99.14ZM135.773 95.01H141.163C141.125 94.4873 140.981 94.0253 140.729 93.624C140.477 93.2133 140.155 92.896 139.763 92.672C139.371 92.4387 138.937 92.322 138.461 92.322C137.985 92.322 137.551 92.4387 137.159 92.672C136.767 92.896 136.445 93.2133 136.193 93.624C135.95 94.0253 135.81 94.4873 135.773 95.01ZM146.342 99.14C145.679 99.14 145.1 98.9627 144.606 98.608C144.111 98.2533 143.724 97.7913 143.444 97.222C143.173 96.6433 143.038 96.0227 143.038 95.36C143.038 94.8467 143.126 94.366 143.304 93.918C143.481 93.4607 143.724 93.0593 144.032 92.714C144.349 92.3593 144.718 92.084 145.138 91.888C145.558 91.6827 146.015 91.58 146.51 91.58C147.079 91.58 147.602 91.7293 148.078 92.028C148.563 92.3173 148.941 92.686 149.212 93.134V91.706H150.066V101.982H149.114V97.488C148.395 98.5893 147.471 99.14 146.342 99.14ZM146.636 98.3C147.205 98.3 147.695 98.132 148.106 97.796C148.526 97.4507 148.862 97.0447 149.114 96.578V94.324C149.067 93.988 148.913 93.6753 148.652 93.386C148.4 93.0967 148.096 92.8633 147.742 92.686C147.387 92.5087 147.037 92.42 146.692 92.42C146.169 92.42 145.702 92.5647 145.292 92.854C144.89 93.134 144.573 93.5027 144.34 93.96C144.116 94.408 144.004 94.8793 144.004 95.374C144.004 95.906 144.116 96.396 144.34 96.844C144.564 97.2827 144.872 97.6373 145.264 97.908C145.665 98.1693 146.122 98.3 146.636 98.3ZM152.098 95.99V91.706H153.05V95.822C153.05 97.474 153.615 98.3 154.744 98.3C155.304 98.3 155.827 98.118 156.312 97.754C156.807 97.39 157.161 96.9047 157.376 96.298V91.706H158.328V97.852C158.328 98.104 158.44 98.2347 158.664 98.244V99C158.552 99.0187 158.463 99.028 158.398 99.028C158.342 99.028 158.281 99.028 158.216 99.028C158.02 99.0093 157.852 98.9347 157.712 98.804C157.581 98.6733 157.516 98.5147 157.516 98.328L157.488 97.348C157.171 97.9173 156.737 98.3607 156.186 98.678C155.645 98.986 155.057 99.14 154.422 99.14C152.873 99.14 152.098 98.09 152.098 95.99ZM163.631 99.14C162.931 99.14 162.305 98.9673 161.755 98.622C161.204 98.2767 160.77 97.8147 160.453 97.236C160.135 96.6573 159.977 96.0227 159.977 95.332C159.977 94.6507 160.131 94.0253 160.439 93.456C160.756 92.8867 161.19 92.434 161.741 92.098C162.291 91.7527 162.917 91.58 163.617 91.58C164.335 91.58 164.965 91.7527 165.507 92.098C166.048 92.4433 166.468 92.9007 166.767 93.47C167.075 94.03 167.229 94.646 167.229 95.318C167.229 95.4673 167.224 95.5933 167.215 95.696H160.971C161.017 96.2187 161.167 96.6853 161.419 97.096C161.671 97.4973 161.993 97.8193 162.385 98.062C162.777 98.2953 163.206 98.412 163.673 98.412C164.149 98.412 164.597 98.2907 165.017 98.048C165.437 97.8053 165.735 97.488 165.913 97.096L166.739 97.32C166.589 97.6747 166.356 97.992 166.039 98.272C165.731 98.5427 165.371 98.7573 164.961 98.916C164.55 99.0653 164.107 99.14 163.631 99.14ZM160.943 95.01H166.333C166.295 94.4873 166.151 94.0253 165.899 93.624C165.647 93.2133 165.325 92.896 164.933 92.672C164.541 92.4387 164.107 92.322 163.631 92.322C163.155 92.322 162.721 92.4387 162.329 92.672C161.937 92.896 161.615 93.2133 161.363 93.624C161.12 94.0253 160.98 94.4873 160.943 95.01ZM171.091 99.14C170.494 99.14 169.939 99.042 169.425 98.846C168.921 98.6407 168.478 98.342 168.095 97.95L168.487 97.278C168.898 97.6607 169.309 97.9407 169.719 98.118C170.139 98.286 170.583 98.37 171.049 98.37C171.609 98.37 172.067 98.258 172.421 98.034C172.785 97.8007 172.967 97.4693 172.967 97.04C172.967 96.7507 172.879 96.5313 172.701 96.382C172.533 96.2233 172.286 96.0973 171.959 96.004C171.642 95.9107 171.259 95.8033 170.811 95.682C170.307 95.542 169.883 95.3973 169.537 95.248C169.201 95.0893 168.945 94.8933 168.767 94.66C168.599 94.4173 168.515 94.1047 168.515 93.722C168.515 93.2553 168.632 92.8633 168.865 92.546C169.108 92.2287 169.435 91.9907 169.845 91.832C170.265 91.664 170.732 91.58 171.245 91.58C171.805 91.58 172.3 91.6687 172.729 91.846C173.159 92.0233 173.509 92.2707 173.779 92.588L173.317 93.232C173.065 92.9333 172.753 92.714 172.379 92.574C172.015 92.4247 171.619 92.35 171.189 92.35C170.891 92.35 170.606 92.392 170.335 92.476C170.065 92.5507 169.841 92.6813 169.663 92.868C169.495 93.0453 169.411 93.2927 169.411 93.61C169.411 94.002 169.556 94.2727 169.845 94.422C170.135 94.5713 170.573 94.73 171.161 94.898C171.712 95.0473 172.193 95.1967 172.603 95.346C173.014 95.4953 173.331 95.696 173.555 95.948C173.779 96.1907 173.891 96.5313 173.891 96.97C173.891 97.6513 173.635 98.1833 173.121 98.566C172.608 98.9487 171.931 99.14 171.091 99.14ZM178.965 98.65C178.853 98.6967 178.648 98.7807 178.349 98.902C178.05 99.0233 177.705 99.084 177.313 99.084C176.902 99.084 176.543 98.9673 176.235 98.734C175.927 98.5007 175.773 98.1507 175.773 97.684V92.462H174.765V91.706H175.773V89.242H176.725V91.706H178.405V92.462H176.725V97.418C176.744 97.6887 176.837 97.8893 177.005 98.02C177.182 98.1413 177.383 98.202 177.607 98.202C177.868 98.202 178.102 98.16 178.307 98.076C178.522 97.9827 178.657 97.9173 178.713 97.88L178.965 98.65ZM180.154 90.18V88.78H181.106V90.18H180.154ZM180.154 99V91.706H181.106V99H180.154ZM189.335 99H188.383V94.926C188.383 94.0673 188.253 93.442 187.991 93.05C187.739 92.6487 187.347 92.448 186.815 92.448C186.442 92.448 186.073 92.5413 185.709 92.728C185.345 92.9053 185.023 93.1527 184.743 93.47C184.473 93.778 184.277 94.1327 184.155 94.534V99H183.203V91.706H184.071V93.358C184.361 92.826 184.785 92.3967 185.345 92.07C185.905 91.7433 186.512 91.58 187.165 91.58C187.707 91.58 188.136 91.7107 188.453 91.972C188.771 92.224 188.995 92.588 189.125 93.064C189.265 93.5307 189.335 94.086 189.335 94.73V99ZM194.291 99.098C193.787 99.098 193.325 98.9953 192.905 98.79C192.495 98.5847 192.135 98.3093 191.827 97.964C191.529 97.6093 191.295 97.208 191.127 96.76C190.959 96.312 190.875 95.85 190.875 95.374C190.875 94.6927 191.02 94.0673 191.309 93.498C191.599 92.9193 191.995 92.4573 192.499 92.112C193.013 91.7573 193.601 91.58 194.263 91.58C194.889 91.58 195.43 91.7387 195.887 92.056C196.354 92.3733 196.746 92.7653 197.063 93.232V91.706H197.917V99.028C197.917 99.7093 197.754 100.279 197.427 100.736C197.101 101.193 196.667 101.539 196.125 101.772C195.584 102.005 194.991 102.122 194.347 102.122C193.507 102.122 192.831 101.973 192.317 101.674C191.813 101.375 191.398 100.974 191.071 100.47L191.659 100.008C191.949 100.465 192.331 100.806 192.807 101.03C193.293 101.254 193.806 101.366 194.347 101.366C194.823 101.366 195.257 101.277 195.649 101.1C196.051 100.932 196.368 100.675 196.601 100.33C196.844 99.9847 196.965 99.5507 196.965 99.028V97.586C196.685 98.0433 196.303 98.412 195.817 98.692C195.332 98.9627 194.823 99.098 194.291 99.098ZM194.557 98.3C194.94 98.3 195.304 98.2113 195.649 98.034C195.995 97.8567 196.284 97.6327 196.517 97.362C196.76 97.082 196.909 96.7927 196.965 96.494V94.24C196.825 93.8853 196.625 93.5727 196.363 93.302C196.102 93.022 195.803 92.8073 195.467 92.658C195.131 92.4993 194.791 92.42 194.445 92.42C193.904 92.42 193.437 92.5693 193.045 92.868C192.663 93.1573 192.364 93.5307 192.149 93.988C191.944 94.436 191.841 94.9027 191.841 95.388C191.841 95.9107 191.963 96.396 192.205 96.844C192.448 97.2827 192.775 97.6373 193.185 97.908C193.596 98.1693 194.053 98.3 194.557 98.3ZM203.938 99V92.462H202.93V91.706H203.938V91.51C203.938 90.614 204.129 89.914 204.512 89.41C204.904 88.8967 205.427 88.64 206.08 88.64C206.36 88.64 206.635 88.682 206.906 88.766C207.186 88.85 207.424 88.962 207.62 89.102L207.326 89.788C207.046 89.5733 206.691 89.466 206.262 89.466C205.823 89.466 205.483 89.6387 205.24 89.984C205.007 90.3293 204.89 90.8287 204.89 91.482V91.706H206.906V92.462H204.89V99H203.938ZM211.098 99.14C210.398 99.14 209.773 98.9673 209.222 98.622C208.681 98.2767 208.256 97.8193 207.948 97.25C207.64 96.6713 207.486 96.046 207.486 95.374C207.486 94.6927 207.64 94.0673 207.948 93.498C208.266 92.9193 208.695 92.4573 209.236 92.112C209.787 91.7573 210.408 91.58 211.098 91.58C211.798 91.58 212.419 91.7573 212.96 92.112C213.511 92.4573 213.94 92.9193 214.248 93.498C214.566 94.0673 214.724 94.6927 214.724 95.374C214.724 96.046 214.57 96.6713 214.262 97.25C213.954 97.8193 213.525 98.2767 212.974 98.622C212.433 98.9673 211.808 99.14 211.098 99.14ZM208.452 95.388C208.452 95.9293 208.569 96.424 208.802 96.872C209.045 97.3107 209.367 97.6607 209.768 97.922C210.17 98.174 210.613 98.3 211.098 98.3C211.584 98.3 212.027 98.1693 212.428 97.908C212.83 97.6467 213.152 97.292 213.394 96.844C213.637 96.396 213.758 95.9013 213.758 95.36C213.758 94.8187 213.637 94.324 213.394 93.876C213.152 93.428 212.83 93.0733 212.428 92.812C212.027 92.5507 211.584 92.42 211.098 92.42C210.622 92.42 210.184 92.5553 209.782 92.826C209.381 93.0873 209.059 93.442 208.816 93.89C208.574 94.338 208.452 94.8373 208.452 95.388ZM219.957 92.546C219.322 92.5647 218.762 92.742 218.277 93.078C217.801 93.414 217.465 93.876 217.269 94.464V99H216.317V91.706H217.213V93.456C217.465 92.9427 217.796 92.5273 218.207 92.21C218.627 91.8927 219.07 91.7153 219.537 91.678C219.63 91.6687 219.709 91.664 219.775 91.664C219.84 91.664 219.901 91.6687 219.957 91.678V92.546ZM221.085 93.12V91.748H221.897V93.12H221.085ZM221.085 99V97.628H221.897V99H221.085Z" fill="#22211F"/>
<path d="M120.618 140C120.618 138.82 120.748 137.77 121.008 136.85C121.288 135.93 121.768 135.1 122.448 134.36C123.128 133.62 124.088 132.9 125.328 132.2C126.428 131.62 127.348 131.13 128.088 130.73C128.828 130.33 129.388 129.95 129.768 129.59C130.168 129.21 130.368 128.77 130.368 128.27C130.368 127.67 130.128 127.16 129.648 126.74C129.168 126.3 128.488 126.08 127.608 126.08C126.648 126.08 125.818 126.31 125.118 126.77C124.438 127.23 123.848 127.76 123.348 128.36L120.798 125.42C121.158 125.04 121.698 124.63 122.418 124.19C123.138 123.75 123.998 123.37 124.998 123.05C125.998 122.73 127.098 122.57 128.298 122.57C130.338 122.57 131.918 123.05 133.038 124.01C134.178 124.95 134.748 126.17 134.748 127.67C134.748 128.61 134.528 129.41 134.088 130.07C133.668 130.71 133.138 131.26 132.498 131.72C131.878 132.16 131.278 132.55 130.698 132.89C129.418 133.53 128.408 134.09 127.668 134.57C126.948 135.05 126.368 135.65 125.928 136.37H135.078V140H120.618ZM153.361 131.21C153.361 132.97 153.021 134.54 152.341 135.92C151.681 137.28 150.761 138.35 149.581 139.13C148.421 139.91 147.101 140.3 145.621 140.3C144.141 140.3 142.811 139.91 141.631 139.13C140.471 138.35 139.551 137.28 138.871 135.92C138.211 134.54 137.881 132.97 137.881 131.21C137.881 129.45 138.211 127.89 138.871 126.53C139.551 125.15 140.471 124.07 141.631 123.29C142.811 122.49 144.141 122.09 145.621 122.09C147.101 122.09 148.421 122.49 149.581 123.29C150.761 124.07 151.681 125.15 152.341 126.53C153.021 127.89 153.361 129.45 153.361 131.21ZM149.311 131.21C149.311 129.61 148.961 128.31 148.261 127.31C147.581 126.29 146.701 125.78 145.621 125.78C144.501 125.78 143.601 126.29 142.921 127.31C142.241 128.31 141.901 129.61 141.901 131.21C141.901 132.81 142.241 134.11 142.921 135.11C143.601 136.11 144.501 136.61 145.621 136.61C146.701 136.61 147.581 136.11 148.261 135.11C148.961 134.11 149.311 132.81 149.311 131.21ZM171.789 131.21C171.789 132.97 171.449 134.54 170.769 135.92C170.109 137.28 169.189 138.35 168.009 139.13C166.849 139.91 165.529 140.3 164.049 140.3C162.569 140.3 161.239 139.91 160.059 139.13C158.899 138.35 157.979 137.28 157.299 135.92C156.639 134.54 156.309 132.97 156.309 131.21C156.309 129.45 156.639 127.89 157.299 126.53C157.979 125.15 158.899 124.07 160.059 123.29C161.239 122.49 162.569 122.09 164.049 122.09C165.529 122.09 166.849 122.49 168.009 123.29C169.189 124.07 170.109 125.15 170.769 126.53C171.449 127.89 171.789 129.45 171.789 131.21ZM167.739 131.21C167.739 129.61 167.389 128.31 166.689 127.31C166.009 126.29 165.129 125.78 164.049 125.78C162.929 125.78 162.029 126.29 161.349 127.31C160.669 128.31 160.329 129.61 160.329 131.21C160.329 132.81 160.669 134.11 161.349 135.11C162.029 136.11 162.929 136.61 164.049 136.61C165.129 136.61 166.009 136.11 166.689 135.11C167.389 134.11 167.739 132.81 167.739 131.21ZM175.457 143.45L176.267 139.88H175.007V135.68H178.487V139.88L177.257 143.45H175.457ZM197.189 131.21C197.189 132.97 196.849 134.54 196.169 135.92C195.509 137.28 194.589 138.35 193.409 139.13C192.249 139.91 190.929 140.3 189.449 140.3C187.969 140.3 186.639 139.91 185.459 139.13C184.299 138.35 183.379 137.28 182.699 135.92C182.039 134.54 181.709 132.97 181.709 131.21C181.709 129.45 182.039 127.89 182.699 126.53C183.379 125.15 184.299 124.07 185.459 123.29C186.639 122.49 187.969 122.09 189.449 122.09C190.929 122.09 192.249 122.49 193.409 123.29C194.589 124.07 195.509 125.15 196.169 126.53C196.849 127.89 197.189 129.45 197.189 131.21ZM193.139 131.21C193.139 129.61 192.789 128.31 192.089 127.31C191.409 126.29 190.529 125.78 189.449 125.78C188.329 125.78 187.429 126.29 186.749 127.31C186.069 128.31 185.729 129.61 185.729 131.21C185.729 132.81 186.069 134.11 186.749 135.11C187.429 136.11 188.329 136.61 189.449 136.61C190.529 136.61 191.409 136.11 192.089 135.11C192.789 134.11 193.139 132.81 193.139 131.21ZM215.617 131.21C215.617 132.97 215.277 134.54 214.597 135.92C213.937 137.28 213.017 138.35 211.837 139.13C210.677 139.91 209.357 140.3 207.877 140.3C206.397 140.3 205.067 139.91 203.887 139.13C202.727 138.35 201.807 137.28 201.127 135.92C200.467 134.54 200.137 132.97 200.137 131.21C200.137 129.45 200.467 127.89 201.127 126.53C201.807 125.15 202.727 124.07 203.887 123.29C205.067 122.49 206.397 122.09 207.877 122.09C209.357 122.09 210.677 122.49 211.837 123.29C213.017 124.07 213.937 125.15 214.597 126.53C215.277 127.89 215.617 129.45 215.617 131.21ZM211.567 131.21C211.567 129.61 211.217 128.31 210.517 127.31C209.837 126.29 208.957 125.78 207.877 125.78C206.757 125.78 205.857 126.29 205.177 127.31C204.497 128.31 204.157 129.61 204.157 131.21C204.157 132.81 204.497 134.11 205.177 135.11C205.857 136.11 206.757 136.61 207.877 136.61C208.957 136.61 209.837 136.11 210.517 135.11C211.217 134.11 211.567 132.81 211.567 131.21ZM234.045 131.21C234.045 132.97 233.705 134.54 233.025 135.92C232.365 137.28 231.445 138.35 230.265 139.13C229.105 139.91 227.785 140.3 226.305 140.3C224.825 140.3 223.495 139.91 222.315 139.13C221.155 138.35 220.235 137.28 219.555 135.92C218.895 134.54 218.565 132.97 218.565 131.21C218.565 129.45 218.895 127.89 219.555 126.53C220.235 125.15 221.155 124.07 222.315 123.29C223.495 122.49 224.825 122.09 226.305 122.09C227.785 122.09 229.105 122.49 230.265 123.29C231.445 124.07 232.365 125.15 233.025 126.53C233.705 127.89 234.045 129.45 234.045 131.21ZM229.995 131.21C229.995 129.61 229.645 128.31 228.945 127.31C228.265 126.29 227.385 125.78 226.305 125.78C225.185 125.78 224.285 126.29 223.605 127.31C222.925 128.31 222.585 129.61 222.585 131.21C222.585 132.81 222.925 134.11 223.605 135.11C224.285 136.11 225.185 136.61 226.305 136.61C227.385 136.61 228.265 136.11 228.945 135.11C229.645 134.11 229.995 132.81 229.995 131.21Z" fill="#22211F"/>
<path d="M114.318 133.748H111.296V130.679H114.318C114.773 130.679 115.141 130.291 115.141 129.811C115.141 129.331 114.773 128.942 114.318 128.942H111.296V124.684C111.296 124.062 111.18 123.606 110.951 123.328C110.733 123.063 110.446 122.94 110.05 122.94C109.671 122.94 109.396 123.063 109.182 123.325C108.956 123.604 108.841 124.061 108.841 124.684V128.942H103.156L100.738 125.078C100.531 124.733 100.337 124.41 100.148 124.1C99.9779 123.82 99.812 123.593 99.6554 123.423C99.5167 123.273 99.3586 123.157 99.1737 123.067C98.9993 122.983 98.7775 122.941 98.5151 122.941C98.1804 122.941 97.8766 123.038 97.5858 123.237C97.2979 123.433 97.0989 123.677 96.9774 123.981C96.8707 124.269 96.8143 124.712 96.8143 125.283V128.942H93.8219C93.3679 128.942 93 129.331 93 129.811C93 130.291 93.3679 130.679 93.822 130.679H96.8143V133.749H93.822C93.3679 133.749 93 134.137 93 134.617C93 135.097 93.3679 135.486 93.822 135.486H96.8143V140.348C96.8143 140.951 96.9343 141.402 97.1719 141.689C97.3979 141.963 97.6844 142.09 98.0735 142.09C98.4489 142.09 98.7332 141.963 98.9689 141.688C99.2103 141.407 99.3324 140.956 99.3324 140.348V135.486H104.477L107.261 139.996C107.454 140.294 107.654 140.595 107.854 140.89C108.033 141.155 108.23 141.389 108.437 141.584C108.623 141.76 108.823 141.889 109.031 141.968C109.245 142.049 109.495 142.091 109.772 142.091C110.525 142.091 111.296 141.847 111.296 140.041V135.486H114.318C114.773 135.486 115.141 135.097 115.141 134.617C115.141 134.137 114.773 133.748 114.318 133.748ZM108.841 130.679V133.748H106.162L104.243 130.679H108.841ZM99.3325 127.153L100.437 128.942H99.3325V127.153ZM99.3325 133.748V130.679H101.51L103.404 133.748H99.3325ZM108.841 138.032L107.249 135.486H108.841V138.032Z" fill="#22211F"/>
<rect x="95" y="163" width="148" height="50" rx="25" fill="#FF2E63"/>
<path d="M132.032 183.024C131.765 182.725 131.355 182.453 130.8 182.208C130.245 181.963 129.627 181.84 128.944 181.84C128.069 181.84 127.424 182.005 127.008 182.336C126.592 182.667 126.384 183.12 126.384 183.696C126.384 184.101 126.491 184.421 126.704 184.656C126.917 184.891 127.243 185.083 127.68 185.232C128.128 185.381 128.693 185.536 129.376 185.696C130.165 185.867 130.848 186.075 131.424 186.32C132 186.565 132.443 186.896 132.752 187.312C133.061 187.717 133.216 188.261 133.216 188.944C133.216 189.669 133.035 190.267 132.672 190.736C132.309 191.205 131.813 191.552 131.184 191.776C130.565 192 129.867 192.112 129.088 192.112C127.317 192.112 125.776 191.579 124.464 190.512L125.152 189.296C125.387 189.531 125.701 189.765 126.096 190C126.501 190.235 126.96 190.432 127.472 190.592C127.995 190.741 128.544 190.816 129.12 190.816C129.931 190.816 130.56 190.672 131.008 190.384C131.456 190.085 131.68 189.653 131.68 189.088C131.68 188.661 131.552 188.32 131.296 188.064C131.051 187.808 130.683 187.595 130.192 187.424C129.701 187.253 129.104 187.083 128.4 186.912C127.632 186.72 126.987 186.512 126.464 186.288C125.941 186.053 125.547 185.749 125.28 185.376C125.024 185.003 124.896 184.517 124.896 183.92C124.896 183.195 125.072 182.581 125.424 182.08C125.776 181.579 126.261 181.2 126.88 180.944C127.499 180.688 128.197 180.56 128.976 180.56C129.733 180.56 130.421 180.677 131.04 180.912C131.669 181.147 132.224 181.461 132.704 181.856L132.032 183.024ZM138.582 192.16C137.75 192.16 137.014 191.963 136.374 191.568C135.734 191.173 135.233 190.645 134.87 189.984C134.507 189.323 134.326 188.603 134.326 187.824C134.326 187.035 134.507 186.315 134.87 185.664C135.233 185.013 135.734 184.491 136.374 184.096C137.025 183.701 137.766 183.504 138.598 183.504C139.441 183.504 140.171 183.707 140.79 184.112C141.419 184.507 141.905 185.029 142.246 185.68C142.598 186.32 142.774 187.013 142.774 187.76C142.774 187.995 142.763 188.176 142.742 188.304H135.814C135.857 188.848 136.006 189.333 136.262 189.76C136.529 190.176 136.87 190.507 137.286 190.752C137.702 190.987 138.15 191.104 138.63 191.104C139.142 191.104 139.622 190.976 140.07 190.72C140.529 190.464 140.843 190.128 141.014 189.712L142.23 190.048C141.963 190.667 141.499 191.173 140.838 191.568C140.177 191.963 139.425 192.16 138.582 192.16ZM135.766 187.328H141.462C141.419 186.784 141.265 186.304 140.998 185.888C140.731 185.472 140.39 185.147 139.974 184.912C139.558 184.677 139.099 184.56 138.598 184.56C138.107 184.56 137.654 184.677 137.238 184.912C136.822 185.147 136.481 185.472 136.214 185.888C135.958 186.304 135.809 186.784 135.766 187.328ZM151.587 192H150.179V187.328C150.179 186.443 150.04 185.797 149.763 185.392C149.496 184.976 149.086 184.768 148.531 184.768C148.147 184.768 147.763 184.864 147.379 185.056C147.006 185.248 146.67 185.509 146.371 185.84C146.083 186.16 145.875 186.533 145.747 186.96V192H144.339V183.648H145.619V185.44C145.95 184.853 146.424 184.384 147.043 184.032C147.672 183.68 148.355 183.504 149.091 183.504C149.742 183.504 150.243 183.659 150.595 183.968C150.958 184.267 151.214 184.683 151.363 185.216C151.512 185.739 151.587 186.336 151.587 187.008V192ZM153.233 187.84C153.233 187.051 153.393 186.331 153.713 185.68C154.043 185.019 154.491 184.491 155.057 184.096C155.633 183.701 156.289 183.504 157.025 183.504C157.697 183.504 158.299 183.68 158.833 184.032C159.366 184.384 159.782 184.811 160.081 185.312V180.32H161.489V190.4C161.489 190.731 161.638 190.901 161.937 190.912V192C161.67 192.043 161.462 192.064 161.313 192.064C161.035 192.064 160.79 191.968 160.577 191.776C160.374 191.584 160.273 191.371 160.273 191.136V190.432C159.942 190.965 159.499 191.387 158.945 191.696C158.39 192.005 157.814 192.16 157.217 192.16C156.449 192.16 155.761 191.963 155.153 191.568C154.555 191.163 154.086 190.635 153.745 189.984C153.403 189.323 153.233 188.608 153.233 187.84ZM160.081 189.072V186.672C159.953 186.309 159.745 185.984 159.457 185.696C159.169 185.397 158.843 185.163 158.481 184.992C158.129 184.811 157.777 184.72 157.425 184.72C156.881 184.72 156.401 184.869 155.985 185.168C155.579 185.467 155.259 185.856 155.025 186.336C154.801 186.816 154.689 187.323 154.689 187.856C154.689 188.411 154.811 188.923 155.057 189.392C155.313 189.861 155.659 190.24 156.097 190.528C156.534 190.805 157.019 190.944 157.553 190.944C157.894 190.944 158.246 190.864 158.609 190.704C158.971 190.533 159.291 190.304 159.569 190.016C159.846 189.728 160.017 189.413 160.081 189.072ZM180.478 192H179.07V187.328C179.07 186.453 178.926 185.808 178.638 185.392C178.361 184.976 177.945 184.768 177.39 184.768C176.825 184.768 176.313 184.976 175.854 185.392C175.395 185.797 175.07 186.325 174.878 186.976V192H173.47V187.328C173.47 186.443 173.331 185.797 173.054 185.392C172.777 184.976 172.361 184.768 171.806 184.768C171.251 184.768 170.739 184.971 170.27 185.376C169.811 185.771 169.486 186.299 169.294 186.96V192H167.886V183.648H169.166V185.44C169.507 184.821 169.95 184.347 170.494 184.016C171.038 183.675 171.651 183.504 172.334 183.504C173.027 183.504 173.582 183.696 173.998 184.08C174.414 184.453 174.67 184.939 174.766 185.536C175.513 184.181 176.574 183.504 177.95 183.504C178.59 183.504 179.091 183.659 179.454 183.968C179.827 184.267 180.089 184.683 180.238 185.216C180.398 185.739 180.478 186.336 180.478 187.008V192ZM186.315 192.16C185.483 192.16 184.747 191.963 184.107 191.568C183.478 191.163 182.987 190.635 182.635 189.984C182.283 189.323 182.107 188.608 182.107 187.84C182.107 187.061 182.283 186.347 182.635 185.696C182.998 185.035 183.494 184.507 184.123 184.112C184.763 183.707 185.494 183.504 186.315 183.504C187.147 183.504 187.878 183.707 188.507 184.112C189.147 184.507 189.643 185.035 189.995 185.696C190.358 186.347 190.539 187.061 190.539 187.84C190.539 188.608 190.358 189.323 189.995 189.984C189.643 190.635 189.153 191.163 188.523 191.568C187.894 191.963 187.158 192.16 186.315 192.16ZM183.547 187.856C183.547 188.432 183.67 188.955 183.915 189.424C184.171 189.893 184.507 190.267 184.923 190.544C185.339 190.811 185.803 190.944 186.315 190.944C186.827 190.944 187.291 190.805 187.707 190.528C188.134 190.251 188.47 189.877 188.715 189.408C188.971 188.928 189.099 188.4 189.099 187.824C189.099 187.248 188.971 186.725 188.715 186.256C188.47 185.787 188.134 185.413 187.707 185.136C187.291 184.859 186.827 184.72 186.315 184.72C185.803 184.72 185.339 184.864 184.923 185.152C184.507 185.429 184.171 185.803 183.915 186.272C183.67 186.741 183.547 187.269 183.547 187.856ZM199.493 192H198.085V187.328C198.085 186.443 197.947 185.797 197.669 185.392C197.403 184.976 196.992 184.768 196.437 184.768C196.053 184.768 195.669 184.864 195.285 185.056C194.912 185.248 194.576 185.509 194.277 185.84C193.989 186.16 193.781 186.533 193.653 186.96V192H192.245V183.648H193.525V185.44C193.856 184.853 194.331 184.384 194.949 184.032C195.579 183.68 196.261 183.504 196.997 183.504C197.648 183.504 198.149 183.659 198.501 183.968C198.864 184.267 199.12 184.683 199.269 185.216C199.419 185.739 199.493 186.336 199.493 187.008V192ZM205.379 192.16C204.547 192.16 203.811 191.963 203.171 191.568C202.531 191.173 202.03 190.645 201.667 189.984C201.304 189.323 201.123 188.603 201.123 187.824C201.123 187.035 201.304 186.315 201.667 185.664C202.03 185.013 202.531 184.491 203.171 184.096C203.822 183.701 204.563 183.504 205.395 183.504C206.238 183.504 206.968 183.707 207.587 184.112C208.216 184.507 208.702 185.029 209.043 185.68C209.395 186.32 209.571 187.013 209.571 187.76C209.571 187.995 209.56 188.176 209.539 188.304H202.611C202.654 188.848 202.803 189.333 203.059 189.76C203.326 190.176 203.667 190.507 204.083 190.752C204.499 190.987 204.947 191.104 205.427 191.104C205.939 191.104 206.419 190.976 206.867 190.72C207.326 190.464 207.64 190.128 207.811 189.712L209.027 190.048C208.76 190.667 208.296 191.173 207.635 191.568C206.974 191.963 206.222 192.16 205.379 192.16ZM202.563 187.328H208.259C208.216 186.784 208.062 186.304 207.795 185.888C207.528 185.472 207.187 185.147 206.771 184.912C206.355 184.677 205.896 184.56 205.395 184.56C204.904 184.56 204.451 184.677 204.035 184.912C203.619 185.147 203.278 185.472 203.011 185.888C202.755 186.304 202.606 186.784 202.563 187.328ZM211.286 194.272C211.424 194.283 211.563 194.293 211.702 194.304C211.84 194.325 211.947 194.336 212.022 194.336C212.192 194.336 212.342 194.277 212.47 194.16C212.598 194.043 212.736 193.813 212.886 193.472C213.046 193.141 213.248 192.651 213.494 192L209.958 183.648H211.446L214.262 190.576L216.806 183.648H218.198L214.134 194.192C213.995 194.565 213.744 194.891 213.382 195.168C213.03 195.456 212.555 195.6 211.958 195.6C211.862 195.6 211.76 195.595 211.654 195.584C211.558 195.573 211.435 195.552 211.286 195.52V194.272Z" fill="white"/>
<rect x="96.5" y="222.5" width="147" height="48" rx="24" fill="#FCC5D3" stroke="#FF2E63"/>
<path d="M131.36 251V239.64H135.296C136.512 239.64 137.525 239.896 138.336 240.408C139.157 240.909 139.771 241.592 140.176 242.456C140.581 243.309 140.784 244.259 140.784 245.304C140.784 246.456 140.56 247.459 140.112 248.312C139.664 249.165 139.029 249.827 138.208 250.296C137.387 250.765 136.416 251 135.296 251H131.36ZM139.328 245.304C139.328 244.451 139.168 243.693 138.848 243.032C138.539 242.371 138.085 241.853 137.488 241.48C136.891 241.107 136.16 240.92 135.296 240.92H132.8V249.72H135.296C136.171 249.72 136.907 249.528 137.504 249.144C138.101 248.749 138.555 248.221 138.864 247.56C139.173 246.888 139.328 246.136 139.328 245.304ZM146.237 251.16C145.405 251.16 144.669 250.963 144.029 250.568C143.4 250.163 142.909 249.635 142.557 248.984C142.205 248.323 142.029 247.608 142.029 246.84C142.029 246.061 142.205 245.347 142.557 244.696C142.92 244.035 143.416 243.507 144.045 243.112C144.685 242.707 145.416 242.504 146.237 242.504C147.069 242.504 147.8 242.707 148.429 243.112C149.069 243.507 149.565 244.035 149.917 244.696C150.28 245.347 150.461 246.061 150.461 246.84C150.461 247.608 150.28 248.323 149.917 248.984C149.565 249.635 149.074 250.163 148.445 250.568C147.816 250.963 147.08 251.16 146.237 251.16ZM143.469 246.856C143.469 247.432 143.592 247.955 143.837 248.424C144.093 248.893 144.429 249.267 144.845 249.544C145.261 249.811 145.725 249.944 146.237 249.944C146.749 249.944 147.213 249.805 147.629 249.528C148.056 249.251 148.392 248.877 148.637 248.408C148.893 247.928 149.021 247.4 149.021 246.824C149.021 246.248 148.893 245.725 148.637 245.256C148.392 244.787 148.056 244.413 147.629 244.136C147.213 243.859 146.749 243.72 146.237 243.72C145.725 243.72 145.261 243.864 144.845 244.152C144.429 244.429 144.093 244.803 143.837 245.272C143.592 245.741 143.469 246.269 143.469 246.856ZM159.415 251H158.007V246.328C158.007 245.443 157.869 244.797 157.591 244.392C157.325 243.976 156.914 243.768 156.359 243.768C155.975 243.768 155.591 243.864 155.207 244.056C154.834 244.248 154.498 244.509 154.199 244.84C153.911 245.16 153.703 245.533 153.575 245.96V251H152.167V242.648H153.447V244.44C153.778 243.853 154.253 243.384 154.871 243.032C155.501 242.68 156.183 242.504 156.919 242.504C157.57 242.504 158.071 242.659 158.423 242.968C158.786 243.267 159.042 243.683 159.191 244.216C159.341 244.739 159.415 245.336 159.415 246.008V251ZM160.589 242.984L160.909 241.144H160.429V239.32H161.757V241.144L161.277 242.984H160.589ZM167.409 250.584C167.238 250.659 166.966 250.765 166.593 250.904C166.23 251.043 165.825 251.112 165.377 251.112C164.865 251.112 164.422 250.973 164.049 250.696C163.676 250.408 163.489 249.965 163.489 249.368V243.752H162.353V242.648H163.489V239.864H164.897V242.648H166.769V243.752H164.897V248.936C164.918 249.235 165.02 249.459 165.201 249.608C165.382 249.747 165.596 249.816 165.841 249.816C166.118 249.816 166.374 249.768 166.609 249.672C166.844 249.576 166.998 249.507 167.073 249.464L167.409 250.584ZM175.625 251.16C174.932 251.16 174.281 251.048 173.673 250.824C173.065 250.589 172.542 250.243 172.105 249.784L172.649 248.792C173.129 249.24 173.609 249.56 174.089 249.752C174.569 249.944 175.06 250.04 175.561 250.04C176.137 250.04 176.606 249.933 176.969 249.72C177.332 249.496 177.513 249.171 177.513 248.744C177.513 248.435 177.417 248.205 177.225 248.056C177.044 247.907 176.782 247.784 176.441 247.688C176.1 247.581 175.694 247.464 175.225 247.336C174.361 247.091 173.7 246.803 173.241 246.472C172.793 246.131 172.569 245.635 172.569 244.984C172.569 244.195 172.868 243.587 173.465 243.16C174.073 242.723 174.846 242.504 175.785 242.504C177.044 242.504 178.036 242.883 178.761 243.64L178.121 244.616C177.47 243.944 176.665 243.608 175.705 243.608C175.417 243.608 175.134 243.645 174.857 243.72C174.58 243.784 174.35 243.907 174.169 244.088C173.988 244.259 173.897 244.504 173.897 244.824C173.897 245.219 174.057 245.501 174.377 245.672C174.697 245.843 175.166 246.019 175.785 246.2C176.414 246.381 176.958 246.563 177.417 246.744C177.886 246.925 178.249 247.16 178.505 247.448C178.761 247.736 178.889 248.136 178.889 248.648C178.889 249.437 178.59 250.056 177.993 250.504C177.396 250.941 176.606 251.16 175.625 251.16ZM184.27 251.16C183.438 251.16 182.702 250.963 182.062 250.568C181.422 250.173 180.92 249.645 180.558 248.984C180.195 248.323 180.014 247.603 180.014 246.824C180.014 246.035 180.195 245.315 180.558 244.664C180.92 244.013 181.422 243.491 182.062 243.096C182.712 242.701 183.454 242.504 184.286 242.504C185.128 242.504 185.859 242.707 186.478 243.112C187.107 243.507 187.592 244.029 187.934 244.68C188.286 245.32 188.462 246.013 188.462 246.76C188.462 246.995 188.451 247.176 188.43 247.304H181.502C181.544 247.848 181.694 248.333 181.95 248.76C182.216 249.176 182.558 249.507 182.974 249.752C183.39 249.987 183.838 250.104 184.318 250.104C184.83 250.104 185.31 249.976 185.758 249.72C186.216 249.464 186.531 249.128 186.702 248.712L187.918 249.048C187.651 249.667 187.187 250.173 186.526 250.568C185.864 250.963 185.112 251.16 184.27 251.16ZM181.454 246.328H187.15C187.107 245.784 186.952 245.304 186.686 244.888C186.419 244.472 186.078 244.147 185.662 243.912C185.246 243.677 184.787 243.56 184.286 243.56C183.795 243.56 183.342 243.677 182.926 243.912C182.51 244.147 182.168 244.472 181.902 244.888C181.646 245.304 181.496 245.784 181.454 246.328ZM197.275 251H195.867V246.328C195.867 245.443 195.728 244.797 195.451 244.392C195.184 243.976 194.773 243.768 194.219 243.768C193.835 243.768 193.451 243.864 193.067 244.056C192.693 244.248 192.357 244.509 192.059 244.84C191.771 245.16 191.563 245.533 191.435 245.96V251H190.027V242.648H191.307V244.44C191.637 243.853 192.112 243.384 192.731 243.032C193.36 242.68 194.043 242.504 194.779 242.504C195.429 242.504 195.931 242.659 196.283 242.968C196.645 243.267 196.901 243.683 197.051 244.216C197.2 244.739 197.275 245.336 197.275 246.008V251ZM198.92 246.84C198.92 246.051 199.08 245.331 199.4 244.68C199.731 244.019 200.179 243.491 200.744 243.096C201.32 242.701 201.976 242.504 202.712 242.504C203.384 242.504 203.987 242.68 204.52 243.032C205.053 243.384 205.469 243.811 205.768 244.312V239.32H207.176V249.4C207.176 249.731 207.325 249.901 207.624 249.912V251C207.357 251.043 207.149 251.064 207 251.064C206.723 251.064 206.477 250.968 206.264 250.776C206.061 250.584 205.96 250.371 205.96 250.136V249.432C205.629 249.965 205.187 250.387 204.632 250.696C204.077 251.005 203.501 251.16 202.904 251.16C202.136 251.16 201.448 250.963 200.84 250.568C200.243 250.163 199.773 249.635 199.432 248.984C199.091 248.323 198.92 247.608 198.92 246.84ZM205.768 248.072V245.672C205.64 245.309 205.432 244.984 205.144 244.696C204.856 244.397 204.531 244.163 204.168 243.992C203.816 243.811 203.464 243.72 203.112 243.72C202.568 243.72 202.088 243.869 201.672 244.168C201.267 244.467 200.947 244.856 200.712 245.336C200.488 245.816 200.376 246.323 200.376 246.856C200.376 247.411 200.499 247.923 200.744 248.392C201 248.861 201.347 249.24 201.784 249.528C202.221 249.805 202.707 249.944 203.24 249.944C203.581 249.944 203.933 249.864 204.296 249.704C204.659 249.533 204.979 249.304 205.256 249.016C205.533 248.728 205.704 248.413 205.768 248.072Z" fill="#FF2E63"/>
<defs>
<filter id="filter0_d" x="0" y="0" width="340" height="355" filterUnits="userSpaceOnUse" color-interpolation-filters="sRGB">
<feFlood flood-opacity="0" result="BackgroundImageFix"/>
<feColorMatrix in="SourceAlpha" type="matrix" values="0 0 0 0 0 0 0 0 0 0 0 0 0 0 0 0 0 0 127 0" result="hardAlpha"/>
<feOffset dy="20"/>
<feGaussianBlur stdDeviation="20"/>
<feComposite in2="hardAlpha" operator="out"/>
<feColorMatrix type="matrix" values="0 0 0 0 1 0 0 0 0 0.180392 0 0 0 0 0.388235 0 0 0 0.15 0"/>
<feBlend mode="normal" in2="BackgroundImageFix" result="effect1_dropShadow"/>
<feBlend mode="normal" in="SourceGraphic" in2="effect1_dropShadow" result="shape"/>
</filter>
</defs>
</svg>
