<svg width="41" height="48" viewBox="0 0 41 48" fill="none" xmlns="http://www.w3.org/2000/svg">
<path d="M25.3116 0.111328C26.2908 0.112592 27.2294 0.502105 27.9217 1.19445C28.6141 1.88678 29.0036 2.82543 29.0049 3.80455V12.8465C35.2518 13.1881 40.2243 18.0602 40.2243 24.0002C40.2243 29.9402 35.253 34.8123 29.0049 35.1539V44.1959C29.0039 45.1751 28.6145 46.1139 27.9221 46.8063C27.2297 47.4988 26.2908 47.8882 25.3116 47.8891H4.36825C3.38903 47.8882 2.4502 47.4988 1.75779 46.8063C1.06538 46.1139 0.675971 45.1751 0.675022 44.1959V35.5481C0.675022 35.3622 0.748892 35.1838 0.880381 35.0523C1.01187 34.9208 1.19021 34.847 1.37616 34.847C1.56211 34.847 1.74045 34.9208 1.87194 35.0523C2.00343 35.1838 2.0773 35.3622 2.0773 35.5481V39.7549H27.6026V35.1539C26.4257 35.0914 25.2636 34.863 24.1506 34.4755L18.9154 37.3314C18.3588 37.6348 17.7054 37.0686 17.9204 36.4762L19.4827 32.181H11.474C11.2882 32.1803 11.1101 32.1065 10.9783 31.9755L5.368 26.3664C5.23716 26.2345 5.16337 26.0565 5.16255 25.8707V10.5364C5.16255 10.1494 5.47669 9.8353 5.86369 9.8353H23.8162C24.2032 9.8353 24.5173 10.1494 24.5173 10.5364V13.4055C25.4956 13.0973 26.53 12.905 27.6026 12.8465V7.49777H2.07611V32.2276C2.07611 32.3196 2.05797 32.4108 2.02273 32.4959C1.9875 32.5809 1.93585 32.6582 1.87075 32.7233C1.80564 32.7884 1.72835 32.8401 1.64328 32.8753C1.55821 32.9106 1.46704 32.9287 1.37497 32.9287C1.28289 32.9287 1.19172 32.9106 1.10665 32.8753C1.02159 32.8401 0.944294 32.7884 0.879187 32.7233C0.81408 32.6582 0.762433 32.5809 0.727198 32.4959C0.691962 32.4108 0.673828 32.3196 0.673828 32.2276V3.80455C0.675093 2.82523 1.06477 1.8864 1.75737 1.19402C2.44996 0.50165 3.38892 0.112276 4.36825 0.111328H25.3116ZM27.6026 41.1572H2.07611V44.1959C2.07674 44.8033 2.31831 45.3856 2.74781 45.8151C3.1773 46.2446 3.75965 46.4862 4.36705 46.4868H25.3104C25.9178 46.4862 26.5002 46.2446 26.9297 45.8151C27.3592 45.3856 27.6008 44.8033 27.6014 44.1959V41.1572H27.6026ZM16.3354 41.9993C16.7236 41.9993 17.0365 42.3122 17.0365 42.7004V44.9436C17.0365 45.0357 17.0184 45.1269 16.9832 45.2119C16.9479 45.297 16.8963 45.3743 16.8312 45.4394C16.7661 45.5045 16.6888 45.5561 16.6037 45.5914C16.5186 45.6266 16.4275 45.6447 16.3354 45.6447H13.3433C13.2512 45.6447 13.1601 45.6266 13.075 45.5914C12.9899 45.5561 12.9126 45.5045 12.8475 45.4394C12.7824 45.3743 12.7308 45.297 12.6955 45.2119C12.6603 45.1269 12.6422 45.0357 12.6422 44.9436V42.7004C12.6422 42.3122 12.9563 41.9993 13.3433 41.9993H16.3354ZM15.6342 43.4016H14.0456V44.2425H15.6342V43.4016ZM28.3037 14.2297C22.5035 14.2297 17.7854 18.6133 17.7854 24.0002C17.7854 26.6483 18.9082 29.128 20.9471 30.9829C21.1586 31.1741 21.2326 31.4727 21.1347 31.7414L19.8733 35.2113L23.7565 33.0935C23.8453 33.0449 23.9436 33.0161 24.0447 33.0091C24.1457 33.0021 24.247 33.017 24.3417 33.0529C25.608 33.5304 26.9505 33.7737 28.3037 33.7708C34.1039 33.7708 38.822 29.3872 38.822 24.0002C38.822 18.6133 34.1039 14.2297 28.3037 14.2297ZM28.3037 15.8183C28.6907 15.8183 29.0049 16.1336 29.0049 16.5206V18.0626H29.0526C29.8333 18.0639 30.5817 18.3747 31.1336 18.9268C31.6855 19.479 31.996 20.2274 31.9969 21.0081V21.7559C31.9969 21.9418 31.9231 22.1201 31.7916 22.2516C31.6601 22.3831 31.4818 22.457 31.2958 22.457C31.1098 22.457 30.9315 22.3831 30.8 22.2516C30.6685 22.1201 30.5947 21.9418 30.5947 21.7559V21.0081C30.5947 20.1577 29.9019 19.4661 29.0514 19.4661H27.9287C26.8728 19.4661 26.0128 20.3261 26.0128 21.382C26.0128 22.4391 26.8728 23.2991 27.9299 23.2991H28.6776C29.5576 23.3 30.4014 23.6501 31.0237 24.2723C31.646 24.8946 31.996 25.7384 31.9969 26.6184C31.9969 28.3384 30.6831 29.7562 29.0049 29.9211V31.4798C29.0049 31.6658 28.931 31.8441 28.7995 31.9756C28.668 32.1071 28.4897 32.181 28.3037 32.181C28.1178 32.181 27.9394 32.1071 27.8079 31.9756C27.6764 31.8441 27.6026 31.6658 27.6026 31.4798V29.9378H27.5548C26.7741 29.9365 26.0258 29.6258 25.4738 29.0736C24.9219 28.5215 24.6114 27.773 24.6105 26.9923C24.6105 26.8064 24.6844 26.628 24.8159 26.4965C24.9473 26.365 25.1257 26.2912 25.3116 26.2912C25.4976 26.2912 25.6759 26.365 25.8074 26.4965C25.9389 26.628 26.0128 26.8064 26.0128 26.9923C26.0128 27.8427 26.7056 28.5343 27.556 28.5343H28.6776C29.7347 28.5343 30.5947 27.6743 30.5947 26.6184C30.5947 25.5614 29.7347 24.7014 28.6776 24.7014H27.9299C27.0496 24.7007 26.2055 24.3508 25.583 23.7285C24.9604 23.1062 24.6102 22.2623 24.6093 21.382C24.6093 19.662 25.9256 18.2442 27.6026 18.0794V16.5206C27.6026 16.1336 27.9167 15.8195 28.3037 15.8195V15.8183ZM23.1139 11.2376H6.56483V25.1684H11.474C11.861 25.1684 12.1751 25.4825 12.1751 25.8707V30.7799H18.8246C17.2396 28.8425 16.3832 26.4882 16.3832 24.0002C16.3832 22.672 16.6316 21.3963 17.0879 20.2138H9.6035C9.41754 20.2138 9.2392 20.14 9.10772 20.0085C8.97623 19.877 8.90236 19.6986 8.90236 19.5127C8.90236 19.3267 8.97623 19.1484 9.10772 19.0169C9.2392 18.8854 9.41754 18.8116 9.6035 18.8116H17.7496C18.2262 17.9623 18.8162 17.1764 19.5007 16.474H17.0843C16.8983 16.474 16.72 16.4002 16.5885 16.2687C16.457 16.1372 16.3832 15.9588 16.3832 15.7729C16.3832 15.5869 16.457 15.4086 16.5885 15.2771C16.72 15.1456 16.8983 15.0717 17.0843 15.0717H20.8229C20.9137 15.0717 20.9997 15.0885 21.0785 15.1195C21.7116 14.6656 22.3924 14.2715 23.1139 13.943V11.2376ZM10.7729 26.5719H7.55741L10.7729 29.7873V26.5719ZM14.8399 22.5514C15.0259 22.5514 15.2042 22.6252 15.3357 22.7567C15.4672 22.8882 15.5411 23.0665 15.5411 23.2525C15.5411 23.4385 15.4672 23.6168 15.3357 23.7483C15.2042 23.8798 15.0259 23.9536 14.8399 23.9536H9.6035C9.41754 23.9536 9.2392 23.8798 9.10772 23.7483C8.97623 23.6168 8.90236 23.4385 8.90236 23.2525C8.90236 23.0665 8.97623 22.8882 9.10772 22.7567C9.2392 22.6252 9.41754 22.5514 9.6035 22.5514H14.8399ZM14.0922 15.0706C14.2783 15.0706 14.4568 15.1445 14.5884 15.2761C14.72 15.4077 14.794 15.5862 14.794 15.7723C14.794 15.9584 14.72 16.1369 14.5884 16.2685C14.4568 16.4001 14.2783 16.474 14.0922 16.474H9.6035C9.41738 16.474 9.23889 16.4001 9.10729 16.2685C8.97569 16.1369 8.90176 15.9584 8.90176 15.7723C8.90176 15.5862 8.97569 15.4077 9.10729 15.2761C9.23889 15.1445 9.41738 15.0706 9.6035 15.0706H14.0922ZM25.3116 1.51361H4.36825C3.76084 1.51424 3.1785 1.75581 2.749 2.18531C2.3195 2.61481 2.07793 3.19715 2.0773 3.80455V6.0955H27.6026V3.80455C27.6019 3.19715 27.3604 2.61481 26.9309 2.18531C26.5014 1.75581 25.919 1.51424 25.3116 1.51361ZM16.3354 3.10222C16.5215 3.10222 16.7 3.17615 16.8316 3.30775C16.9632 3.43935 17.0371 3.61784 17.0371 3.80395C17.0371 3.99006 16.9632 4.16856 16.8316 4.30016C16.7 4.43176 16.5215 4.50569 16.3354 4.50569H13.3433C13.1573 4.50569 12.979 4.43182 12.8475 4.30033C12.716 4.16884 12.6422 3.9905 12.6422 3.80455C12.6422 3.6186 12.716 3.44026 12.8475 3.30877C12.979 3.17728 13.1573 3.10341 13.3433 3.10341L16.3354 3.10222Z" fill="#FF2E63"/>
</svg>
