<svg width="554" height="582" viewBox="0 0 554 582" fill="none" xmlns="http://www.w3.org/2000/svg">
<path d="M1 15.459C1 7.17472 7.71573 0.458984 16 0.458984H452C460.284 0.458984 467 7.17471 467 15.459V532.374C467 540.658 460.284 547.374 452 547.374H16C7.71572 547.374 1 540.658 1 532.374V15.459Z" fill="#F6F8FC"/>
<rect x="285" y="290" width="5" height="5" rx="2.5" fill="#22211F" fill-opacity="0.6"/>
<rect x="285" y="362" width="5" height="5" rx="2.5" fill="#22211F" fill-opacity="0.6"/>
<rect x="285" y="326" width="5" height="5" rx="2.5" fill="#22211F" fill-opacity="0.6"/>
<rect x="285" y="398" width="5" height="5" rx="2.5" fill="#22211F" fill-opacity="0.6"/>
<rect x="285" y="308" width="5" height="5" rx="2.5" fill="#22211F" fill-opacity="0.6"/>
<rect x="285" y="380" width="5" height="5" rx="2.5" fill="#22211F" fill-opacity="0.6"/>
<rect x="285" y="344" width="5" height="5" rx="2.5" fill="#22211F" fill-opacity="0.6"/>
<rect x="285" y="416" width="5" height="5" rx="2.5" fill="#22211F" fill-opacity="0.6"/>
<rect x="357" y="290" width="5" height="5" rx="2.5" fill="#22211F" fill-opacity="0.6"/>
<rect x="357" y="362" width="5" height="5" rx="2.5" fill="#22211F" fill-opacity="0.6"/>
<rect x="357" y="326" width="5" height="5" rx="2.5" fill="#22211F" fill-opacity="0.6"/>
<rect x="357" y="398" width="5" height="5" rx="2.5" fill="#22211F" fill-opacity="0.6"/>
<rect x="357" y="308" width="5" height="5" rx="2.5" fill="#22211F" fill-opacity="0.6"/>
<rect x="357" y="380" width="5" height="5" rx="2.5" fill="#22211F" fill-opacity="0.6"/>
<rect x="357" y="344" width="5" height="5" rx="2.5" fill="#22211F" fill-opacity="0.6"/>
<rect x="357" y="416" width="5" height="5" rx="2.5" fill="#22211F" fill-opacity="0.6"/>
<rect x="303" y="290" width="5" height="5" rx="2.5" fill="#22211F" fill-opacity="0.6"/>
<rect x="303" y="362" width="5" height="5" rx="2.5" fill="#22211F" fill-opacity="0.6"/>
<rect x="303" y="326" width="5" height="5" rx="2.5" fill="#22211F" fill-opacity="0.6"/>
<rect x="303" y="398" width="5" height="5" rx="2.5" fill="#22211F" fill-opacity="0.6"/>
<rect x="303" y="308" width="5" height="5" rx="2.5" fill="#22211F" fill-opacity="0.6"/>
<rect x="303" y="380" width="5" height="5" rx="2.5" fill="#22211F" fill-opacity="0.6"/>
<rect x="303" y="344" width="5" height="5" rx="2.5" fill="#22211F" fill-opacity="0.6"/>
<rect x="303" y="416" width="5" height="5" rx="2.5" fill="#22211F" fill-opacity="0.6"/>
<rect x="375" y="290" width="5" height="5" rx="2.5" fill="#22211F" fill-opacity="0.6"/>
<rect x="375" y="362" width="5" height="5" rx="2.5" fill="#22211F" fill-opacity="0.6"/>
<rect x="375" y="326" width="5" height="5" rx="2.5" fill="#22211F" fill-opacity="0.6"/>
<rect x="375" y="398" width="5" height="5" rx="2.5" fill="#22211F" fill-opacity="0.6"/>
<rect x="375" y="308" width="5" height="5" rx="2.5" fill="#22211F" fill-opacity="0.6"/>
<rect x="375" y="380" width="5" height="5" rx="2.5" fill="#22211F" fill-opacity="0.6"/>
<rect x="375" y="344" width="5" height="5" rx="2.5" fill="#22211F" fill-opacity="0.6"/>
<rect x="375" y="416" width="5" height="5" rx="2.5" fill="#22211F" fill-opacity="0.6"/>
<rect x="321" y="290" width="5" height="5" rx="2.5" fill="#22211F" fill-opacity="0.6"/>
<rect x="321" y="362" width="5" height="5" rx="2.5" fill="#22211F" fill-opacity="0.6"/>
<rect x="321" y="326" width="5" height="5" rx="2.5" fill="#22211F" fill-opacity="0.6"/>
<rect x="321" y="398" width="5" height="5" rx="2.5" fill="#22211F" fill-opacity="0.6"/>
<rect x="321" y="308" width="5" height="5" rx="2.5" fill="#22211F" fill-opacity="0.6"/>
<rect x="321" y="380" width="5" height="5" rx="2.5" fill="#22211F" fill-opacity="0.6"/>
<rect x="321" y="344" width="5" height="5" rx="2.5" fill="#22211F" fill-opacity="0.6"/>
<rect x="321" y="416" width="5" height="5" rx="2.5" fill="#22211F" fill-opacity="0.6"/>
<rect x="393" y="290" width="5" height="5" rx="2.5" fill="#22211F" fill-opacity="0.6"/>
<rect x="393" y="362" width="5" height="5" rx="2.5" fill="#22211F" fill-opacity="0.6"/>
<rect x="393" y="326" width="5" height="5" rx="2.5" fill="#22211F" fill-opacity="0.6"/>
<rect x="393" y="398" width="5" height="5" rx="2.5" fill="#22211F" fill-opacity="0.6"/>
<rect x="393" y="308" width="5" height="5" rx="2.5" fill="#22211F" fill-opacity="0.6"/>
<rect x="393" y="380" width="5" height="5" rx="2.5" fill="#22211F" fill-opacity="0.6"/>
<rect x="393" y="344" width="5" height="5" rx="2.5" fill="#22211F" fill-opacity="0.6"/>
<rect x="393" y="416" width="5" height="5" rx="2.5" fill="#22211F" fill-opacity="0.6"/>
<rect x="339" y="290" width="5" height="5" rx="2.5" fill="#22211F" fill-opacity="0.6"/>
<rect x="339" y="362" width="5" height="5" rx="2.5" fill="#22211F" fill-opacity="0.6"/>
<rect x="339" y="326" width="5" height="5" rx="2.5" fill="#22211F" fill-opacity="0.6"/>
<rect x="339" y="398" width="5" height="5" rx="2.5" fill="#22211F" fill-opacity="0.6"/>
<rect x="339" y="308" width="5" height="5" rx="2.5" fill="#22211F" fill-opacity="0.6"/>
<rect x="339" y="380" width="5" height="5" rx="2.5" fill="#22211F" fill-opacity="0.6"/>
<rect x="339" y="344" width="5" height="5" rx="2.5" fill="#22211F" fill-opacity="0.6"/>
<rect x="339" y="416" width="5" height="5" rx="2.5" fill="#22211F" fill-opacity="0.6"/>
<rect x="411" y="290" width="5" height="5" rx="2.5" fill="#22211F" fill-opacity="0.6"/>
<rect x="411" y="362" width="5" height="5" rx="2.5" fill="#22211F" fill-opacity="0.6"/>
<rect x="411" y="326" width="5" height="5" rx="2.5" fill="#22211F" fill-opacity="0.6"/>
<rect x="411" y="398" width="5" height="5" rx="2.5" fill="#22211F" fill-opacity="0.6"/>
<rect x="411" y="308" width="5" height="5" rx="2.5" fill="#22211F" fill-opacity="0.6"/>
<rect x="411" y="380" width="5" height="5" rx="2.5" fill="#22211F" fill-opacity="0.6"/>
<rect x="411" y="344" width="5" height="5" rx="2.5" fill="#22211F" fill-opacity="0.6"/>
<rect x="411" y="416" width="5" height="5" rx="2.5" fill="#22211F" fill-opacity="0.6"/>
<rect x="74" y="125" width="5" height="5" rx="2.5" fill="#22211F" fill-opacity="0.6"/>
<rect x="74" y="161" width="5" height="5" rx="2.5" fill="#22211F" fill-opacity="0.6"/>
<rect x="74" y="143" width="5" height="5" rx="2.5" fill="#22211F" fill-opacity="0.6"/>
<rect x="74" y="107" width="5" height="5" rx="2.5" fill="#22211F" fill-opacity="0.6"/>
<rect x="74" y="179" width="5" height="5" rx="2.5" fill="#22211F" fill-opacity="0.6"/>
<rect x="146" y="125" width="5" height="5" rx="2.5" fill="#22211F" fill-opacity="0.6"/>
<rect x="146" y="161" width="5" height="5" rx="2.5" fill="#22211F" fill-opacity="0.6"/>
<rect x="146" y="143" width="5" height="5" rx="2.5" fill="#22211F" fill-opacity="0.6"/>
<rect x="146" y="107" width="5" height="5" rx="2.5" fill="#22211F" fill-opacity="0.6"/>
<rect x="146" y="179" width="5" height="5" rx="2.5" fill="#22211F" fill-opacity="0.6"/>
<rect x="92" y="125" width="5" height="5" rx="2.5" fill="#22211F" fill-opacity="0.6"/>
<rect x="92" y="161" width="5" height="5" rx="2.5" fill="#22211F" fill-opacity="0.6"/>
<rect x="92" y="143" width="5" height="5" rx="2.5" fill="#22211F" fill-opacity="0.6"/>
<rect x="92" y="107" width="5" height="5" rx="2.5" fill="#22211F" fill-opacity="0.6"/>
<rect x="92" y="179" width="5" height="5" rx="2.5" fill="#22211F" fill-opacity="0.6"/>
<rect x="164" y="125" width="5" height="5" rx="2.5" fill="#22211F" fill-opacity="0.6"/>
<rect x="164" y="161" width="5" height="5" rx="2.5" fill="#22211F" fill-opacity="0.6"/>
<rect x="164" y="143" width="5" height="5" rx="2.5" fill="#22211F" fill-opacity="0.6"/>
<rect x="164" y="107" width="5" height="5" rx="2.5" fill="#22211F" fill-opacity="0.6"/>
<rect x="164" y="179" width="5" height="5" rx="2.5" fill="#22211F" fill-opacity="0.6"/>
<rect x="110" y="125" width="5" height="5" rx="2.5" fill="#22211F" fill-opacity="0.6"/>
<rect x="110" y="161" width="5" height="5" rx="2.5" fill="#22211F" fill-opacity="0.6"/>
<rect x="110" y="143" width="5" height="5" rx="2.5" fill="#22211F" fill-opacity="0.6"/>
<rect x="110" y="107" width="5" height="5" rx="2.5" fill="#22211F" fill-opacity="0.6"/>
<rect x="110" y="179" width="5" height="5" rx="2.5" fill="#22211F" fill-opacity="0.6"/>
<rect x="182" y="125" width="5" height="5" rx="2.5" fill="#22211F" fill-opacity="0.6"/>
<rect x="182" y="161" width="5" height="5" rx="2.5" fill="#22211F" fill-opacity="0.6"/>
<rect x="182" y="143" width="5" height="5" rx="2.5" fill="#22211F" fill-opacity="0.6"/>
<rect x="182" y="107" width="5" height="5" rx="2.5" fill="#22211F" fill-opacity="0.6"/>
<rect x="182" y="179" width="5" height="5" rx="2.5" fill="#22211F" fill-opacity="0.6"/>
<rect x="128" y="125" width="5" height="5" rx="2.5" fill="#22211F" fill-opacity="0.6"/>
<rect x="128" y="161" width="5" height="5" rx="2.5" fill="#22211F" fill-opacity="0.6"/>
<rect x="128" y="143" width="5" height="5" rx="2.5" fill="#22211F" fill-opacity="0.6"/>
<rect x="128" y="107" width="5" height="5" rx="2.5" fill="#22211F" fill-opacity="0.6"/>
<rect x="128" y="179" width="5" height="5" rx="2.5" fill="#22211F" fill-opacity="0.6"/>
<rect x="200" y="125" width="5" height="5" rx="2.5" fill="#22211F" fill-opacity="0.6"/>
<rect x="200" y="161" width="5" height="5" rx="2.5" fill="#22211F" fill-opacity="0.6"/>
<rect x="200" y="143" width="5" height="5" rx="2.5" fill="#22211F" fill-opacity="0.6"/>
<rect x="200" y="107" width="5" height="5" rx="2.5" fill="#22211F" fill-opacity="0.6"/>
<rect x="200" y="179" width="5" height="5" rx="2.5" fill="#22211F" fill-opacity="0.6"/>
<rect x="80" y="133" width="271" height="271" rx="135.5" fill="#1DC7AC"/>
<path d="M202 135C157.333 159.333 83.4 224.7 145 291.5C206.6 358.3 208.667 393.333 202 402.5" stroke="white"/>
<path d="M240 136C218.167 146.333 172.2 176.4 163 214C151.5 261 272.5 349.5 259.5 390" stroke="white"/>
<path d="M277.5 152C225.5 169 195 183 208.5 232C222 281 301 313.5 313.5 356" stroke="white"/>
<path d="M317.5 183.5C285 208 257 205 274 245C287.6 277 325 297.667 342 304" stroke="white"/>
<path d="M153.5 464C167.9 508.8 218.167 537.667 241.5 546.5M250 489.5C285.6 530.3 328.833 544.5 346 546.5M346 497.5C411.2 535.1 449.5 542.833 460.5 542M346 445C411.2 482.6 454.5 475.333 465.5 474.5" stroke="#B7EDFB"/>
<path d="M313 83.5C298.6 38.7 248.333 9.83333 225 1M216.5 58C180.9 17.2 137.667 3 120.5 1M120.5 50C55.3 12.4 17 4.66667 6 5.5M120.5 102.5C55.3 64.9 12 72.1667 1 73" stroke="#B7EDFB"/>
<g filter="url(#filter0_d)">
<path d="M139 204C139 198.477 143.477 194 149 194H493.293C498.815 194 503.293 198.477 503.293 204V507C503.293 512.523 498.815 517 493.293 517H149C143.477 517 139 512.523 139 507V204Z" fill="white"/>
</g>
<path d="M243.339 263.776C243.929 263.886 244.414 264.181 244.794 264.661C245.174 265.141 245.364 265.691 245.364 266.311C245.364 266.871 245.224 267.366 244.944 267.796C244.674 268.216 244.279 268.546 243.759 268.786C243.239 269.026 242.624 269.146 241.914 269.146H237.399V258.676H241.719C242.429 258.676 243.039 258.791 243.549 259.021C244.069 259.251 244.459 259.571 244.719 259.981C244.989 260.391 245.124 260.856 245.124 261.376C245.124 261.986 244.959 262.496 244.629 262.906C244.309 263.316 243.879 263.606 243.339 263.776ZM239.499 262.996H241.419C241.919 262.996 242.304 262.886 242.574 262.666C242.844 262.436 242.979 262.111 242.979 261.691C242.979 261.271 242.844 260.946 242.574 260.716C242.304 260.486 241.919 260.371 241.419 260.371H239.499V262.996ZM241.614 267.436C242.124 267.436 242.519 267.316 242.799 267.076C243.089 266.836 243.234 266.496 243.234 266.056C243.234 265.606 243.084 265.256 242.784 265.006C242.484 264.746 242.079 264.616 241.569 264.616H239.499V267.436H241.614ZM246.798 264.961C246.798 264.121 246.963 263.376 247.293 262.726C247.633 262.076 248.088 261.576 248.658 261.226C249.238 260.876 249.883 260.701 250.593 260.701C251.213 260.701 251.753 260.826 252.213 261.076C252.683 261.326 253.058 261.641 253.338 262.021V260.836H255.453V269.146H253.338V267.931C253.068 268.321 252.693 268.646 252.213 268.906C251.743 269.156 251.198 269.281 250.578 269.281C249.878 269.281 249.238 269.101 248.658 268.741C248.088 268.381 247.633 267.876 247.293 267.226C246.963 266.566 246.798 265.811 246.798 264.961ZM253.338 264.991C253.338 264.481 253.238 264.046 253.038 263.686C252.838 263.316 252.568 263.036 252.228 262.846C251.888 262.646 251.523 262.546 251.133 262.546C250.743 262.546 250.383 262.641 250.053 262.831C249.723 263.021 249.453 263.301 249.243 263.671C249.043 264.031 248.943 264.461 248.943 264.961C248.943 265.461 249.043 265.901 249.243 266.281C249.453 266.651 249.723 266.936 250.053 267.136C250.393 267.336 250.753 267.436 251.133 267.436C251.523 267.436 251.888 267.341 252.228 267.151C252.568 266.951 252.838 266.671 253.038 266.311C253.238 265.941 253.338 265.501 253.338 264.991ZM262.409 260.716C263.399 260.716 264.199 261.031 264.809 261.661C265.419 262.281 265.724 263.151 265.724 264.271V269.146H263.624V264.556C263.624 263.896 263.459 263.391 263.129 263.041C262.799 262.681 262.349 262.501 261.779 262.501C261.199 262.501 260.739 262.681 260.399 263.041C260.069 263.391 259.904 263.896 259.904 264.556V269.146H257.804V260.836H259.904V261.871C260.184 261.511 260.539 261.231 260.969 261.031C261.409 260.821 261.889 260.716 262.409 260.716ZM267.481 264.961C267.481 264.121 267.646 263.376 267.976 262.726C268.316 262.076 268.776 261.576 269.356 261.226C269.936 260.876 270.581 260.701 271.291 260.701C271.831 260.701 272.346 260.821 272.836 261.061C273.326 261.291 273.716 261.601 274.006 261.991V258.046H276.136V269.146H274.006V267.916C273.746 268.326 273.381 268.656 272.911 268.906C272.441 269.156 271.896 269.281 271.276 269.281C270.576 269.281 269.936 269.101 269.356 268.741C268.776 268.381 268.316 267.876 267.976 267.226C267.646 266.566 267.481 265.811 267.481 264.961ZM274.021 264.991C274.021 264.481 273.921 264.046 273.721 263.686C273.521 263.316 273.251 263.036 272.911 262.846C272.571 262.646 272.206 262.546 271.816 262.546C271.426 262.546 271.066 262.641 270.736 262.831C270.406 263.021 270.136 263.301 269.926 263.671C269.726 264.031 269.626 264.461 269.626 264.961C269.626 265.461 269.726 265.901 269.926 266.281C270.136 266.651 270.406 266.936 270.736 267.136C271.076 267.336 271.436 267.436 271.816 267.436C272.206 267.436 272.571 267.341 272.911 267.151C273.251 266.951 273.521 266.671 273.721 266.311C273.921 265.941 274.021 265.501 274.021 264.991ZM289.996 261.916C289.996 262.476 289.861 263.001 289.591 263.491C289.331 263.981 288.916 264.376 288.346 264.676C287.786 264.976 287.076 265.126 286.216 265.126H284.461V269.146H282.361V258.676H286.216C287.026 258.676 287.716 258.816 288.286 259.096C288.856 259.376 289.281 259.761 289.561 260.251C289.851 260.741 289.996 261.296 289.996 261.916ZM286.126 263.431C286.706 263.431 287.136 263.301 287.416 263.041C287.696 262.771 287.836 262.396 287.836 261.916C287.836 260.896 287.266 260.386 286.126 260.386H284.461V263.431H286.126ZM293.887 262.126C294.157 261.686 294.507 261.341 294.937 261.091C295.377 260.841 295.877 260.716 296.437 260.716V262.921H295.882C295.222 262.921 294.722 263.076 294.382 263.386C294.052 263.696 293.887 264.236 293.887 265.006V269.146H291.787V260.836H293.887V262.126ZM301.842 269.281C301.042 269.281 300.322 269.106 299.682 268.756C299.042 268.396 298.537 267.891 298.167 267.241C297.807 266.591 297.627 265.841 297.627 264.991C297.627 264.141 297.812 263.391 298.182 262.741C298.562 262.091 299.077 261.591 299.727 261.241C300.377 260.881 301.102 260.701 301.902 260.701C302.702 260.701 303.427 260.881 304.077 261.241C304.727 261.591 305.237 262.091 305.607 262.741C305.987 263.391 306.177 264.141 306.177 264.991C306.177 265.841 305.982 266.591 305.592 267.241C305.212 267.891 304.692 268.396 304.032 268.756C303.382 269.106 302.652 269.281 301.842 269.281ZM301.842 267.451C302.222 267.451 302.577 267.361 302.907 267.181C303.247 266.991 303.517 266.711 303.717 266.341C303.917 265.971 304.017 265.521 304.017 264.991C304.017 264.201 303.807 263.596 303.387 263.176C302.977 262.746 302.472 262.531 301.872 262.531C301.272 262.531 300.767 262.746 300.357 263.176C299.957 263.596 299.757 264.201 299.757 264.991C299.757 265.781 299.952 266.391 300.342 266.821C300.742 267.241 301.242 267.451 301.842 267.451ZM310.462 262.561V266.581C310.462 266.861 310.527 267.066 310.657 267.196C310.797 267.316 311.027 267.376 311.347 267.376H312.322V269.146H311.002C309.232 269.146 308.347 268.286 308.347 266.566V262.561H307.357V260.836H308.347V258.781H310.462V260.836H312.322V262.561H310.462ZM317.822 269.281C317.022 269.281 316.302 269.106 315.662 268.756C315.022 268.396 314.517 267.891 314.147 267.241C313.787 266.591 313.607 265.841 313.607 264.991C313.607 264.141 313.792 263.391 314.162 262.741C314.542 262.091 315.057 261.591 315.707 261.241C316.357 260.881 317.082 260.701 317.882 260.701C318.682 260.701 319.407 260.881 320.057 261.241C320.707 261.591 321.217 262.091 321.587 262.741C321.967 263.391 322.157 264.141 322.157 264.991C322.157 265.841 321.962 266.591 321.572 267.241C321.192 267.891 320.672 268.396 320.012 268.756C319.362 269.106 318.632 269.281 317.822 269.281ZM317.822 267.451C318.202 267.451 318.557 267.361 318.887 267.181C319.227 266.991 319.497 266.711 319.697 266.341C319.897 265.971 319.997 265.521 319.997 264.991C319.997 264.201 319.787 263.596 319.367 263.176C318.957 262.746 318.452 262.531 317.852 262.531C317.252 262.531 316.747 262.746 316.337 263.176C315.937 263.596 315.737 264.201 315.737 264.991C315.737 265.781 315.932 266.391 316.322 266.821C316.722 267.241 317.222 267.451 317.822 267.451ZM323.458 264.991C323.458 264.131 323.633 263.381 323.983 262.741C324.333 262.091 324.818 261.591 325.438 261.241C326.058 260.881 326.768 260.701 327.568 260.701C328.598 260.701 329.448 260.961 330.118 261.481C330.798 261.991 331.253 262.711 331.483 263.641H329.218C329.098 263.281 328.893 263.001 328.603 262.801C328.323 262.591 327.973 262.486 327.553 262.486C326.953 262.486 326.478 262.706 326.128 263.146C325.778 263.576 325.603 264.191 325.603 264.991C325.603 265.781 325.778 266.396 326.128 266.836C326.478 267.266 326.953 267.481 327.553 267.481C328.403 267.481 328.958 267.101 329.218 266.341H331.483C331.253 267.241 330.798 267.956 330.118 268.486C329.438 269.016 328.588 269.281 327.568 269.281C326.768 269.281 326.058 269.106 325.438 268.756C324.818 268.396 324.333 267.896 323.983 267.256C323.633 266.606 323.458 265.851 323.458 264.991ZM337.011 269.281C336.211 269.281 335.491 269.106 334.851 268.756C334.211 268.396 333.706 267.891 333.336 267.241C332.976 266.591 332.796 265.841 332.796 264.991C332.796 264.141 332.981 263.391 333.351 262.741C333.731 262.091 334.246 261.591 334.896 261.241C335.546 260.881 336.271 260.701 337.071 260.701C337.871 260.701 338.596 260.881 339.246 261.241C339.896 261.591 340.406 262.091 340.776 262.741C341.156 263.391 341.346 264.141 341.346 264.991C341.346 265.841 341.151 266.591 340.761 267.241C340.381 267.891 339.861 268.396 339.201 268.756C338.551 269.106 337.821 269.281 337.011 269.281ZM337.011 267.451C337.391 267.451 337.746 267.361 338.076 267.181C338.416 266.991 338.686 266.711 338.886 266.341C339.086 265.971 339.186 265.521 339.186 264.991C339.186 264.201 338.976 263.596 338.556 263.176C338.146 262.746 337.641 262.531 337.041 262.531C336.441 262.531 335.936 262.746 335.526 263.176C335.126 263.596 334.926 264.201 334.926 264.991C334.926 265.781 335.121 266.391 335.511 266.821C335.911 267.241 336.411 267.451 337.011 267.451ZM345.287 258.046V269.146H343.187V258.046H345.287Z" fill="black"/>
<path d="M245.789 322.899L241.949 333.369H239.399L235.559 322.899H237.809L240.689 331.224L243.554 322.899H245.789ZM255.073 329.034C255.073 329.334 255.053 329.604 255.013 329.844H248.938C248.988 330.444 249.198 330.914 249.568 331.254C249.938 331.594 250.393 331.764 250.933 331.764C251.713 331.764 252.268 331.429 252.598 330.759H254.863C254.623 331.559 254.163 332.219 253.483 332.739C252.803 333.249 251.968 333.504 250.978 333.504C250.178 333.504 249.458 333.329 248.818 332.979C248.188 332.619 247.693 332.114 247.333 331.464C246.983 330.814 246.808 330.064 246.808 329.214C246.808 328.354 246.983 327.599 247.333 326.949C247.683 326.299 248.173 325.799 248.803 325.449C249.433 325.099 250.158 324.924 250.978 324.924C251.768 324.924 252.473 325.094 253.093 325.434C253.723 325.774 254.208 326.259 254.548 326.889C254.898 327.509 255.073 328.224 255.073 329.034ZM252.898 328.434C252.888 327.894 252.693 327.464 252.313 327.144C251.933 326.814 251.468 326.649 250.918 326.649C250.398 326.649 249.958 326.809 249.598 327.129C249.248 327.439 249.033 327.874 248.953 328.434H252.898ZM256.396 328.119C256.396 327.089 256.626 326.169 257.086 325.359C257.556 324.539 258.191 323.904 258.991 323.454C259.801 322.994 260.706 322.764 261.706 322.764C262.876 322.764 263.901 323.064 264.781 323.664C265.661 324.264 266.276 325.094 266.626 326.154H264.211C263.971 325.654 263.631 325.279 263.191 325.029C262.761 324.779 262.261 324.654 261.691 324.654C261.081 324.654 260.536 324.799 260.056 325.089C259.586 325.369 259.216 325.769 258.946 326.289C258.686 326.809 258.556 327.419 258.556 328.119C258.556 328.809 258.686 329.419 258.946 329.949C259.216 330.469 259.586 330.874 260.056 331.164C260.536 331.444 261.081 331.584 261.691 331.584C262.261 331.584 262.761 331.459 263.191 331.209C263.631 330.949 263.971 330.569 264.211 330.069H266.626C266.276 331.139 265.661 331.974 264.781 332.574C263.911 333.164 262.886 333.459 261.706 333.459C260.706 333.459 259.801 333.234 258.991 332.784C258.191 332.324 257.556 331.689 257.086 330.879C256.626 330.069 256.396 329.149 256.396 328.119ZM273.4 324.939C274.03 324.939 274.59 325.079 275.08 325.359C275.57 325.629 275.95 326.034 276.22 326.574C276.5 327.104 276.64 327.744 276.64 328.494V333.369H274.54V328.779C274.54 328.119 274.375 327.614 274.045 327.264C273.715 326.904 273.265 326.724 272.695 326.724C272.115 326.724 271.655 326.904 271.315 327.264C270.985 327.614 270.82 328.119 270.82 328.779V333.369H268.72V322.269H270.82V326.094C271.09 325.734 271.45 325.454 271.9 325.254C272.35 325.044 272.85 324.939 273.4 324.939ZM278.397 329.184C278.397 328.344 278.562 327.599 278.892 326.949C279.232 326.299 279.687 325.799 280.257 325.449C280.837 325.099 281.482 324.924 282.192 324.924C282.812 324.924 283.352 325.049 283.812 325.299C284.282 325.549 284.657 325.864 284.937 326.244V325.059H287.052V333.369H284.937V332.154C284.667 332.544 284.292 332.869 283.812 333.129C283.342 333.379 282.797 333.504 282.177 333.504C281.477 333.504 280.837 333.324 280.257 332.964C279.687 332.604 279.232 332.099 278.892 331.449C278.562 330.789 278.397 330.034 278.397 329.184ZM284.937 329.214C284.937 328.704 284.837 328.269 284.637 327.909C284.437 327.539 284.167 327.259 283.827 327.069C283.487 326.869 283.122 326.769 282.732 326.769C282.342 326.769 281.982 326.864 281.652 327.054C281.322 327.244 281.052 327.524 280.842 327.894C280.642 328.254 280.542 328.684 280.542 329.184C280.542 329.684 280.642 330.124 280.842 330.504C281.052 330.874 281.322 331.159 281.652 331.359C281.992 331.559 282.352 331.659 282.732 331.659C283.122 331.659 283.487 331.564 283.827 331.374C284.167 331.174 284.437 330.894 284.637 330.534C284.837 330.164 284.937 329.724 284.937 329.214ZM290.468 324.069C290.098 324.069 289.788 323.954 289.538 323.724C289.298 323.484 289.178 323.189 289.178 322.839C289.178 322.489 289.298 322.199 289.538 321.969C289.788 321.729 290.098 321.609 290.468 321.609C290.838 321.609 291.143 321.729 291.383 321.969C291.633 322.199 291.758 322.489 291.758 322.839C291.758 323.189 291.633 323.484 291.383 323.724C291.143 323.954 290.838 324.069 290.468 324.069ZM291.503 325.059V333.369H289.403V325.059H291.503ZM298.483 324.939C299.473 324.939 300.273 325.254 300.883 325.884C301.493 326.504 301.798 327.374 301.798 328.494V333.369H299.698V328.779C299.698 328.119 299.533 327.614 299.203 327.264C298.873 326.904 298.423 326.724 297.853 326.724C297.273 326.724 296.813 326.904 296.473 327.264C296.143 327.614 295.978 328.119 295.978 328.779V333.369H293.878V325.059H295.978V326.094C296.258 325.734 296.613 325.454 297.043 325.254C297.483 325.044 297.963 324.939 298.483 324.939Z" fill="black"/>
<path d="M242.804 395.597H238.634L237.944 397.592H235.739L239.504 387.107H241.949L245.714 397.592H243.494L242.804 395.597ZM242.234 393.917L240.719 389.537L239.204 393.917H242.234ZM246.882 393.407C246.882 392.567 247.047 391.822 247.377 391.172C247.717 390.522 248.172 390.022 248.742 389.672C249.322 389.322 249.967 389.147 250.677 389.147C251.297 389.147 251.837 389.272 252.297 389.522C252.767 389.772 253.142 390.087 253.422 390.467V389.282H255.537V397.592H253.422V396.377C253.152 396.767 252.777 397.092 252.297 397.352C251.827 397.602 251.282 397.727 250.662 397.727C249.962 397.727 249.322 397.547 248.742 397.187C248.172 396.827 247.717 396.322 247.377 395.672C247.047 395.012 246.882 394.257 246.882 393.407ZM253.422 393.437C253.422 392.927 253.322 392.492 253.122 392.132C252.922 391.762 252.652 391.482 252.312 391.292C251.972 391.092 251.607 390.992 251.217 390.992C250.827 390.992 250.467 391.087 250.137 391.277C249.807 391.467 249.537 391.747 249.327 392.117C249.127 392.477 249.027 392.907 249.027 393.407C249.027 393.907 249.127 394.347 249.327 394.727C249.537 395.097 249.807 395.382 250.137 395.582C250.477 395.782 250.837 395.882 251.217 395.882C251.607 395.882 251.972 395.787 252.312 395.597C252.652 395.397 252.922 395.117 253.122 394.757C253.322 394.387 253.422 393.947 253.422 393.437ZM261.353 395.657L263.453 389.282H265.688L262.613 397.592H260.063L257.003 389.282H259.253L261.353 395.657ZM274.892 393.257C274.892 393.557 274.872 393.827 274.832 394.067H268.757C268.807 394.667 269.017 395.137 269.387 395.477C269.757 395.817 270.212 395.987 270.752 395.987C271.532 395.987 272.087 395.652 272.417 394.982H274.682C274.442 395.782 273.982 396.442 273.302 396.962C272.622 397.472 271.787 397.727 270.797 397.727C269.997 397.727 269.277 397.552 268.637 397.202C268.007 396.842 267.512 396.337 267.152 395.687C266.802 395.037 266.627 394.287 266.627 393.437C266.627 392.577 266.802 391.822 267.152 391.172C267.502 390.522 267.992 390.022 268.622 389.672C269.252 389.322 269.977 389.147 270.797 389.147C271.587 389.147 272.292 389.317 272.912 389.657C273.542 389.997 274.027 390.482 274.367 391.112C274.717 391.732 274.892 392.447 274.892 393.257ZM272.717 392.657C272.707 392.117 272.512 391.687 272.132 391.367C271.752 391.037 271.287 390.872 270.737 390.872C270.217 390.872 269.777 391.032 269.417 391.352C269.067 391.662 268.852 392.097 268.772 392.657H272.717Z" fill="black"/>
<path d="M250.379 451.344L247.454 461.814H244.979L243.014 454.359L240.959 461.814L238.499 461.829L235.679 451.344H237.929L239.774 459.474L241.904 451.344H244.244L246.254 459.429L248.114 451.344H250.379ZM251.511 457.629C251.511 456.789 251.676 456.044 252.006 455.394C252.346 454.744 252.801 454.244 253.371 453.894C253.951 453.544 254.596 453.369 255.306 453.369C255.926 453.369 256.466 453.494 256.926 453.744C257.396 453.994 257.771 454.309 258.051 454.689V453.504H260.166V461.814H258.051V460.599C257.781 460.989 257.406 461.314 256.926 461.574C256.456 461.824 255.911 461.949 255.291 461.949C254.591 461.949 253.951 461.769 253.371 461.409C252.801 461.049 252.346 460.544 252.006 459.894C251.676 459.234 251.511 458.479 251.511 457.629ZM258.051 457.659C258.051 457.149 257.951 456.714 257.751 456.354C257.551 455.984 257.281 455.704 256.941 455.514C256.601 455.314 256.236 455.214 255.846 455.214C255.456 455.214 255.096 455.309 254.766 455.499C254.436 455.689 254.166 455.969 253.956 456.339C253.756 456.699 253.656 457.129 253.656 457.629C253.656 458.129 253.756 458.569 253.956 458.949C254.166 459.319 254.436 459.604 254.766 459.804C255.106 460.004 255.466 460.104 255.846 460.104C256.236 460.104 256.601 460.009 256.941 459.819C257.281 459.619 257.551 459.339 257.751 458.979C257.951 458.609 258.051 458.169 258.051 457.659ZM265.982 459.879L268.082 453.504H270.317L267.242 461.814H264.692L261.632 453.504H263.882L265.982 459.879ZM279.521 457.479C279.521 457.779 279.501 458.049 279.461 458.289H273.386C273.436 458.889 273.646 459.359 274.016 459.699C274.386 460.039 274.841 460.209 275.381 460.209C276.161 460.209 276.716 459.874 277.046 459.204H279.311C279.071 460.004 278.611 460.664 277.931 461.184C277.251 461.694 276.416 461.949 275.426 461.949C274.626 461.949 273.906 461.774 273.266 461.424C272.636 461.064 272.141 460.559 271.781 459.909C271.431 459.259 271.256 458.509 271.256 457.659C271.256 456.799 271.431 456.044 271.781 455.394C272.131 454.744 272.621 454.244 273.251 453.894C273.881 453.544 274.606 453.369 275.426 453.369C276.216 453.369 276.921 453.539 277.541 453.879C278.171 454.219 278.656 454.704 278.996 455.334C279.346 455.954 279.521 456.669 279.521 457.479ZM277.346 456.879C277.336 456.339 277.141 455.909 276.761 455.589C276.381 455.259 275.916 455.094 275.366 455.094C274.846 455.094 274.406 455.254 274.046 455.574C273.696 455.884 273.481 456.319 273.401 456.879H277.346ZM284.534 461.949C283.854 461.949 283.244 461.829 282.704 461.589C282.164 461.339 281.734 461.004 281.414 460.584C281.104 460.164 280.934 459.699 280.904 459.189H283.019C283.059 459.509 283.214 459.774 283.484 459.984C283.764 460.194 284.109 460.299 284.519 460.299C284.919 460.299 285.229 460.219 285.449 460.059C285.679 459.899 285.794 459.694 285.794 459.444C285.794 459.174 285.654 458.974 285.374 458.844C285.104 458.704 284.669 458.554 284.069 458.394C283.449 458.244 282.939 458.089 282.539 457.929C282.149 457.769 281.809 457.524 281.519 457.194C281.239 456.864 281.099 456.419 281.099 455.859C281.099 455.399 281.229 454.979 281.489 454.599C281.759 454.219 282.139 453.919 282.629 453.699C283.129 453.479 283.714 453.369 284.384 453.369C285.374 453.369 286.164 453.619 286.754 454.119C287.344 454.609 287.669 455.274 287.729 456.114H285.719C285.689 455.784 285.549 455.524 285.299 455.334C285.059 455.134 284.734 455.034 284.324 455.034C283.944 455.034 283.649 455.104 283.439 455.244C283.239 455.384 283.139 455.579 283.139 455.829C283.139 456.109 283.279 456.324 283.559 456.474C283.839 456.614 284.274 456.759 284.864 456.909C285.464 457.059 285.959 457.214 286.349 457.374C286.739 457.534 287.074 457.784 287.354 458.124C287.644 458.454 287.794 458.894 287.804 459.444C287.804 459.924 287.669 460.354 287.399 460.734C287.139 461.114 286.759 461.414 286.259 461.634C285.769 461.844 285.194 461.949 284.534 461.949Z" fill="black"/>
<path d="M248.691 474.829L245.863 484.587H244.435L242.167 476.733L239.815 484.587L238.401 484.601L235.671 474.829H237.029L239.157 483.103L241.509 474.829H242.937L245.177 483.075L247.319 474.829H248.691ZM256.134 482.417H251.878L251.094 484.587H249.75L253.278 474.885H254.748L258.262 484.587H256.918L256.134 482.417ZM255.77 481.381L254.006 476.453L252.242 481.381H255.77ZM268.143 474.829L264.461 484.587H262.991L259.309 474.829H260.667L263.733 483.243L266.799 474.829H268.143ZM271.094 475.865V479.127H274.65V480.177H271.094V483.537H275.07V484.587H269.82V474.815H275.07V475.865H271.094ZM280.372 484.685C279.728 484.685 279.149 484.573 278.636 484.349C278.132 484.116 277.735 483.798 277.446 483.397C277.157 482.986 277.007 482.515 276.998 481.983H278.356C278.403 482.44 278.589 482.828 278.916 483.145C279.252 483.453 279.737 483.607 280.372 483.607C280.979 483.607 281.455 483.458 281.8 483.159C282.155 482.851 282.332 482.459 282.332 481.983C282.332 481.61 282.229 481.306 282.024 481.073C281.819 480.84 281.562 480.662 281.254 480.541C280.946 480.42 280.531 480.289 280.008 480.149C279.364 479.981 278.846 479.813 278.454 479.645C278.071 479.477 277.74 479.216 277.46 478.861C277.189 478.497 277.054 478.012 277.054 477.405C277.054 476.873 277.189 476.402 277.46 475.991C277.731 475.58 278.109 475.263 278.594 475.039C279.089 474.815 279.653 474.703 280.288 474.703C281.203 474.703 281.949 474.932 282.528 475.389C283.116 475.846 283.447 476.453 283.522 477.209H282.122C282.075 476.836 281.879 476.509 281.534 476.229C281.189 475.94 280.731 475.795 280.162 475.795C279.63 475.795 279.196 475.935 278.86 476.215C278.524 476.486 278.356 476.868 278.356 477.363C278.356 477.718 278.454 478.007 278.65 478.231C278.855 478.455 279.103 478.628 279.392 478.749C279.691 478.861 280.106 478.992 280.638 479.141C281.282 479.318 281.8 479.496 282.192 479.673C282.584 479.841 282.92 480.107 283.2 480.471C283.48 480.826 283.62 481.311 283.62 481.927C283.62 482.403 283.494 482.851 283.242 483.271C282.99 483.691 282.617 484.032 282.122 484.293C281.627 484.554 281.044 484.685 280.372 484.685Z" fill="#7A899A"/>
<path d="M242.195 418.194H237.939L237.155 420.364H235.811L239.339 410.662H240.809L244.323 420.364H242.979L242.195 418.194ZM241.831 417.158L240.067 412.23L238.303 417.158H241.831ZM251.909 418.194H247.653L246.869 420.364H245.525L249.053 410.662H250.523L254.037 420.364H252.693L251.909 418.194ZM251.545 417.158L249.781 412.23L248.017 417.158H251.545ZM263.919 410.606L260.237 420.364H258.767L255.085 410.606H256.443L259.509 419.02L262.575 410.606H263.919ZM266.87 411.642V414.904H270.426V415.954H266.87V419.314H270.846V420.364H265.596V410.592H270.846V411.642H266.87Z" fill="#7A899A"/>
<path d="M244.491 345.466L240.809 355.224H239.339L235.657 345.466H237.015L240.081 353.88L243.147 345.466H244.491ZM247.442 346.502V349.764H250.998V350.814H247.442V354.174H251.418V355.224H246.168V345.452H251.418V346.502H247.442ZM259.632 345.466V346.502H256.972V355.224H255.698V346.502H253.024V345.466H259.632Z" fill="#7A899A"/>
<path d="M241.313 285.975C241.668 286.031 241.99 286.176 242.279 286.409C242.578 286.642 242.811 286.932 242.979 287.277C243.157 287.622 243.245 287.991 243.245 288.383C243.245 288.878 243.119 289.326 242.867 289.727C242.615 290.119 242.247 290.432 241.761 290.665C241.285 290.889 240.721 291.001 240.067 291.001H236.427V281.243H239.927C240.59 281.243 241.155 281.355 241.621 281.579C242.088 281.794 242.438 282.088 242.671 282.461C242.905 282.834 243.021 283.254 243.021 283.721C243.021 284.3 242.863 284.78 242.545 285.163C242.237 285.536 241.827 285.807 241.313 285.975ZM237.701 285.457H239.843C240.441 285.457 240.903 285.317 241.229 285.037C241.556 284.757 241.719 284.37 241.719 283.875C241.719 283.38 241.556 282.993 241.229 282.713C240.903 282.433 240.431 282.293 239.815 282.293H237.701V285.457ZM239.955 289.951C240.59 289.951 241.085 289.802 241.439 289.503C241.794 289.204 241.971 288.789 241.971 288.257C241.971 287.716 241.785 287.291 241.411 286.983C241.038 286.666 240.539 286.507 239.913 286.507H237.701V289.951H239.955ZM251.061 288.831H246.805L246.021 291.001H244.677L248.205 281.299H249.675L253.189 291.001H251.845L251.061 288.831ZM250.697 287.795L248.933 282.867L247.169 287.795H250.697ZM262.679 291.001H261.405L256.281 283.231V291.001H255.007V281.229H256.281L261.405 288.985V281.229H262.679V291.001ZM268.169 281.243C269.233 281.243 270.152 281.444 270.927 281.845C271.711 282.237 272.308 282.802 272.719 283.539C273.139 284.276 273.349 285.144 273.349 286.143C273.349 287.142 273.139 288.01 272.719 288.747C272.308 289.475 271.711 290.035 270.927 290.427C270.152 290.81 269.233 291.001 268.169 291.001H265.131V281.243H268.169ZM268.169 289.951C269.429 289.951 270.39 289.62 271.053 288.957C271.715 288.285 272.047 287.347 272.047 286.143C272.047 284.93 271.711 283.982 271.039 283.301C270.376 282.62 269.419 282.279 268.169 282.279H266.405V289.951H268.169Z" fill="#7A899A"/>
<path d="M416.696 277.988C416.696 278.522 416.562 279.023 416.296 279.492C416.04 279.962 415.656 280.356 415.144 280.676C414.642 280.996 414.045 281.188 413.352 281.252V282.548H412.312V281.252C411.309 281.156 410.498 280.842 409.88 280.308C409.261 279.775 408.952 279.071 408.952 278.196H410.904C410.936 278.612 411.069 278.959 411.304 279.236C411.538 279.503 411.874 279.674 412.312 279.748V276.228C411.597 276.047 411.016 275.866 410.568 275.684C410.12 275.492 409.736 275.194 409.416 274.788C409.106 274.383 408.952 273.828 408.952 273.124C408.952 272.239 409.261 271.508 409.88 270.932C410.498 270.346 411.309 270.004 412.312 269.908V268.612H413.352V269.908C414.29 269.994 415.042 270.292 415.608 270.804C416.184 271.306 416.509 271.999 416.584 272.884H414.632C414.6 272.554 414.472 272.26 414.248 272.004C414.024 271.738 413.725 271.556 413.352 271.46V274.916C414.066 275.087 414.648 275.268 415.096 275.46C415.544 275.642 415.922 275.935 416.232 276.34C416.541 276.735 416.696 277.284 416.696 277.988ZM410.808 273.028C410.808 273.466 410.936 273.807 411.192 274.052C411.458 274.298 411.832 274.495 412.312 274.644V271.412C411.853 271.466 411.485 271.631 411.208 271.908C410.941 272.186 410.808 272.559 410.808 273.028ZM413.352 279.748C413.821 279.674 414.189 279.487 414.456 279.188C414.722 278.879 414.856 278.511 414.856 278.084C414.856 277.658 414.722 277.327 414.456 277.092C414.2 276.847 413.832 276.65 413.352 276.5V279.748ZM420.686 278.676C421.71 277.791 422.515 277.066 423.102 276.5C423.699 275.924 424.195 275.327 424.59 274.708C424.985 274.09 425.182 273.471 425.182 272.852C425.182 272.212 425.027 271.711 424.718 271.348C424.419 270.986 423.945 270.804 423.294 270.804C422.665 270.804 422.174 271.007 421.822 271.412C421.481 271.807 421.299 272.34 421.278 273.012H419.518C419.55 271.796 419.913 270.868 420.606 270.228C421.31 269.578 422.201 269.252 423.278 269.252C424.441 269.252 425.347 269.572 425.998 270.212C426.659 270.852 426.99 271.706 426.99 272.772C426.99 273.54 426.793 274.282 426.398 274.996C426.014 275.7 425.55 276.335 425.006 276.9C424.473 277.455 423.79 278.1 422.958 278.836L422.238 279.476H427.31V280.996H419.534V279.668L420.686 278.676ZM430.208 281.268C429.878 281.268 429.6 281.156 429.376 280.932C429.152 280.708 429.04 280.431 429.04 280.1C429.04 279.77 429.152 279.492 429.376 279.268C429.6 279.044 429.878 278.932 430.208 278.932C430.528 278.932 430.8 279.044 431.024 279.268C431.248 279.492 431.36 279.77 431.36 280.1C431.36 280.431 431.248 280.708 431.024 280.932C430.8 281.156 430.528 281.268 430.208 281.268ZM433.188 278.724V277.348L438.564 269.636H440.772V277.14H442.26V278.724H440.772V281.156H438.98V278.724H433.188ZM439.06 271.492L435.284 277.14H439.06V271.492ZM445.099 278.676C446.123 277.791 446.928 277.066 447.515 276.5C448.112 275.924 448.608 275.327 449.003 274.708C449.398 274.09 449.595 273.471 449.595 272.852C449.595 272.212 449.44 271.711 449.131 271.348C448.832 270.986 448.358 270.804 447.707 270.804C447.078 270.804 446.587 271.007 446.235 271.412C445.894 271.807 445.712 272.34 445.691 273.012H443.931C443.963 271.796 444.326 270.868 445.019 270.228C445.723 269.578 446.614 269.252 447.691 269.252C448.854 269.252 449.76 269.572 450.411 270.212C451.072 270.852 451.403 271.706 451.403 272.772C451.403 273.54 451.206 274.282 450.811 274.996C450.427 275.7 449.963 276.335 449.419 276.9C448.886 277.455 448.203 278.1 447.371 278.836L446.651 279.476H451.723V280.996H443.947V279.668L445.099 278.676Z" fill="black"/>
<path d="M415.647 342.211C415.647 342.744 415.514 343.246 415.247 343.715C414.991 344.184 414.607 344.579 414.095 344.899C413.594 345.219 412.997 345.411 412.303 345.475V346.771H411.263V345.475C410.261 345.379 409.45 345.064 408.831 344.531C408.213 343.998 407.903 343.294 407.903 342.419H409.855C409.887 342.835 410.021 343.182 410.255 343.459C410.49 343.726 410.826 343.896 411.263 343.971V340.451C410.549 340.27 409.967 340.088 409.519 339.907C409.071 339.715 408.687 339.416 408.367 339.011C408.058 338.606 407.903 338.051 407.903 337.347C407.903 336.462 408.213 335.731 408.831 335.155C409.45 334.568 410.261 334.227 411.263 334.131V332.835H412.303V334.131C413.242 334.216 413.994 334.515 414.559 335.027C415.135 335.528 415.461 336.222 415.535 337.107H413.583C413.551 336.776 413.423 336.483 413.199 336.227C412.975 335.96 412.677 335.779 412.303 335.683V339.139C413.018 339.31 413.599 339.491 414.047 339.683C414.495 339.864 414.874 340.158 415.183 340.563C415.493 340.958 415.647 341.507 415.647 342.211ZM409.759 337.251C409.759 337.688 409.887 338.03 410.143 338.275C410.41 338.52 410.783 338.718 411.263 338.867V335.635C410.805 335.688 410.437 335.854 410.159 336.131C409.893 336.408 409.759 336.782 409.759 337.251ZM412.303 343.971C412.773 343.896 413.141 343.71 413.407 343.411C413.674 343.102 413.807 342.734 413.807 342.307C413.807 341.88 413.674 341.55 413.407 341.315C413.151 341.07 412.783 340.872 412.303 340.723V343.971ZM426.021 335.123L421.573 345.379H419.733L424.229 335.315H418.309V333.763H426.021V335.123ZM428.879 345.491C428.548 345.491 428.271 345.379 428.047 345.155C427.823 344.931 427.711 344.654 427.711 344.323C427.711 343.992 427.823 343.715 428.047 343.491C428.271 343.267 428.548 343.155 428.879 343.155C429.199 343.155 429.471 343.267 429.695 343.491C429.919 343.715 430.031 343.992 430.031 344.323C430.031 344.654 429.919 344.931 429.695 345.155C429.471 345.379 429.199 345.491 428.879 345.491ZM431.858 342.947V341.571L437.234 333.859H439.442V341.363H440.93V342.947H439.442V345.379H437.65V342.947H431.858ZM437.73 335.715L433.954 341.363H437.73V335.715ZM444.729 339.283C443.62 338.728 443.065 337.854 443.065 336.659C443.065 336.083 443.209 335.555 443.497 335.075C443.785 334.595 444.217 334.216 444.793 333.939C445.369 333.651 446.073 333.507 446.905 333.507C447.727 333.507 448.425 333.651 449.001 333.939C449.588 334.216 450.025 334.595 450.313 335.075C450.601 335.555 450.745 336.083 450.745 336.659C450.745 337.256 450.591 337.784 450.281 338.243C449.983 338.691 449.583 339.038 449.081 339.283C449.689 339.507 450.169 339.875 450.521 340.387C450.873 340.888 451.049 341.48 451.049 342.163C451.049 342.856 450.873 343.47 450.521 344.003C450.169 344.536 449.679 344.947 449.049 345.235C448.42 345.523 447.705 345.667 446.905 345.667C446.105 345.667 445.391 345.523 444.761 345.235C444.143 344.947 443.657 344.536 443.305 344.003C442.953 343.47 442.777 342.856 442.777 342.163C442.777 341.47 442.953 340.872 443.305 340.371C443.657 339.87 444.132 339.507 444.729 339.283ZM449.001 336.883C449.001 336.286 448.815 335.827 448.441 335.507C448.068 335.187 447.556 335.027 446.905 335.027C446.265 335.027 445.759 335.187 445.385 335.507C445.012 335.827 444.825 336.291 444.825 336.899C444.825 337.432 445.017 337.87 445.401 338.211C445.796 338.542 446.297 338.707 446.905 338.707C447.513 338.707 448.015 338.536 448.409 338.195C448.804 337.854 449.001 337.416 449.001 336.883ZM446.905 340.083C446.201 340.083 445.625 340.259 445.177 340.611C444.74 340.952 444.521 341.448 444.521 342.099C444.521 342.707 444.735 343.203 445.161 343.587C445.588 343.96 446.169 344.147 446.905 344.147C447.631 344.147 448.201 343.955 448.617 343.571C449.044 343.187 449.257 342.696 449.257 342.099C449.257 341.459 449.039 340.963 448.601 340.611C448.175 340.259 447.609 340.083 446.905 340.083Z" fill="black"/>
<path d="M415.647 406.435C415.647 406.968 415.514 407.469 415.247 407.939C414.991 408.408 414.607 408.803 414.095 409.123C413.594 409.443 412.997 409.635 412.303 409.699V410.995H411.263V409.699C410.261 409.603 409.45 409.288 408.831 408.755C408.213 408.221 407.903 407.517 407.903 406.643H409.855C409.887 407.059 410.021 407.405 410.255 407.683C410.49 407.949 410.826 408.12 411.263 408.195V404.675C410.549 404.493 409.967 404.312 409.519 404.131C409.071 403.939 408.687 403.64 408.367 403.235C408.058 402.829 407.903 402.275 407.903 401.571C407.903 400.685 408.213 399.955 408.831 399.379C409.45 398.792 410.261 398.451 411.263 398.355V397.059H412.303V398.355C413.242 398.44 413.994 398.739 414.559 399.251C415.135 399.752 415.461 400.445 415.535 401.331H413.583C413.551 401 413.423 400.707 413.199 400.451C412.975 400.184 412.677 400.003 412.303 399.907V403.363C413.018 403.533 413.599 403.715 414.047 403.907C414.495 404.088 414.874 404.381 415.183 404.787C415.493 405.181 415.647 405.731 415.647 406.435ZM409.759 401.475C409.759 401.912 409.887 402.253 410.143 402.499C410.41 402.744 410.783 402.941 411.263 403.091V399.859C410.805 399.912 410.437 400.077 410.159 400.355C409.893 400.632 409.759 401.005 409.759 401.475ZM412.303 408.195C412.773 408.12 413.141 407.933 413.407 407.635C413.674 407.325 413.807 406.957 413.807 406.531C413.807 406.104 413.674 405.773 413.407 405.539C413.151 405.293 412.783 405.096 412.303 404.947V408.195ZM418.629 403.619C418.629 401.773 418.939 400.333 419.557 399.299C420.187 398.253 421.264 397.731 422.789 397.731C424.315 397.731 425.387 398.253 426.005 399.299C426.635 400.333 426.949 401.773 426.949 403.619C426.949 405.485 426.635 406.947 426.005 408.003C425.387 409.048 424.315 409.571 422.789 409.571C421.264 409.571 420.187 409.048 419.557 408.003C418.939 406.947 418.629 405.485 418.629 403.619ZM425.157 403.619C425.157 402.755 425.099 402.024 424.981 401.427C424.875 400.829 424.651 400.344 424.309 399.971C423.968 399.587 423.461 399.395 422.789 399.395C422.117 399.395 421.611 399.587 421.269 399.971C420.928 400.344 420.699 400.829 420.581 401.427C420.475 402.024 420.421 402.755 420.421 403.619C420.421 404.515 420.475 405.267 420.581 405.875C420.688 406.483 420.912 406.973 421.253 407.347C421.605 407.72 422.117 407.907 422.789 407.907C423.461 407.907 423.968 407.72 424.309 407.347C424.661 406.973 424.891 406.483 424.997 405.875C425.104 405.267 425.157 404.515 425.157 403.619ZM430.175 409.715C429.845 409.715 429.567 409.603 429.343 409.379C429.119 409.155 429.007 408.877 429.007 408.547C429.007 408.216 429.119 407.939 429.343 407.715C429.567 407.491 429.845 407.379 430.175 407.379C430.495 407.379 430.767 407.491 430.991 407.715C431.215 407.939 431.327 408.216 431.327 408.547C431.327 408.877 431.215 409.155 430.991 409.379C430.767 409.603 430.495 409.715 430.175 409.715ZM433.379 403.619C433.379 401.773 433.688 400.333 434.307 399.299C434.936 398.253 436.013 397.731 437.539 397.731C439.064 397.731 440.136 398.253 440.755 399.299C441.384 400.333 441.699 401.773 441.699 403.619C441.699 405.485 441.384 406.947 440.755 408.003C440.136 409.048 439.064 409.571 437.539 409.571C436.013 409.571 434.936 409.048 434.307 408.003C433.688 406.947 433.379 405.485 433.379 403.619ZM439.907 403.619C439.907 402.755 439.848 402.024 439.731 401.427C439.624 400.829 439.4 400.344 439.059 399.971C438.717 399.587 438.211 399.395 437.539 399.395C436.867 399.395 436.36 399.587 436.019 399.971C435.677 400.344 435.448 400.829 435.331 401.427C435.224 402.024 435.171 402.755 435.171 403.619C435.171 404.515 435.224 405.267 435.331 405.875C435.437 406.483 435.661 406.973 436.003 407.347C436.355 407.72 436.867 407.907 437.539 407.907C438.211 407.907 438.717 407.72 439.059 407.347C439.411 406.973 439.64 406.483 439.747 405.875C439.853 405.267 439.907 404.515 439.907 403.619ZM443.709 399.603V397.939H447.037V409.603H445.197V399.603H443.709ZM451.831 403.507C450.721 402.952 450.167 402.077 450.167 400.883C450.167 400.307 450.311 399.779 450.599 399.299C450.887 398.819 451.319 398.44 451.895 398.163C452.471 397.875 453.175 397.731 454.007 397.731C454.828 397.731 455.527 397.875 456.103 398.163C456.689 398.44 457.127 398.819 457.415 399.299C457.703 399.779 457.847 400.307 457.847 400.883C457.847 401.48 457.692 402.008 457.383 402.467C457.084 402.915 456.684 403.261 456.183 403.507C456.791 403.731 457.271 404.099 457.623 404.611C457.975 405.112 458.151 405.704 458.151 406.387C458.151 407.08 457.975 407.693 457.623 408.227C457.271 408.76 456.78 409.171 456.151 409.459C455.521 409.747 454.807 409.891 454.007 409.891C453.207 409.891 452.492 409.747 451.863 409.459C451.244 409.171 450.759 408.76 450.407 408.227C450.055 407.693 449.879 407.08 449.879 406.387C449.879 405.693 450.055 405.096 450.407 404.595C450.759 404.093 451.233 403.731 451.831 403.507ZM456.103 401.107C456.103 400.509 455.916 400.051 455.543 399.731C455.169 399.411 454.657 399.251 454.007 399.251C453.367 399.251 452.86 399.411 452.487 399.731C452.113 400.051 451.927 400.515 451.927 401.123C451.927 401.656 452.119 402.093 452.503 402.435C452.897 402.765 453.399 402.931 454.007 402.931C454.615 402.931 455.116 402.76 455.511 402.419C455.905 402.077 456.103 401.64 456.103 401.107ZM454.007 404.307C453.303 404.307 452.727 404.483 452.279 404.835C451.841 405.176 451.623 405.672 451.623 406.323C451.623 406.931 451.836 407.427 452.263 407.811C452.689 408.184 453.271 408.371 454.007 408.371C454.732 408.371 455.303 408.179 455.719 407.795C456.145 407.411 456.359 406.92 456.359 406.323C456.359 405.683 456.14 405.187 455.703 404.835C455.276 404.483 454.711 404.307 454.007 404.307ZM460.162 407.171V405.795L465.538 398.083H467.746V405.587H469.234V407.171H467.746V409.603H465.954V407.171H460.162ZM466.034 399.939L462.258 405.587H466.034V399.939Z" fill="black"/>
<path d="M415.647 471.574C415.647 472.108 415.514 472.609 415.247 473.078C414.991 473.548 414.607 473.942 414.095 474.262C413.594 474.582 412.997 474.774 412.303 474.838V476.134H411.263V474.838C410.261 474.742 409.45 474.428 408.831 473.894C408.213 473.361 407.903 472.657 407.903 471.782H409.855C409.887 472.198 410.021 472.545 410.255 472.822C410.49 473.089 410.826 473.26 411.263 473.334V469.814C410.549 469.633 409.967 469.452 409.519 469.27C409.071 469.078 408.687 468.78 408.367 468.374C408.058 467.969 407.903 467.414 407.903 466.71C407.903 465.825 408.213 465.094 408.831 464.518C409.45 463.932 410.261 463.59 411.263 463.494V462.198H412.303V463.494C413.242 463.58 413.994 463.878 414.559 464.39C415.135 464.892 415.461 465.585 415.535 466.47H413.583C413.551 466.14 413.423 465.846 413.199 465.59C412.975 465.324 412.677 465.142 412.303 465.046V468.502C413.018 468.673 413.599 468.854 414.047 469.046C414.495 469.228 414.874 469.521 415.183 469.926C415.493 470.321 415.647 470.87 415.647 471.574ZM409.759 466.614C409.759 467.052 409.887 467.393 410.143 467.638C410.41 467.884 410.783 468.081 411.263 468.23V464.998C410.805 465.052 410.437 465.217 410.159 465.494C409.893 465.772 409.759 466.145 409.759 466.614ZM412.303 473.334C412.773 473.26 413.141 473.073 413.407 472.774C413.674 472.465 413.807 472.097 413.807 471.67C413.807 471.244 413.674 470.913 413.407 470.678C413.151 470.433 412.783 470.236 412.303 470.086V473.334ZM418.597 465.958C418.661 464.966 419.04 464.193 419.733 463.638C420.437 463.084 421.333 462.806 422.421 462.806C423.168 462.806 423.813 462.94 424.357 463.206C424.901 463.473 425.312 463.836 425.589 464.294C425.867 464.753 426.005 465.27 426.005 465.846C426.005 466.508 425.829 467.073 425.477 467.542C425.125 468.012 424.704 468.326 424.213 468.486V468.55C424.843 468.742 425.333 469.094 425.685 469.606C426.037 470.108 426.213 470.753 426.213 471.542C426.213 472.172 426.069 472.732 425.781 473.222C425.493 473.713 425.067 474.102 424.501 474.39C423.936 474.668 423.259 474.806 422.469 474.806C421.317 474.806 420.368 474.513 419.621 473.926C418.885 473.329 418.491 472.476 418.437 471.366H420.197C420.24 471.932 420.459 472.396 420.853 472.758C421.248 473.11 421.781 473.286 422.453 473.286C423.104 473.286 423.605 473.11 423.957 472.758C424.309 472.396 424.485 471.932 424.485 471.366C424.485 470.62 424.245 470.092 423.765 469.782C423.296 469.462 422.571 469.302 421.589 469.302H421.173V467.798H421.605C422.469 467.788 423.125 467.644 423.573 467.366C424.032 467.089 424.261 466.652 424.261 466.054C424.261 465.542 424.096 465.137 423.765 464.838C423.435 464.529 422.965 464.374 422.357 464.374C421.76 464.374 421.296 464.529 420.965 464.838C420.635 465.137 420.437 465.51 420.373 465.958H418.597ZM428.449 468.758C428.449 466.913 428.759 465.473 429.377 464.438C430.007 463.393 431.084 462.87 432.609 462.87C434.135 462.87 435.207 463.393 435.825 464.438C436.455 465.473 436.769 466.913 436.769 468.758C436.769 470.625 436.455 472.086 435.825 473.142C435.207 474.188 434.135 474.71 432.609 474.71C431.084 474.71 430.007 474.188 429.377 473.142C428.759 472.086 428.449 470.625 428.449 468.758ZM434.977 468.758C434.977 467.894 434.919 467.164 434.801 466.566C434.695 465.969 434.471 465.484 434.129 465.11C433.788 464.726 433.281 464.534 432.609 464.534C431.937 464.534 431.431 464.726 431.089 465.11C430.748 465.484 430.519 465.969 430.401 466.566C430.295 467.164 430.241 467.894 430.241 468.758C430.241 469.654 430.295 470.406 430.401 471.014C430.508 471.622 430.732 472.113 431.073 472.486C431.425 472.86 431.937 473.046 432.609 473.046C433.281 473.046 433.788 472.86 434.129 472.486C434.481 472.113 434.711 471.622 434.817 471.014C434.924 470.406 434.977 469.654 434.977 468.758ZM439.995 474.854C439.665 474.854 439.387 474.742 439.163 474.518C438.939 474.294 438.827 474.017 438.827 473.686C438.827 473.356 438.939 473.078 439.163 472.854C439.387 472.63 439.665 472.518 439.995 472.518C440.315 472.518 440.587 472.63 440.811 472.854C441.035 473.078 441.147 473.356 441.147 473.686C441.147 474.017 441.035 474.294 440.811 474.518C440.587 474.742 440.315 474.854 439.995 474.854ZM449.471 465.782C449.353 465.292 449.14 464.924 448.831 464.678C448.521 464.433 448.089 464.31 447.535 464.31C446.692 464.31 446.063 464.636 445.647 465.286C445.231 465.926 445.012 466.993 444.991 468.486C445.268 468.017 445.673 467.654 446.207 467.398C446.74 467.142 447.316 467.014 447.935 467.014C448.639 467.014 449.257 467.169 449.791 467.478C450.335 467.777 450.756 468.214 451.055 468.79C451.364 469.366 451.519 470.054 451.519 470.854C451.519 471.601 451.369 472.268 451.071 472.854C450.783 473.441 450.351 473.905 449.775 474.246C449.199 474.577 448.505 474.742 447.695 474.742C446.596 474.742 445.732 474.502 445.103 474.022C444.484 473.532 444.047 472.844 443.791 471.958C443.545 471.073 443.423 469.969 443.423 468.646C443.423 464.742 444.799 462.79 447.551 462.79C448.617 462.79 449.455 463.078 450.063 463.654C450.681 464.23 451.044 464.94 451.151 465.782H449.471ZM447.535 468.55C446.884 468.55 446.329 468.748 445.871 469.142C445.423 469.526 445.199 470.086 445.199 470.822C445.199 471.558 445.407 472.145 445.823 472.582C446.249 473.009 446.841 473.222 447.599 473.222C448.271 473.222 448.799 473.014 449.183 472.598C449.577 472.182 449.775 471.628 449.775 470.934C449.775 470.209 449.583 469.633 449.199 469.206C448.825 468.769 448.271 468.55 447.535 468.55ZM455.752 468.646C454.643 468.092 454.088 467.217 454.088 466.022C454.088 465.446 454.232 464.918 454.52 464.438C454.808 463.958 455.24 463.58 455.816 463.302C456.392 463.014 457.096 462.87 457.928 462.87C458.75 462.87 459.448 463.014 460.024 463.302C460.611 463.58 461.048 463.958 461.336 464.438C461.624 464.918 461.768 465.446 461.768 466.022C461.768 466.62 461.614 467.148 461.304 467.606C461.006 468.054 460.606 468.401 460.104 468.646C460.712 468.87 461.192 469.238 461.544 469.75C461.896 470.252 462.072 470.844 462.072 471.526C462.072 472.22 461.896 472.833 461.544 473.366C461.192 473.9 460.702 474.31 460.072 474.598C459.443 474.886 458.728 475.03 457.928 475.03C457.128 475.03 456.414 474.886 455.784 474.598C455.166 474.31 454.68 473.9 454.328 473.366C453.976 472.833 453.8 472.22 453.8 471.526C453.8 470.833 453.976 470.236 454.328 469.734C454.68 469.233 455.155 468.87 455.752 468.646ZM460.024 466.246C460.024 465.649 459.838 465.19 459.464 464.87C459.091 464.55 458.579 464.39 457.928 464.39C457.288 464.39 456.782 464.55 456.408 464.87C456.035 465.19 455.848 465.654 455.848 466.262C455.848 466.796 456.04 467.233 456.424 467.574C456.819 467.905 457.32 468.07 457.928 468.07C458.536 468.07 459.038 467.9 459.432 467.558C459.827 467.217 460.024 466.78 460.024 466.246ZM457.928 469.446C457.224 469.446 456.648 469.622 456.2 469.974C455.763 470.316 455.544 470.812 455.544 471.462C455.544 472.07 455.758 472.566 456.184 472.95C456.611 473.324 457.192 473.51 457.928 473.51C458.654 473.51 459.224 473.318 459.64 472.934C460.067 472.55 460.28 472.06 460.28 471.462C460.28 470.822 460.062 470.326 459.624 469.974C459.198 469.622 458.632 469.446 457.928 469.446Z" fill="black"/>
<rect x="175.705" y="443.591" width="45.8807" height="45.8807" rx="15" fill="#222222"/>
<rect x="175.705" y="443.591" width="45.8807" height="45.8807" rx="15" fill="#222222"/>
<rect x="175.705" y="443.591" width="45.8807" height="45.8807" rx="15" fill="#222222"/>
<rect x="175.705" y="443.591" width="45.8807" height="45.8807" rx="15" fill="#222222"/>
<rect width="13.7632" height="13.7631" transform="matrix(0.720925 -0.693013 0.693124 0.720818 188.455 466.185)" fill="#E4FAF2"/>
<rect x="175.705" y="250.892" width="45.8807" height="45.8807" rx="15" fill="#222222"/>
<rect x="175.705" y="250.892" width="45.8807" height="45.8807" rx="15" fill="#222222"/>
<rect x="175.705" y="250.892" width="45.8807" height="45.8807" rx="15" fill="#222222"/>
<rect x="175.705" y="250.892" width="45.8807" height="45.8807" rx="15" fill="#222222"/>
<g clip-path="url(#clip0)">
<path d="M199.562 288.514C207.671 288.514 214.244 281.941 214.244 273.832C214.244 265.724 207.671 259.15 199.562 259.15C191.454 259.15 184.881 265.724 184.881 273.832C184.881 281.941 191.454 288.514 199.562 288.514Z" fill="#222222"/>
<path d="M202.132 269.795L204.701 271.263V263.922L199.563 261.353L191.579 265.849V281.815L199.563 286.403L207.454 281.724V273.832L199.838 269.244L197.268 270.529L204.885 275.025L204.976 280.439L199.563 283.467L194.057 280.347V267.134L199.563 264.105L202.132 265.482V269.795Z" fill="white"/>
<path d="M199.287 274.199L201.031 273.281L202.958 274.474L197.268 277.686V271.079L199.287 272.272" fill="white"/>
</g>
<rect x="175.705" y="315.125" width="45.8807" height="45.8807" rx="15" fill="#222222"/>
<rect x="175.705" y="315.125" width="45.8807" height="45.8807" rx="15" fill="#222222"/>
<rect x="175.705" y="315.125" width="45.8807" height="45.8807" rx="15" fill="#222222"/>
<rect x="175.705" y="315.125" width="45.8807" height="45.8807" rx="15" fill="#222222"/>
<path d="M197.581 348.325L186.771 326.312C186.596 325.961 186.86 325.545 187.249 325.545H190.995C191.195 325.545 191.384 325.659 191.472 325.834L199.366 341.805C200.07 343.237 202.106 343.237 202.81 341.805L210.679 325.847C210.767 325.671 210.956 325.558 211.157 325.558H211.622C211.898 325.558 212.074 325.847 211.949 326.086L201.026 348.325C200.322 349.757 198.285 349.757 197.581 348.325Z" fill="white"/>
<path opacity="0.1" d="M197.581 348.325L191.472 325.847C191.384 325.659 191.183 325.558 191.02 325.558H187.262C186.847 325.558 186.608 325.972 186.771 326.325L197.581 348.325Z" fill="white"/>
<path opacity="0.1" d="M199.368 341.816L186.773 326.312C186.623 325.948 186.849 325.583 187.2 325.545H191.009C191.222 325.558 191.385 325.695 191.461 325.834L199.368 341.816Z" fill="white"/>
<rect x="175.705" y="379.357" width="45.8807" height="45.8807" rx="15" fill="#222222"/>
<rect x="175.705" y="379.357" width="45.8807" height="45.8807" rx="15" fill="#222222"/>
<rect x="175.705" y="379.357" width="45.8807" height="45.8807" rx="15" fill="#222222"/>
<rect x="175.705" y="379.357" width="45.8807" height="45.8807" rx="15" fill="#222222"/>
<path d="M191.763 410.41C191.763 410.41 196.81 393.436 199.104 392.977C201.398 392.519 207.362 410.41 207.362 410.41" stroke="#E8E2FC" stroke-width="2"/>
<line x1="191.304" y1="401.611" x2="199.562" y2="401.611" stroke="#E8E2FC" stroke-width="2"/>
<path d="M184.125 229H182.942L178.184 221.785V229H177.001V219.926H178.184L182.942 227.128V219.926H184.125V229ZM185.96 225.412C185.96 224.684 186.107 224.047 186.402 223.501C186.696 222.946 187.099 222.517 187.611 222.214C188.131 221.911 188.707 221.759 189.34 221.759C189.964 221.759 190.505 221.893 190.965 222.162C191.424 222.431 191.766 222.769 191.992 223.176V221.876H193.188V229H191.992V227.674C191.758 228.09 191.407 228.437 190.939 228.714C190.479 228.983 189.942 229.117 189.327 229.117C188.694 229.117 188.122 228.961 187.611 228.649C187.099 228.337 186.696 227.899 186.402 227.336C186.107 226.773 185.96 226.131 185.96 225.412ZM191.992 225.425C191.992 224.888 191.883 224.42 191.667 224.021C191.45 223.622 191.155 223.319 190.783 223.111C190.419 222.894 190.016 222.786 189.574 222.786C189.132 222.786 188.729 222.89 188.365 223.098C188.001 223.306 187.71 223.609 187.494 224.008C187.277 224.407 187.169 224.875 187.169 225.412C187.169 225.958 187.277 226.435 187.494 226.842C187.71 227.241 188.001 227.548 188.365 227.765C188.729 227.973 189.132 228.077 189.574 228.077C190.016 228.077 190.419 227.973 190.783 227.765C191.155 227.548 191.45 227.241 191.667 226.842C191.883 226.435 191.992 225.962 191.992 225.425ZM204.014 221.746C204.568 221.746 205.062 221.863 205.496 222.097C205.929 222.322 206.271 222.665 206.523 223.124C206.774 223.583 206.9 224.142 206.9 224.801V229H205.73V224.97C205.73 224.259 205.552 223.718 205.197 223.345C204.85 222.964 204.378 222.773 203.78 222.773C203.164 222.773 202.675 222.972 202.311 223.371C201.947 223.761 201.765 224.329 201.765 225.074V229H200.595V224.97C200.595 224.259 200.417 223.718 200.062 223.345C199.715 222.964 199.243 222.773 198.645 222.773C198.029 222.773 197.54 222.972 197.176 223.371C196.812 223.761 196.63 224.329 196.63 225.074V229H195.447V221.876H196.63V222.903C196.864 222.53 197.176 222.244 197.566 222.045C197.964 221.846 198.402 221.746 198.879 221.746C199.477 221.746 200.005 221.88 200.465 222.149C200.924 222.418 201.266 222.812 201.492 223.332C201.691 222.829 202.02 222.439 202.48 222.162C202.939 221.885 203.45 221.746 204.014 221.746ZM215.6 225.165C215.6 225.39 215.587 225.629 215.561 225.88H209.867C209.911 226.582 210.149 227.132 210.582 227.531C211.024 227.921 211.557 228.116 212.181 228.116C212.693 228.116 213.117 227.999 213.455 227.765C213.802 227.522 214.045 227.202 214.183 226.803H215.457C215.267 227.488 214.885 228.047 214.313 228.48C213.741 228.905 213.031 229.117 212.181 229.117C211.505 229.117 210.899 228.965 210.361 228.662C209.833 228.359 209.417 227.93 209.113 227.375C208.81 226.812 208.658 226.162 208.658 225.425C208.658 224.688 208.806 224.043 209.1 223.488C209.395 222.933 209.807 222.509 210.335 222.214C210.873 221.911 211.488 221.759 212.181 221.759C212.857 221.759 213.455 221.906 213.975 222.201C214.495 222.496 214.894 222.903 215.171 223.423C215.457 223.934 215.6 224.515 215.6 225.165ZM214.378 224.918C214.378 224.467 214.279 224.082 214.079 223.761C213.88 223.432 213.607 223.185 213.26 223.02C212.922 222.847 212.545 222.76 212.129 222.76C211.531 222.76 211.02 222.951 210.595 223.332C210.179 223.713 209.941 224.242 209.88 224.918H214.378Z" fill="#8290A0"/>
<path d="M416.059 222.591C416.059 223.345 415.799 223.973 415.279 224.476C414.768 224.97 413.983 225.217 412.926 225.217H411.184V229H410.001V219.939H412.926C413.949 219.939 414.724 220.186 415.253 220.68C415.79 221.174 416.059 221.811 416.059 222.591ZM412.926 224.242C413.585 224.242 414.07 224.099 414.382 223.813C414.694 223.527 414.85 223.12 414.85 222.591C414.85 221.473 414.209 220.914 412.926 220.914H411.184V224.242H412.926ZM418.972 223.033C419.18 222.626 419.475 222.309 419.856 222.084C420.246 221.859 420.719 221.746 421.273 221.746V222.968H420.961C419.635 222.968 418.972 223.687 418.972 225.126V229H417.789V221.876H418.972V223.033ZM423.51 220.719C423.285 220.719 423.094 220.641 422.938 220.485C422.782 220.329 422.704 220.138 422.704 219.913C422.704 219.688 422.782 219.497 422.938 219.341C423.094 219.185 423.285 219.107 423.51 219.107C423.727 219.107 423.909 219.185 424.056 219.341C424.212 219.497 424.29 219.688 424.29 219.913C424.29 220.138 424.212 220.329 424.056 220.485C423.909 220.641 423.727 220.719 423.51 220.719ZM424.082 221.876V229H422.899V221.876H424.082ZM425.916 225.425C425.916 224.688 426.063 224.047 426.358 223.501C426.653 222.946 427.06 222.517 427.58 222.214C428.109 221.911 428.711 221.759 429.387 221.759C430.262 221.759 430.982 221.971 431.545 222.396C432.117 222.821 432.494 223.41 432.676 224.164H431.402C431.281 223.731 431.042 223.388 430.687 223.137C430.34 222.886 429.907 222.76 429.387 222.76C428.711 222.76 428.165 222.994 427.749 223.462C427.333 223.921 427.125 224.576 427.125 225.425C427.125 226.283 427.333 226.946 427.749 227.414C428.165 227.882 428.711 228.116 429.387 228.116C429.907 228.116 430.34 227.995 430.687 227.752C431.034 227.509 431.272 227.163 431.402 226.712H432.676C432.485 227.44 432.104 228.025 431.532 228.467C430.96 228.9 430.245 229.117 429.387 229.117C428.711 229.117 428.109 228.965 427.58 228.662C427.06 228.359 426.653 227.93 426.358 227.375C426.063 226.82 425.916 226.17 425.916 225.425ZM441.015 225.165C441.015 225.39 441.002 225.629 440.976 225.88H435.282C435.325 226.582 435.563 227.132 435.997 227.531C436.439 227.921 436.972 228.116 437.596 228.116C438.107 228.116 438.532 227.999 438.87 227.765C439.216 227.522 439.459 227.202 439.598 226.803H440.872C440.681 227.488 440.3 228.047 439.728 228.48C439.156 228.905 438.445 229.117 437.596 229.117C436.92 229.117 436.313 228.965 435.776 228.662C435.247 228.359 434.831 227.93 434.528 227.375C434.224 226.812 434.073 226.162 434.073 225.425C434.073 224.688 434.22 224.043 434.515 223.488C434.809 222.933 435.221 222.509 435.75 222.214C436.287 221.911 436.902 221.759 437.596 221.759C438.272 221.759 438.87 221.906 439.39 222.201C439.91 222.496 440.308 222.903 440.586 223.423C440.872 223.934 441.015 224.515 441.015 225.165ZM439.793 224.918C439.793 224.467 439.693 224.082 439.494 223.761C439.294 223.432 439.021 223.185 438.675 223.02C438.337 222.847 437.96 222.76 437.544 222.76C436.946 222.76 436.434 222.951 436.01 223.332C435.594 223.713 435.355 224.242 435.295 224.918H439.793Z" fill="#8290A0"/>
<defs>
<filter id="filter0_d" x="89" y="159" width="464.293" height="423" filterUnits="userSpaceOnUse" color-interpolation-filters="sRGB">
<feFlood flood-opacity="0" result="BackgroundImageFix"/>
<feColorMatrix in="SourceAlpha" type="matrix" values="0 0 0 0 0 0 0 0 0 0 0 0 0 0 0 0 0 0 127 0" result="hardAlpha"/>
<feOffset dy="15"/>
<feGaussianBlur stdDeviation="25"/>
<feComposite in2="hardAlpha" operator="out"/>
<feColorMatrix type="matrix" values="0 0 0 0 0 0 0 0 0 0 0 0 0 0 0 0 0 0 0.08 0"/>
<feBlend mode="normal" in2="BackgroundImageFix" result="effect1_dropShadow"/>
<feBlend mode="normal" in="SourceGraphic" in2="effect1_dropShadow" result="shape"/>
</filter>
<clipPath id="clip0">
<rect width="29.3636" height="29.3636" fill="white" transform="translate(184.881 259.15)"/>
</clipPath>
</defs>
</svg>
