<svg width="9" height="9" viewBox="0 0 9 9" fill="none" xmlns="http://www.w3.org/2000/svg">
<g clip-path="url(#clip0)">
<path d="M8.99776 9.00057V9.00019H9.00001V5.69944C9.00001 4.08469 8.65239 2.84082 6.76463 2.84082C5.85713 2.84082 5.24813 3.33882 4.99951 3.81094H4.97326V2.99157H3.18338V9.00019H5.04713V6.02494C5.04713 5.24157 5.19563 4.48407 6.16576 4.48407C7.12163 4.48407 7.13588 5.37807 7.13588 6.07519V9.00057H8.99776Z" fill="white"/>
<path d="M0.148499 2.99121H2.0145V8.99983H0.148499V2.99121Z" fill="white"/>
<path d="M1.08075 0C0.484125 0 0 0.484125 0 1.08075C0 1.67738 0.484125 2.17163 1.08075 2.17163C1.67737 2.17163 2.1615 1.67738 2.1615 1.08075C2.16112 0.484125 1.677 0 1.08075 0V0Z" fill="white"/>
</g>
<defs>
<clipPath id="clip0">
<rect width="9" height="9" fill="white"/>
</clipPath>
</defs>
</svg>
