<svg width="630" height="705" viewBox="0 0 630 705" fill="none" xmlns="http://www.w3.org/2000/svg">
<path d="M226.009 495.451C158.663 518.465 107 457.356 107 457.356L107 495.451C107 495.451 178.036 540.786 226.009 528.856C273.982 516.926 339.483 438.981 416.977 419.893C494.472 400.805 571.5 468.856 571.5 468.856L571.5 431.356C571.5 431.356 470.074 388.693 431.5 393.356C346.557 403.624 293.355 472.437 226.009 495.451Z" fill="#C3EFFB"/>
<path d="M573 144.571C573 136.288 566.284 129.573 558 129.573H122C113.716 129.573 107 136.288 107 144.571V661.49C107 669.773 113.716 676.487 122 676.487H558C566.284 676.487 573 669.773 573 661.49V144.571Z" fill="#F6F8FC"/>
<rect width="5" height="5" rx="2.5" transform="matrix(-1 0 0 1 305 239)" fill="#22211F" fill-opacity="0.6"/>
<rect width="5" height="5" rx="2.5" transform="matrix(-1 0 0 1 305 311)" fill="#22211F" fill-opacity="0.6"/>
<rect width="5" height="5" rx="2.5" transform="matrix(-1 0 0 1 305 275)" fill="#22211F" fill-opacity="0.6"/>
<rect width="5" height="5" rx="2.5" transform="matrix(-1 0 0 1 305 347)" fill="#22211F" fill-opacity="0.6"/>
<rect width="5" height="5" rx="2.5" transform="matrix(-1 0 0 1 305 257)" fill="#22211F" fill-opacity="0.6"/>
<rect width="5" height="5" rx="2.5" transform="matrix(-1 0 0 1 305 329)" fill="#22211F" fill-opacity="0.6"/>
<rect width="5" height="5" rx="2.5" transform="matrix(-1 0 0 1 305 293)" fill="#22211F" fill-opacity="0.6"/>
<rect width="5" height="5" rx="2.5" transform="matrix(-1 0 0 1 305 365)" fill="#22211F" fill-opacity="0.6"/>
<rect width="5" height="5" rx="2.5" transform="matrix(-1 0 0 1 233 239)" fill="#22211F" fill-opacity="0.6"/>
<rect width="5" height="5" rx="2.5" transform="matrix(-1 0 0 1 233 311)" fill="#22211F" fill-opacity="0.6"/>
<rect width="5" height="5" rx="2.5" transform="matrix(-1 0 0 1 233 275)" fill="#22211F" fill-opacity="0.6"/>
<rect width="5" height="5" rx="2.5" transform="matrix(-1 0 0 1 233 347)" fill="#22211F" fill-opacity="0.6"/>
<rect width="5" height="5" rx="2.5" transform="matrix(-1 0 0 1 233 257)" fill="#22211F" fill-opacity="0.6"/>
<rect width="5" height="5" rx="2.5" transform="matrix(-1 0 0 1 233 329)" fill="#22211F" fill-opacity="0.6"/>
<rect width="5" height="5" rx="2.5" transform="matrix(-1 0 0 1 233 293)" fill="#22211F" fill-opacity="0.6"/>
<rect width="5" height="5" rx="2.5" transform="matrix(-1 0 0 1 233 365)" fill="#22211F" fill-opacity="0.6"/>
<rect width="5" height="5" rx="2.5" transform="matrix(-1 0 0 1 287 239)" fill="#22211F" fill-opacity="0.6"/>
<rect width="5" height="5" rx="2.5" transform="matrix(-1 0 0 1 287 311)" fill="#22211F" fill-opacity="0.6"/>
<rect width="5" height="5" rx="2.5" transform="matrix(-1 0 0 1 287 275)" fill="#22211F" fill-opacity="0.6"/>
<rect width="5" height="5" rx="2.5" transform="matrix(-1 0 0 1 287 347)" fill="#22211F" fill-opacity="0.6"/>
<rect width="5" height="5" rx="2.5" transform="matrix(-1 0 0 1 287 257)" fill="#22211F" fill-opacity="0.6"/>
<rect width="5" height="5" rx="2.5" transform="matrix(-1 0 0 1 287 329)" fill="#22211F" fill-opacity="0.6"/>
<rect width="5" height="5" rx="2.5" transform="matrix(-1 0 0 1 287 293)" fill="#22211F" fill-opacity="0.6"/>
<rect width="5" height="5" rx="2.5" transform="matrix(-1 0 0 1 287 365)" fill="#22211F" fill-opacity="0.6"/>
<rect width="5" height="5" rx="2.5" transform="matrix(-1 0 0 1 215 239)" fill="#22211F" fill-opacity="0.6"/>
<rect width="5" height="5" rx="2.5" transform="matrix(-1 0 0 1 215 311)" fill="#22211F" fill-opacity="0.6"/>
<rect width="5" height="5" rx="2.5" transform="matrix(-1 0 0 1 215 275)" fill="#22211F" fill-opacity="0.6"/>
<rect width="5" height="5" rx="2.5" transform="matrix(-1 0 0 1 215 347)" fill="#22211F" fill-opacity="0.6"/>
<rect width="5" height="5" rx="2.5" transform="matrix(-1 0 0 1 215 257)" fill="#22211F" fill-opacity="0.6"/>
<rect width="5" height="5" rx="2.5" transform="matrix(-1 0 0 1 215 329)" fill="#22211F" fill-opacity="0.6"/>
<rect width="5" height="5" rx="2.5" transform="matrix(-1 0 0 1 215 293)" fill="#22211F" fill-opacity="0.6"/>
<rect width="5" height="5" rx="2.5" transform="matrix(-1 0 0 1 215 365)" fill="#22211F" fill-opacity="0.6"/>
<rect width="5" height="5" rx="2.5" transform="matrix(-1 0 0 1 269 239)" fill="#22211F" fill-opacity="0.6"/>
<rect width="5" height="5" rx="2.5" transform="matrix(-1 0 0 1 269 311)" fill="#22211F" fill-opacity="0.6"/>
<rect width="5" height="5" rx="2.5" transform="matrix(-1 0 0 1 269 275)" fill="#22211F" fill-opacity="0.6"/>
<rect width="5" height="5" rx="2.5" transform="matrix(-1 0 0 1 269 347)" fill="#22211F" fill-opacity="0.6"/>
<rect width="5" height="5" rx="2.5" transform="matrix(-1 0 0 1 269 257)" fill="#22211F" fill-opacity="0.6"/>
<rect width="5" height="5" rx="2.5" transform="matrix(-1 0 0 1 269 329)" fill="#22211F" fill-opacity="0.6"/>
<rect width="5" height="5" rx="2.5" transform="matrix(-1 0 0 1 269 293)" fill="#22211F" fill-opacity="0.6"/>
<rect width="5" height="5" rx="2.5" transform="matrix(-1 0 0 1 269 365)" fill="#22211F" fill-opacity="0.6"/>
<rect width="5" height="5" rx="2.5" transform="matrix(-1 0 0 1 197 239)" fill="#22211F" fill-opacity="0.6"/>
<rect width="5" height="5" rx="2.5" transform="matrix(-1 0 0 1 197 311)" fill="#22211F" fill-opacity="0.6"/>
<rect width="5" height="5" rx="2.5" transform="matrix(-1 0 0 1 197 275)" fill="#22211F" fill-opacity="0.6"/>
<rect width="5" height="5" rx="2.5" transform="matrix(-1 0 0 1 197 347)" fill="#22211F" fill-opacity="0.6"/>
<rect width="5" height="5" rx="2.5" transform="matrix(-1 0 0 1 197 257)" fill="#22211F" fill-opacity="0.6"/>
<rect width="5" height="5" rx="2.5" transform="matrix(-1 0 0 1 197 329)" fill="#22211F" fill-opacity="0.6"/>
<rect width="5" height="5" rx="2.5" transform="matrix(-1 0 0 1 197 293)" fill="#22211F" fill-opacity="0.6"/>
<rect width="5" height="5" rx="2.5" transform="matrix(-1 0 0 1 197 365)" fill="#22211F" fill-opacity="0.6"/>
<rect width="5" height="5" rx="2.5" transform="matrix(-1 0 0 1 251 239)" fill="#22211F" fill-opacity="0.6"/>
<rect width="5" height="5" rx="2.5" transform="matrix(-1 0 0 1 251 311)" fill="#22211F" fill-opacity="0.6"/>
<rect width="5" height="5" rx="2.5" transform="matrix(-1 0 0 1 251 275)" fill="#22211F" fill-opacity="0.6"/>
<rect width="5" height="5" rx="2.5" transform="matrix(-1 0 0 1 251 347)" fill="#22211F" fill-opacity="0.6"/>
<rect width="5" height="5" rx="2.5" transform="matrix(-1 0 0 1 251 257)" fill="#22211F" fill-opacity="0.6"/>
<rect width="5" height="5" rx="2.5" transform="matrix(-1 0 0 1 251 329)" fill="#22211F" fill-opacity="0.6"/>
<rect width="5" height="5" rx="2.5" transform="matrix(-1 0 0 1 251 293)" fill="#22211F" fill-opacity="0.6"/>
<rect width="5" height="5" rx="2.5" transform="matrix(-1 0 0 1 251 365)" fill="#22211F" fill-opacity="0.6"/>
<rect width="5" height="5" rx="2.5" transform="matrix(-1 0 0 1 179 239)" fill="#22211F" fill-opacity="0.6"/>
<rect width="5" height="5" rx="2.5" transform="matrix(-1 0 0 1 179 311)" fill="#22211F" fill-opacity="0.6"/>
<rect width="5" height="5" rx="2.5" transform="matrix(-1 0 0 1 179 275)" fill="#22211F" fill-opacity="0.6"/>
<rect width="5" height="5" rx="2.5" transform="matrix(-1 0 0 1 179 347)" fill="#22211F" fill-opacity="0.6"/>
<rect width="5" height="5" rx="2.5" transform="matrix(-1 0 0 1 179 257)" fill="#22211F" fill-opacity="0.6"/>
<rect width="5" height="5" rx="2.5" transform="matrix(-1 0 0 1 179 329)" fill="#22211F" fill-opacity="0.6"/>
<rect width="5" height="5" rx="2.5" transform="matrix(-1 0 0 1 179 293)" fill="#22211F" fill-opacity="0.6"/>
<rect width="5" height="5" rx="2.5" transform="matrix(-1 0 0 1 179 365)" fill="#22211F" fill-opacity="0.6"/>
<rect width="5" height="5" rx="2.5" transform="matrix(-1 0 0 1 508 426)" fill="#22211F" fill-opacity="0.6"/>
<rect width="5" height="5" rx="2.5" transform="matrix(-1 0 0 1 508 462)" fill="#22211F" fill-opacity="0.6"/>
<rect width="5" height="5" rx="2.5" transform="matrix(-1 0 0 1 508 444)" fill="#22211F" fill-opacity="0.6"/>
<rect width="5" height="5" rx="2.5" transform="matrix(-1 0 0 1 508 408)" fill="#22211F" fill-opacity="0.6"/>
<rect width="5" height="5" rx="2.5" transform="matrix(-1 0 0 1 508 480)" fill="#22211F" fill-opacity="0.6"/>
<rect width="5" height="5" rx="2.5" transform="matrix(-1 0 0 1 436 426)" fill="#22211F" fill-opacity="0.6"/>
<rect width="5" height="5" rx="2.5" transform="matrix(-1 0 0 1 436 462)" fill="#22211F" fill-opacity="0.6"/>
<rect width="5" height="5" rx="2.5" transform="matrix(-1 0 0 1 436 444)" fill="#22211F" fill-opacity="0.6"/>
<rect width="5" height="5" rx="2.5" transform="matrix(-1 0 0 1 436 408)" fill="#22211F" fill-opacity="0.6"/>
<rect width="5" height="5" rx="2.5" transform="matrix(-1 0 0 1 436 480)" fill="#22211F" fill-opacity="0.6"/>
<rect width="5" height="5" rx="2.5" transform="matrix(-1 0 0 1 490 426)" fill="#22211F" fill-opacity="0.6"/>
<rect width="5" height="5" rx="2.5" transform="matrix(-1 0 0 1 490 462)" fill="#22211F" fill-opacity="0.6"/>
<rect width="5" height="5" rx="2.5" transform="matrix(-1 0 0 1 490 444)" fill="#22211F" fill-opacity="0.6"/>
<rect width="5" height="5" rx="2.5" transform="matrix(-1 0 0 1 490 408)" fill="#22211F" fill-opacity="0.6"/>
<rect width="5" height="5" rx="2.5" transform="matrix(-1 0 0 1 490 480)" fill="#22211F" fill-opacity="0.6"/>
<rect width="5" height="5" rx="2.5" transform="matrix(-1 0 0 1 418 426)" fill="#22211F" fill-opacity="0.6"/>
<rect width="5" height="5" rx="2.5" transform="matrix(-1 0 0 1 418 462)" fill="#22211F" fill-opacity="0.6"/>
<rect width="5" height="5" rx="2.5" transform="matrix(-1 0 0 1 418 444)" fill="#22211F" fill-opacity="0.6"/>
<rect width="5" height="5" rx="2.5" transform="matrix(-1 0 0 1 418 408)" fill="#22211F" fill-opacity="0.6"/>
<rect width="5" height="5" rx="2.5" transform="matrix(-1 0 0 1 418 480)" fill="#22211F" fill-opacity="0.6"/>
<rect width="5" height="5" rx="2.5" transform="matrix(-1 0 0 1 472 426)" fill="#22211F" fill-opacity="0.6"/>
<rect width="5" height="5" rx="2.5" transform="matrix(-1 0 0 1 472 462)" fill="#22211F" fill-opacity="0.6"/>
<rect width="5" height="5" rx="2.5" transform="matrix(-1 0 0 1 472 444)" fill="#22211F" fill-opacity="0.6"/>
<rect width="5" height="5" rx="2.5" transform="matrix(-1 0 0 1 472 408)" fill="#22211F" fill-opacity="0.6"/>
<rect width="5" height="5" rx="2.5" transform="matrix(-1 0 0 1 472 480)" fill="#22211F" fill-opacity="0.6"/>
<rect width="5" height="5" rx="2.5" transform="matrix(-1 0 0 1 400 426)" fill="#22211F" fill-opacity="0.6"/>
<rect width="5" height="5" rx="2.5" transform="matrix(-1 0 0 1 400 462)" fill="#22211F" fill-opacity="0.6"/>
<rect width="5" height="5" rx="2.5" transform="matrix(-1 0 0 1 400 444)" fill="#22211F" fill-opacity="0.6"/>
<rect width="5" height="5" rx="2.5" transform="matrix(-1 0 0 1 400 408)" fill="#22211F" fill-opacity="0.6"/>
<rect width="5" height="5" rx="2.5" transform="matrix(-1 0 0 1 400 480)" fill="#22211F" fill-opacity="0.6"/>
<rect width="5" height="5" rx="2.5" transform="matrix(-1 0 0 1 454 426)" fill="#22211F" fill-opacity="0.6"/>
<rect width="5" height="5" rx="2.5" transform="matrix(-1 0 0 1 454 462)" fill="#22211F" fill-opacity="0.6"/>
<rect width="5" height="5" rx="2.5" transform="matrix(-1 0 0 1 454 444)" fill="#22211F" fill-opacity="0.6"/>
<rect width="5" height="5" rx="2.5" transform="matrix(-1 0 0 1 454 408)" fill="#22211F" fill-opacity="0.6"/>
<rect width="5" height="5" rx="2.5" transform="matrix(-1 0 0 1 454 480)" fill="#22211F" fill-opacity="0.6"/>
<rect width="5" height="5" rx="2.5" transform="matrix(-1 0 0 1 382 426)" fill="#22211F" fill-opacity="0.6"/>
<rect width="5" height="5" rx="2.5" transform="matrix(-1 0 0 1 382 462)" fill="#22211F" fill-opacity="0.6"/>
<rect width="5" height="5" rx="2.5" transform="matrix(-1 0 0 1 382 444)" fill="#22211F" fill-opacity="0.6"/>
<rect width="5" height="5" rx="2.5" transform="matrix(-1 0 0 1 382 408)" fill="#22211F" fill-opacity="0.6"/>
<rect width="5" height="5" rx="2.5" transform="matrix(-1 0 0 1 382 480)" fill="#22211F" fill-opacity="0.6"/>
<rect width="5" height="5" rx="2.5" transform="matrix(-1 0 0 1 508 515)" fill="#22211F" fill-opacity="0.6"/>
<rect width="5" height="5" rx="2.5" transform="matrix(-1 0 0 1 508 551)" fill="#22211F" fill-opacity="0.6"/>
<rect width="5" height="5" rx="2.5" transform="matrix(-1 0 0 1 508 533)" fill="#22211F" fill-opacity="0.6"/>
<rect width="5" height="5" rx="2.5" transform="matrix(-1 0 0 1 508 497)" fill="#22211F" fill-opacity="0.6"/>
<rect width="5" height="5" rx="2.5" transform="matrix(-1 0 0 1 508 569)" fill="#22211F" fill-opacity="0.6"/>
<rect width="5" height="5" rx="2.5" transform="matrix(-1 0 0 1 436 515)" fill="#22211F" fill-opacity="0.6"/>
<rect width="5" height="5" rx="2.5" transform="matrix(-1 0 0 1 436 551)" fill="#22211F" fill-opacity="0.6"/>
<rect width="5" height="5" rx="2.5" transform="matrix(-1 0 0 1 436 533)" fill="#22211F" fill-opacity="0.6"/>
<rect width="5" height="5" rx="2.5" transform="matrix(-1 0 0 1 436 497)" fill="#22211F" fill-opacity="0.6"/>
<rect width="5" height="5" rx="2.5" transform="matrix(-1 0 0 1 436 569)" fill="#22211F" fill-opacity="0.6"/>
<rect width="5" height="5" rx="2.5" transform="matrix(-1 0 0 1 490 515)" fill="#22211F" fill-opacity="0.6"/>
<rect width="5" height="5" rx="2.5" transform="matrix(-1 0 0 1 490 551)" fill="#22211F" fill-opacity="0.6"/>
<rect width="5" height="5" rx="2.5" transform="matrix(-1 0 0 1 490 533)" fill="#22211F" fill-opacity="0.6"/>
<rect width="5" height="5" rx="2.5" transform="matrix(-1 0 0 1 490 497)" fill="#22211F" fill-opacity="0.6"/>
<rect width="5" height="5" rx="2.5" transform="matrix(-1 0 0 1 490 569)" fill="#22211F" fill-opacity="0.6"/>
<rect width="5" height="5" rx="2.5" transform="matrix(-1 0 0 1 418 515)" fill="#22211F" fill-opacity="0.6"/>
<rect width="5" height="5" rx="2.5" transform="matrix(-1 0 0 1 418 551)" fill="#22211F" fill-opacity="0.6"/>
<rect width="5" height="5" rx="2.5" transform="matrix(-1 0 0 1 418 533)" fill="#22211F" fill-opacity="0.6"/>
<rect width="5" height="5" rx="2.5" transform="matrix(-1 0 0 1 418 497)" fill="#22211F" fill-opacity="0.6"/>
<rect width="5" height="5" rx="2.5" transform="matrix(-1 0 0 1 418 569)" fill="#22211F" fill-opacity="0.6"/>
<rect width="5" height="5" rx="2.5" transform="matrix(-1 0 0 1 472 515)" fill="#22211F" fill-opacity="0.6"/>
<rect width="5" height="5" rx="2.5" transform="matrix(-1 0 0 1 472 551)" fill="#22211F" fill-opacity="0.6"/>
<rect width="5" height="5" rx="2.5" transform="matrix(-1 0 0 1 472 533)" fill="#22211F" fill-opacity="0.6"/>
<rect width="5" height="5" rx="2.5" transform="matrix(-1 0 0 1 472 497)" fill="#22211F" fill-opacity="0.6"/>
<rect width="5" height="5" rx="2.5" transform="matrix(-1 0 0 1 472 569)" fill="#22211F" fill-opacity="0.6"/>
<rect width="5" height="5" rx="2.5" transform="matrix(-1 0 0 1 400 515)" fill="#22211F" fill-opacity="0.6"/>
<rect width="5" height="5" rx="2.5" transform="matrix(-1 0 0 1 400 551)" fill="#22211F" fill-opacity="0.6"/>
<rect width="5" height="5" rx="2.5" transform="matrix(-1 0 0 1 400 533)" fill="#22211F" fill-opacity="0.6"/>
<rect width="5" height="5" rx="2.5" transform="matrix(-1 0 0 1 400 497)" fill="#22211F" fill-opacity="0.6"/>
<rect width="5" height="5" rx="2.5" transform="matrix(-1 0 0 1 400 569)" fill="#22211F" fill-opacity="0.6"/>
<rect width="5" height="5" rx="2.5" transform="matrix(-1 0 0 1 454 515)" fill="#22211F" fill-opacity="0.6"/>
<rect width="5" height="5" rx="2.5" transform="matrix(-1 0 0 1 454 551)" fill="#22211F" fill-opacity="0.6"/>
<rect width="5" height="5" rx="2.5" transform="matrix(-1 0 0 1 454 533)" fill="#22211F" fill-opacity="0.6"/>
<rect width="5" height="5" rx="2.5" transform="matrix(-1 0 0 1 454 497)" fill="#22211F" fill-opacity="0.6"/>
<rect width="5" height="5" rx="2.5" transform="matrix(-1 0 0 1 454 569)" fill="#22211F" fill-opacity="0.6"/>
<rect width="5" height="5" rx="2.5" transform="matrix(-1 0 0 1 382 515)" fill="#22211F" fill-opacity="0.6"/>
<rect width="5" height="5" rx="2.5" transform="matrix(-1 0 0 1 382 551)" fill="#22211F" fill-opacity="0.6"/>
<rect width="5" height="5" rx="2.5" transform="matrix(-1 0 0 1 382 533)" fill="#22211F" fill-opacity="0.6"/>
<rect width="5" height="5" rx="2.5" transform="matrix(-1 0 0 1 382 497)" fill="#22211F" fill-opacity="0.6"/>
<rect width="5" height="5" rx="2.5" transform="matrix(-1 0 0 1 382 569)" fill="#22211F" fill-opacity="0.6"/>
<rect width="271" height="271" rx="135.5" transform="matrix(-1 0 0 1 495 262)" fill="#FF2E63"/>
<path d="M386.596 265C431.263 289.333 505.196 354.7 443.596 421.5C381.996 488.3 379.929 523.333 386.596 532.5" stroke="white"/>
<path d="M331 265C352.833 275.333 408.279 312.4 417.479 350C428.979 397 307.979 485.5 320.979 526" stroke="white"/>
<path d="M289 283.5C341 300.5 379.5 317 366 366C352.5 415 273.5 447.5 261 490" stroke="white"/>
<path d="M255.829 311.493C288.329 335.993 319.622 331.007 300.5 376C286.9 408 246 426.667 229 433" stroke="white"/>
<path d="M420.5 593C406.1 637.8 355.833 666.667 332.5 675.5M324 618.5C288.4 659.3 245.167 673.5 228 675.5M228 626.5C162.8 664.1 124.5 671.833 113.5 671M228 574C162.8 611.6 119.5 604.333 108.5 603.5" stroke="#B7EDFB"/>
<path d="M261 212.5C275.4 167.7 325.667 138.833 349 130M357.5 187C393.1 146.2 436.333 132 453.5 130M453.5 179C518.7 141.4 557 133.667 568 134.5M453.5 231.5C518.7 193.9 562 201.167 573 202" stroke="#B7EDFB"/>
<g filter="url(#filter0_d)">
<path d="M574.964 130.032L484.811 219.261L484.811 40.8037L574.964 130.032Z" fill="white"/>
<path d="M395 130.472L485.153 41.2432L485.153 219.7L395 130.472Z" fill="white"/>
<path d="M507.057 114.888H504.938V112.77C504.938 102.241 496.401 93.7051 485.871 93.7051C475.34 93.7051 466.803 102.241 466.803 112.77V114.888H464.684C463.514 114.888 462.566 115.836 462.566 117.006V150.899C462.566 152.069 463.514 153.017 464.684 153.017H507.057C508.227 153.017 509.176 152.069 509.176 150.899V117.006C509.176 115.836 508.227 114.888 507.057 114.888ZM491.863 133.926C491.223 135.736 489.799 137.16 487.989 137.8V142.426C487.989 143.596 487.041 144.544 485.871 144.544C484.701 144.544 483.752 143.596 483.752 142.426V137.8C480.442 136.63 478.708 132.999 479.878 129.69C481.048 126.381 484.68 124.647 487.989 125.817C491.299 126.987 493.033 130.617 491.863 133.926ZM500.701 114.888H471.04V112.77C471.04 104.58 477.68 97.9416 485.871 97.9416C494.061 97.9416 500.701 104.58 500.701 112.77V114.888Z" fill="#FF2E63"/>
</g>
<g filter="url(#filter1_d)">
<rect x="55" y="411" width="323" height="224" rx="10" fill="white"/>
</g>
<path d="M97.818 477.002H93.57V488H91.536V477.002H87.27V475.22H97.818V477.002ZM103.376 480.296C102.608 480.32 101.924 480.5 101.324 480.836C100.736 481.16 100.316 481.628 100.064 482.24V488H98.0845V478.586H99.9205V480.692C100.244 480.044 100.67 479.528 101.198 479.144C101.726 478.748 102.284 478.532 102.872 478.496C102.98 478.496 103.076 478.496 103.16 478.496C103.244 478.496 103.316 478.502 103.376 478.514V480.296ZM104.115 485.246C104.115 484.646 104.283 484.124 104.619 483.68C104.955 483.224 105.423 482.876 106.023 482.636C106.635 482.384 107.337 482.258 108.129 482.258C108.549 482.258 108.975 482.294 109.407 482.366C109.851 482.426 110.241 482.516 110.577 482.636V482.042C110.577 481.382 110.379 480.866 109.983 480.494C109.587 480.122 109.017 479.936 108.273 479.936C107.757 479.936 107.259 480.026 106.779 480.206C106.299 480.386 105.801 480.65 105.285 480.998L104.619 479.666C105.243 479.258 105.867 478.952 106.491 478.748C107.127 478.532 107.793 478.424 108.489 478.424C109.749 478.424 110.739 478.76 111.459 479.432C112.191 480.092 112.557 481.034 112.557 482.258V485.768C112.557 485.996 112.593 486.158 112.665 486.254C112.749 486.35 112.887 486.404 113.079 486.416V488C112.899 488.036 112.737 488.06 112.593 488.072C112.449 488.084 112.329 488.09 112.233 488.09C111.801 488.09 111.477 487.988 111.261 487.784C111.057 487.568 110.937 487.328 110.901 487.064L110.847 486.524C110.439 487.052 109.917 487.46 109.281 487.748C108.645 488.036 108.003 488.18 107.355 488.18C106.731 488.18 106.173 488.054 105.681 487.802C105.189 487.538 104.805 487.184 104.529 486.74C104.253 486.296 104.115 485.798 104.115 485.246ZM110.109 485.822C110.421 485.51 110.577 485.216 110.577 484.94V483.86C109.869 483.596 109.149 483.464 108.417 483.464C107.697 483.464 107.109 483.614 106.653 483.914C106.209 484.202 105.987 484.592 105.987 485.084C105.987 485.492 106.149 485.87 106.473 486.218C106.809 486.554 107.289 486.722 107.913 486.722C108.333 486.722 108.741 486.638 109.137 486.47C109.533 486.302 109.857 486.086 110.109 485.822ZM123.401 488H121.421V482.726C121.421 481.838 121.277 481.196 120.989 480.8C120.713 480.392 120.299 480.188 119.747 480.188C119.363 480.188 118.979 480.284 118.595 480.476C118.223 480.668 117.887 480.932 117.587 481.268C117.287 481.604 117.071 481.982 116.939 482.402V488H114.959V478.586H116.759V480.476C117.119 479.852 117.641 479.354 118.325 478.982C119.009 478.61 119.765 478.424 120.593 478.424C121.337 478.424 121.913 478.604 122.321 478.964C122.729 479.312 123.011 479.774 123.167 480.35C123.323 480.926 123.401 481.562 123.401 482.258V488ZM129.048 488.18C128.256 488.18 127.506 488.048 126.798 487.784C126.09 487.52 125.484 487.136 124.98 486.632L125.718 485.3C126.258 485.78 126.798 486.128 127.338 486.344C127.878 486.56 128.424 486.668 128.976 486.668C129.528 486.668 129.978 486.566 130.326 486.362C130.674 486.146 130.848 485.834 130.848 485.426C130.848 485.138 130.758 484.916 130.578 484.76C130.398 484.604 130.134 484.478 129.786 484.382C129.45 484.286 129.042 484.166 128.562 484.022C127.89 483.818 127.326 483.608 126.87 483.392C126.414 483.164 126.072 482.888 125.844 482.564C125.616 482.24 125.502 481.826 125.502 481.322C125.502 480.41 125.844 479.702 126.528 479.198C127.212 478.682 128.106 478.424 129.21 478.424C129.894 478.424 130.524 478.532 131.1 478.748C131.688 478.952 132.204 479.276 132.648 479.72L131.802 481.034C130.986 480.29 130.086 479.918 129.102 479.918C128.67 479.918 128.268 480.002 127.896 480.17C127.536 480.338 127.356 480.65 127.356 481.106C127.356 481.49 127.518 481.766 127.842 481.934C128.166 482.102 128.646 482.282 129.282 482.474C130.002 482.69 130.62 482.906 131.136 483.122C131.664 483.326 132.066 483.596 132.342 483.932C132.63 484.256 132.774 484.706 132.774 485.282C132.774 486.194 132.432 486.908 131.748 487.424C131.064 487.928 130.164 488.18 129.048 488.18ZM135.046 488V480.35H133.786V478.82H135.046V478.442C135.046 477.29 135.316 476.378 135.856 475.706C136.408 475.022 137.14 474.68 138.052 474.68C138.82 474.68 139.552 474.872 140.248 475.256L139.816 476.732C139.636 476.624 139.42 476.534 139.168 476.462C138.928 476.39 138.694 476.354 138.466 476.354C137.998 476.354 137.638 476.528 137.386 476.876C137.146 477.224 137.026 477.728 137.026 478.388V478.82H139.438V480.35H137.026V488H135.046ZM145.03 488.18C144.058 488.18 143.206 487.958 142.474 487.514C141.742 487.07 141.172 486.482 140.764 485.75C140.356 485.006 140.152 484.196 140.152 483.32C140.152 482.432 140.356 481.616 140.764 480.872C141.172 480.128 141.742 479.534 142.474 479.09C143.206 478.646 144.064 478.424 145.048 478.424C146.032 478.424 146.884 478.652 147.604 479.108C148.324 479.552 148.876 480.14 149.26 480.872C149.656 481.604 149.854 482.39 149.854 483.23C149.854 483.53 149.836 483.77 149.8 483.95H142.258C142.294 484.502 142.444 484.988 142.708 485.408C142.984 485.816 143.326 486.14 143.734 486.38C144.154 486.608 144.61 486.722 145.102 486.722C145.63 486.722 146.128 486.59 146.596 486.326C147.064 486.062 147.388 485.714 147.568 485.282L149.26 485.768C148.936 486.476 148.396 487.058 147.64 487.514C146.896 487.958 146.026 488.18 145.03 488.18ZM142.204 482.636H147.892C147.844 482.096 147.688 481.622 147.424 481.214C147.16 480.794 146.818 480.47 146.398 480.242C145.99 480.002 145.534 479.882 145.03 479.882C144.538 479.882 144.082 480.002 143.662 480.242C143.254 480.47 142.918 480.794 142.654 481.214C142.39 481.622 142.24 482.096 142.204 482.636ZM156.761 480.296C155.993 480.32 155.309 480.5 154.709 480.836C154.121 481.16 153.701 481.628 153.449 482.24V488H151.469V478.586H153.305V480.692C153.629 480.044 154.055 479.528 154.583 479.144C155.111 478.748 155.669 478.532 156.257 478.496C156.365 478.496 156.461 478.496 156.545 478.496C156.629 478.496 156.701 478.502 156.761 478.514V480.296ZM171.33 477.002H167.082V488H165.048V477.002H160.782V475.22H171.33V477.002ZM181.234 488H179.254V482.726C179.254 481.874 179.098 481.238 178.786 480.818C178.474 480.398 178.036 480.188 177.472 480.188C177.112 480.188 176.746 480.284 176.374 480.476C176.014 480.668 175.69 480.932 175.402 481.268C175.114 481.592 174.904 481.97 174.772 482.402V488H172.792V474.86H174.772V480.476C175.132 479.828 175.624 479.324 176.248 478.964C176.872 478.604 177.544 478.424 178.264 478.424C179.044 478.424 179.65 478.604 180.082 478.964C180.514 479.312 180.814 479.78 180.982 480.368C181.15 480.944 181.234 481.574 181.234 482.258V488ZM182.848 485.246C182.848 484.646 183.016 484.124 183.352 483.68C183.688 483.224 184.156 482.876 184.756 482.636C185.368 482.384 186.07 482.258 186.862 482.258C187.282 482.258 187.708 482.294 188.14 482.366C188.584 482.426 188.974 482.516 189.31 482.636V482.042C189.31 481.382 189.112 480.866 188.716 480.494C188.32 480.122 187.75 479.936 187.006 479.936C186.49 479.936 185.992 480.026 185.512 480.206C185.032 480.386 184.534 480.65 184.018 480.998L183.352 479.666C183.976 479.258 184.6 478.952 185.224 478.748C185.86 478.532 186.526 478.424 187.222 478.424C188.482 478.424 189.472 478.76 190.192 479.432C190.924 480.092 191.29 481.034 191.29 482.258V485.768C191.29 485.996 191.326 486.158 191.398 486.254C191.482 486.35 191.62 486.404 191.812 486.416V488C191.632 488.036 191.47 488.06 191.326 488.072C191.182 488.084 191.062 488.09 190.966 488.09C190.534 488.09 190.21 487.988 189.994 487.784C189.79 487.568 189.67 487.328 189.634 487.064L189.58 486.524C189.172 487.052 188.65 487.46 188.014 487.748C187.378 488.036 186.736 488.18 186.088 488.18C185.464 488.18 184.906 488.054 184.414 487.802C183.922 487.538 183.538 487.184 183.262 486.74C182.986 486.296 182.848 485.798 182.848 485.246ZM188.842 485.822C189.154 485.51 189.31 485.216 189.31 484.94V483.86C188.602 483.596 187.882 483.464 187.15 483.464C186.43 483.464 185.842 483.614 185.386 483.914C184.942 484.202 184.72 484.592 184.72 485.084C184.72 485.492 184.882 485.87 185.206 486.218C185.542 486.554 186.022 486.722 186.646 486.722C187.066 486.722 187.474 486.638 187.87 486.47C188.266 486.302 188.59 486.086 188.842 485.822ZM198.86 487.514C198.608 487.634 198.26 487.772 197.816 487.928C197.372 488.072 196.898 488.144 196.394 488.144C195.77 488.144 195.23 487.976 194.774 487.64C194.33 487.304 194.108 486.758 194.108 486.002V480.116H192.866V478.586H194.108V475.49H196.088V478.586H198.14V480.116H196.088V485.372C196.112 485.708 196.214 485.954 196.394 486.11C196.586 486.254 196.82 486.326 197.096 486.326C197.372 486.326 197.636 486.278 197.888 486.182C198.14 486.086 198.326 486.008 198.446 485.948L198.86 487.514ZM204.93 488V475.22H206.946V488H204.93ZM212.843 488.18C212.051 488.18 211.301 488.048 210.593 487.784C209.885 487.52 209.279 487.136 208.775 486.632L209.513 485.3C210.053 485.78 210.593 486.128 211.133 486.344C211.673 486.56 212.219 486.668 212.771 486.668C213.323 486.668 213.773 486.566 214.121 486.362C214.469 486.146 214.643 485.834 214.643 485.426C214.643 485.138 214.553 484.916 214.373 484.76C214.193 484.604 213.929 484.478 213.581 484.382C213.245 484.286 212.837 484.166 212.357 484.022C211.685 483.818 211.121 483.608 210.665 483.392C210.209 483.164 209.867 482.888 209.639 482.564C209.411 482.24 209.297 481.826 209.297 481.322C209.297 480.41 209.639 479.702 210.323 479.198C211.007 478.682 211.901 478.424 213.005 478.424C213.689 478.424 214.319 478.532 214.895 478.748C215.483 478.952 215.999 479.276 216.443 479.72L215.597 481.034C214.781 480.29 213.881 479.918 212.897 479.918C212.465 479.918 212.063 480.002 211.691 480.17C211.331 480.338 211.151 480.65 211.151 481.106C211.151 481.49 211.313 481.766 211.637 481.934C211.961 482.102 212.441 482.282 213.077 482.474C213.797 482.69 214.415 482.906 214.931 483.122C215.459 483.326 215.861 483.596 216.137 483.932C216.425 484.256 216.569 484.706 216.569 485.282C216.569 486.194 216.227 486.908 215.543 487.424C214.859 487.928 213.959 488.18 212.843 488.18ZM230.596 478.226C230.44 478.046 230.182 477.86 229.822 477.668C229.474 477.464 229.066 477.29 228.598 477.146C228.13 477.002 227.644 476.93 227.14 476.93C226.288 476.93 225.658 477.086 225.25 477.398C224.854 477.71 224.656 478.142 224.656 478.694C224.656 479.102 224.77 479.426 224.998 479.666C225.226 479.894 225.574 480.092 226.042 480.26C226.51 480.416 227.098 480.578 227.806 480.746C228.67 480.95 229.414 481.196 230.038 481.484C230.674 481.76 231.16 482.132 231.496 482.6C231.844 483.068 232.018 483.686 232.018 484.454C232.018 485.33 231.808 486.038 231.388 486.578C230.968 487.118 230.398 487.514 229.678 487.766C228.97 488.006 228.19 488.126 227.338 488.126C226.366 488.126 225.424 487.976 224.512 487.676C223.6 487.376 222.784 486.95 222.064 486.398L222.982 484.67C223.186 484.874 223.51 485.108 223.954 485.372C224.398 485.624 224.914 485.846 225.502 486.038C226.102 486.218 226.726 486.308 227.374 486.308C228.166 486.308 228.778 486.17 229.21 485.894C229.642 485.606 229.858 485.198 229.858 484.67C229.858 484.238 229.714 483.896 229.426 483.644C229.15 483.38 228.748 483.164 228.22 482.996C227.704 482.816 227.08 482.63 226.348 482.438C225.508 482.222 224.806 481.976 224.242 481.7C223.678 481.424 223.252 481.076 222.964 480.656C222.688 480.236 222.55 479.69 222.55 479.018C222.55 478.178 222.754 477.47 223.162 476.894C223.57 476.306 224.122 475.868 224.818 475.58C225.526 475.28 226.318 475.13 227.194 475.13C228.058 475.13 228.856 475.268 229.588 475.544C230.32 475.82 230.962 476.162 231.514 476.57L230.596 478.226ZM233.086 485.246C233.086 484.646 233.254 484.124 233.59 483.68C233.926 483.224 234.394 482.876 234.994 482.636C235.606 482.384 236.308 482.258 237.1 482.258C237.52 482.258 237.946 482.294 238.378 482.366C238.822 482.426 239.212 482.516 239.548 482.636V482.042C239.548 481.382 239.35 480.866 238.954 480.494C238.558 480.122 237.988 479.936 237.244 479.936C236.728 479.936 236.23 480.026 235.75 480.206C235.27 480.386 234.772 480.65 234.256 480.998L233.59 479.666C234.214 479.258 234.838 478.952 235.462 478.748C236.098 478.532 236.764 478.424 237.46 478.424C238.72 478.424 239.71 478.76 240.43 479.432C241.162 480.092 241.528 481.034 241.528 482.258V485.768C241.528 485.996 241.564 486.158 241.636 486.254C241.72 486.35 241.858 486.404 242.05 486.416V488C241.87 488.036 241.708 488.06 241.564 488.072C241.42 488.084 241.3 488.09 241.204 488.09C240.772 488.09 240.448 487.988 240.232 487.784C240.028 487.568 239.908 487.328 239.872 487.064L239.818 486.524C239.41 487.052 238.888 487.46 238.252 487.748C237.616 488.036 236.974 488.18 236.326 488.18C235.702 488.18 235.144 488.054 234.652 487.802C234.16 487.538 233.776 487.184 233.5 486.74C233.224 486.296 233.086 485.798 233.086 485.246ZM239.08 485.822C239.392 485.51 239.548 485.216 239.548 484.94V483.86C238.84 483.596 238.12 483.464 237.388 483.464C236.668 483.464 236.08 483.614 235.624 483.914C235.18 484.202 234.958 484.592 234.958 485.084C234.958 485.492 235.12 485.87 235.444 486.218C235.78 486.554 236.26 486.722 236.884 486.722C237.304 486.722 237.712 486.638 238.108 486.47C238.504 486.302 238.828 486.086 239.08 485.822ZM244.417 488V480.35H243.157V478.82H244.417V478.442C244.417 477.29 244.687 476.378 245.227 475.706C245.779 475.022 246.511 474.68 247.423 474.68C248.191 474.68 248.923 474.872 249.619 475.256L249.187 476.732C249.007 476.624 248.791 476.534 248.539 476.462C248.299 476.39 248.065 476.354 247.837 476.354C247.369 476.354 247.009 476.528 246.757 476.876C246.517 477.224 246.397 477.728 246.397 478.388V478.82H248.809V480.35H246.397V488H244.417ZM254.401 488.18C253.429 488.18 252.577 487.958 251.845 487.514C251.113 487.07 250.543 486.482 250.135 485.75C249.727 485.006 249.523 484.196 249.523 483.32C249.523 482.432 249.727 481.616 250.135 480.872C250.543 480.128 251.113 479.534 251.845 479.09C252.577 478.646 253.435 478.424 254.419 478.424C255.403 478.424 256.255 478.652 256.975 479.108C257.695 479.552 258.247 480.14 258.631 480.872C259.027 481.604 259.225 482.39 259.225 483.23C259.225 483.53 259.207 483.77 259.171 483.95H251.629C251.665 484.502 251.815 484.988 252.079 485.408C252.355 485.816 252.697 486.14 253.105 486.38C253.525 486.608 253.981 486.722 254.473 486.722C255.001 486.722 255.499 486.59 255.967 486.326C256.435 486.062 256.759 485.714 256.939 485.282L258.631 485.768C258.307 486.476 257.767 487.058 257.011 487.514C256.267 487.958 255.397 488.18 254.401 488.18ZM251.575 482.636H257.263C257.215 482.096 257.059 481.622 256.795 481.214C256.531 480.794 256.189 480.47 255.769 480.242C255.361 480.002 254.905 479.882 254.401 479.882C253.909 479.882 253.453 480.002 253.033 480.242C252.625 480.47 252.289 480.794 252.025 481.214C251.761 481.622 251.611 482.096 251.575 482.636Z" fill="#FF2E63"/>
<path d="M88.488 509.64L92.2 515.752L95.944 509.64H97.16L92.76 516.776V521H91.64V516.744L87.256 509.64H88.488ZM100.705 521.16C99.9051 521.16 99.1905 520.963 98.5611 520.568C97.9425 520.173 97.4571 519.651 97.1051 519C96.7531 518.339 96.5771 517.624 96.5771 516.856C96.5771 516.077 96.7531 515.363 97.1051 514.712C97.4678 514.051 97.9585 513.523 98.5771 513.128C99.2065 512.723 99.9158 512.52 100.705 512.52C101.505 512.52 102.214 512.723 102.833 513.128C103.462 513.523 103.953 514.051 104.305 514.712C104.668 515.363 104.849 516.077 104.849 516.856C104.849 517.624 104.673 518.339 104.321 519C103.969 519.651 103.478 520.173 102.849 520.568C102.23 520.963 101.516 521.16 100.705 521.16ZM97.6811 516.872C97.6811 517.491 97.8145 518.056 98.0811 518.568C98.3585 519.069 98.7265 519.469 99.1851 519.768C99.6438 520.056 100.15 520.2 100.705 520.2C101.26 520.2 101.766 520.051 102.225 519.752C102.684 519.453 103.052 519.048 103.329 518.536C103.606 518.024 103.745 517.459 103.745 516.84C103.745 516.221 103.606 515.656 103.329 515.144C103.052 514.632 102.684 514.227 102.225 513.928C101.766 513.629 101.26 513.48 100.705 513.48C100.161 513.48 99.6598 513.635 99.2011 513.944C98.7425 514.243 98.3745 514.648 98.0971 515.16C97.8198 515.672 97.6811 516.243 97.6811 516.872ZM106.589 517.56V512.664H107.677V517.368C107.677 519.256 108.322 520.2 109.613 520.2C110.253 520.2 110.85 519.992 111.405 519.576C111.97 519.16 112.375 518.605 112.621 517.912V512.664H113.709V519.688C113.709 519.976 113.837 520.125 114.093 520.136V521C113.965 521.021 113.863 521.032 113.789 521.032C113.725 521.032 113.655 521.032 113.581 521.032C113.357 521.011 113.165 520.925 113.005 520.776C112.855 520.627 112.781 520.445 112.781 520.232L112.749 519.112C112.386 519.763 111.89 520.269 111.261 520.632C110.642 520.984 109.97 521.16 109.245 521.16C107.474 521.16 106.589 519.96 106.589 517.56ZM127.255 521H126.167V516.344C126.167 514.456 125.527 513.512 124.247 513.512C123.831 513.512 123.426 513.619 123.031 513.832C122.636 514.035 122.284 514.317 121.975 514.68C121.676 515.032 121.463 515.437 121.335 515.896V521H120.247V509.32H121.335V514.552C121.666 513.933 122.124 513.443 122.711 513.08C123.308 512.707 123.943 512.52 124.615 512.52C125.255 512.52 125.767 512.675 126.151 512.984C126.535 513.283 126.812 513.704 126.983 514.248C127.164 514.781 127.255 515.405 127.255 516.12V521ZM128.903 518.6C128.903 518.088 129.052 517.645 129.351 517.272C129.65 516.888 130.06 516.589 130.583 516.376C131.116 516.163 131.73 516.056 132.423 516.056C132.828 516.056 133.25 516.093 133.687 516.168C134.124 516.232 134.514 516.323 134.855 516.44V515.736C134.855 515.032 134.647 514.472 134.231 514.056C133.815 513.64 133.239 513.432 132.503 513.432C132.066 513.432 131.628 513.517 131.191 513.688C130.754 513.848 130.3 514.088 129.831 514.408L129.415 513.64C129.959 513.267 130.492 512.989 131.015 512.808C131.538 512.616 132.071 512.52 132.615 512.52C133.639 512.52 134.45 512.813 135.047 513.4C135.644 513.987 135.943 514.797 135.943 515.832V519.688C135.943 519.976 136.076 520.125 136.343 520.136V521C136.108 521.032 135.943 521.043 135.847 521.032C135.58 521.021 135.378 520.936 135.239 520.776C135.1 520.616 135.026 520.445 135.015 520.264L134.999 519.656C134.626 520.136 134.14 520.509 133.543 520.776C132.946 521.032 132.338 521.16 131.719 521.16C131.175 521.16 130.69 521.048 130.263 520.824C129.836 520.589 129.5 520.28 129.255 519.896C129.02 519.501 128.903 519.069 128.903 518.6ZM134.487 519.24C134.732 518.952 134.855 518.685 134.855 518.44V517.224C134.119 516.936 133.351 516.792 132.551 516.792C131.772 516.792 131.143 516.947 130.663 517.256C130.183 517.565 129.943 517.987 129.943 518.52C129.943 518.979 130.119 519.395 130.471 519.768C130.834 520.141 131.335 520.328 131.975 520.328C132.498 520.328 132.983 520.227 133.431 520.024C133.89 519.821 134.242 519.56 134.487 519.24ZM140.524 521L137.148 512.664H138.284L141.132 519.912L143.996 512.664H145.068L141.692 521H140.524ZM149.894 521.16C149.094 521.16 148.379 520.963 147.75 520.568C147.12 520.173 146.624 519.645 146.262 518.984C145.899 518.323 145.718 517.597 145.718 516.808C145.718 516.029 145.894 515.315 146.246 514.664C146.608 514.013 147.104 513.496 147.734 513.112C148.363 512.717 149.078 512.52 149.878 512.52C150.699 512.52 151.419 512.717 152.038 513.112C152.656 513.507 153.136 514.029 153.478 514.68C153.83 515.32 154.006 516.024 154.006 516.792C154.006 516.963 154 517.107 153.99 517.224H146.854C146.907 517.821 147.078 518.355 147.366 518.824C147.654 519.283 148.022 519.651 148.47 519.928C148.918 520.195 149.408 520.328 149.942 520.328C150.486 520.328 150.998 520.189 151.478 519.912C151.958 519.635 152.299 519.272 152.502 518.824L153.446 519.08C153.275 519.485 153.008 519.848 152.646 520.168C152.294 520.477 151.883 520.723 151.414 520.904C150.944 521.075 150.438 521.16 149.894 521.16ZM146.822 516.44H152.982C152.939 515.843 152.774 515.315 152.486 514.856C152.198 514.387 151.83 514.024 151.382 513.768C150.934 513.501 150.438 513.368 149.894 513.368C149.35 513.368 148.854 513.501 148.406 513.768C147.958 514.024 147.59 514.387 147.302 514.856C147.024 515.315 146.864 515.843 146.822 516.44ZM166.771 521H165.683V516.344C165.683 515.363 165.533 514.648 165.235 514.2C164.947 513.741 164.499 513.512 163.891 513.512C163.464 513.512 163.043 513.619 162.627 513.832C162.211 514.035 161.843 514.317 161.523 514.68C161.213 515.032 160.989 515.437 160.851 515.896V521H159.763V512.664H160.755V514.552C161.085 513.944 161.571 513.453 162.211 513.08C162.851 512.707 163.544 512.52 164.291 512.52C164.909 512.52 165.4 512.669 165.763 512.968C166.125 513.256 166.381 513.672 166.531 514.216C166.691 514.749 166.771 515.384 166.771 516.12V521ZM172.643 521.16C171.843 521.16 171.128 520.963 170.499 520.568C169.88 520.173 169.395 519.651 169.043 519C168.691 518.339 168.515 517.624 168.515 516.856C168.515 516.077 168.691 515.363 169.043 514.712C169.405 514.051 169.896 513.523 170.515 513.128C171.144 512.723 171.853 512.52 172.643 512.52C173.443 512.52 174.152 512.723 174.771 513.128C175.4 513.523 175.891 514.051 176.243 514.712C176.605 515.363 176.787 516.077 176.787 516.856C176.787 517.624 176.611 518.339 176.259 519C175.907 519.651 175.416 520.173 174.787 520.568C174.168 520.963 173.453 521.16 172.643 521.16ZM169.619 516.872C169.619 517.491 169.752 518.056 170.019 518.568C170.296 519.069 170.664 519.469 171.123 519.768C171.581 520.056 172.088 520.2 172.643 520.2C173.197 520.2 173.704 520.051 174.163 519.752C174.621 519.453 174.989 519.048 175.267 518.536C175.544 518.024 175.683 517.459 175.683 516.84C175.683 516.221 175.544 515.656 175.267 515.144C174.989 514.632 174.621 514.227 174.163 513.928C173.704 513.629 173.197 513.48 172.643 513.48C172.099 513.48 171.597 513.635 171.139 513.944C170.68 514.243 170.312 514.648 170.035 515.16C169.757 515.672 169.619 516.243 169.619 516.872ZM182.481 520.6C182.353 520.653 182.119 520.749 181.777 520.888C181.436 521.027 181.041 521.096 180.593 521.096C180.124 521.096 179.713 520.963 179.361 520.696C179.009 520.429 178.833 520.029 178.833 519.496V513.528H177.681V512.664H178.833V509.848H179.921V512.664H181.841V513.528H179.921V519.192C179.943 519.501 180.049 519.731 180.241 519.88C180.444 520.019 180.673 520.088 180.929 520.088C181.228 520.088 181.495 520.04 181.729 519.944C181.975 519.837 182.129 519.763 182.193 519.72L182.481 520.6ZM190.849 521H189.761V516.344C189.761 514.456 189.121 513.512 187.841 513.512C187.425 513.512 187.019 513.619 186.625 513.832C186.23 514.035 185.878 514.317 185.569 514.68C185.27 515.032 185.057 515.437 184.929 515.896V521H183.841V509.32H184.929V514.552C185.259 513.933 185.718 513.443 186.305 513.08C186.902 512.707 187.537 512.52 188.209 512.52C188.849 512.52 189.361 512.675 189.745 512.984C190.129 513.283 190.406 513.704 190.577 514.248C190.758 514.781 190.849 515.405 190.849 516.12V521ZM193.169 510.92V509.32H194.257V510.92H193.169ZM193.169 521V512.664H194.257V521H193.169ZM203.661 521H202.573V516.344C202.573 515.363 202.424 514.648 202.125 514.2C201.837 513.741 201.389 513.512 200.781 513.512C200.354 513.512 199.933 513.619 199.517 513.832C199.101 514.035 198.733 514.317 198.413 514.68C198.104 515.032 197.88 515.437 197.741 515.896V521H196.653V512.664H197.645V514.552C197.976 513.944 198.461 513.453 199.101 513.08C199.741 512.707 200.434 512.52 201.181 512.52C201.8 512.52 202.29 512.669 202.653 512.968C203.016 513.256 203.272 513.672 203.421 514.216C203.581 514.749 203.661 515.384 203.661 516.12V521ZM209.325 521.112C208.749 521.112 208.221 520.995 207.741 520.76C207.272 520.525 206.861 520.211 206.509 519.816C206.168 519.411 205.901 518.952 205.709 518.44C205.517 517.928 205.421 517.4 205.421 516.856C205.421 516.077 205.587 515.363 205.917 514.712C206.248 514.051 206.701 513.523 207.277 513.128C207.864 512.723 208.536 512.52 209.293 512.52C210.008 512.52 210.627 512.701 211.149 513.064C211.683 513.427 212.131 513.875 212.493 514.408V512.664H213.469V521.032C213.469 521.811 213.283 522.461 212.909 522.984C212.536 523.507 212.04 523.901 211.421 524.168C210.803 524.435 210.125 524.568 209.389 524.568C208.429 524.568 207.656 524.397 207.069 524.056C206.493 523.715 206.019 523.256 205.645 522.68L206.317 522.152C206.648 522.675 207.085 523.064 207.629 523.32C208.184 523.576 208.771 523.704 209.389 523.704C209.933 523.704 210.429 523.603 210.877 523.4C211.336 523.208 211.699 522.915 211.965 522.52C212.243 522.125 212.381 521.629 212.381 521.032V519.384C212.061 519.907 211.624 520.328 211.069 520.648C210.515 520.957 209.933 521.112 209.325 521.112ZM209.629 520.2C210.067 520.2 210.483 520.099 210.877 519.896C211.272 519.693 211.603 519.437 211.869 519.128C212.147 518.808 212.317 518.477 212.381 518.136V515.56C212.221 515.155 211.992 514.797 211.693 514.488C211.395 514.168 211.053 513.923 210.669 513.752C210.285 513.571 209.896 513.48 209.501 513.48C208.883 513.48 208.349 513.651 207.901 513.992C207.464 514.323 207.123 514.749 206.877 515.272C206.643 515.784 206.525 516.317 206.525 516.872C206.525 517.469 206.664 518.024 206.941 518.536C207.219 519.037 207.592 519.443 208.061 519.752C208.531 520.051 209.053 520.2 209.629 520.2ZM223.95 520.6C223.822 520.653 223.587 520.749 223.246 520.888C222.905 521.027 222.51 521.096 222.062 521.096C221.593 521.096 221.182 520.963 220.83 520.696C220.478 520.429 220.302 520.029 220.302 519.496V513.528H219.15V512.664H220.302V509.848H221.39V512.664H223.31V513.528H221.39V519.192C221.411 519.501 221.518 519.731 221.71 519.88C221.913 520.019 222.142 520.088 222.398 520.088C222.697 520.088 222.963 520.04 223.198 519.944C223.443 519.837 223.598 519.763 223.662 519.72L223.95 520.6ZM228.721 521.16C227.921 521.16 227.206 520.963 226.577 520.568C225.958 520.173 225.473 519.651 225.121 519C224.769 518.339 224.593 517.624 224.593 516.856C224.593 516.077 224.769 515.363 225.121 514.712C225.483 514.051 225.974 513.523 226.593 513.128C227.222 512.723 227.931 512.52 228.721 512.52C229.521 512.52 230.23 512.723 230.849 513.128C231.478 513.523 231.969 514.051 232.321 514.712C232.683 515.363 232.865 516.077 232.865 516.856C232.865 517.624 232.689 518.339 232.337 519C231.985 519.651 231.494 520.173 230.865 520.568C230.246 520.963 229.531 521.16 228.721 521.16ZM225.697 516.872C225.697 517.491 225.83 518.056 226.097 518.568C226.374 519.069 226.742 519.469 227.201 519.768C227.659 520.056 228.166 520.2 228.721 520.2C229.275 520.2 229.782 520.051 230.241 519.752C230.699 519.453 231.067 519.048 231.345 518.536C231.622 518.024 231.761 517.459 231.761 516.84C231.761 516.221 231.622 515.656 231.345 515.144C231.067 514.632 230.699 514.227 230.241 513.928C229.782 513.629 229.275 513.48 228.721 513.48C228.177 513.48 227.675 513.635 227.217 513.944C226.758 514.243 226.39 514.648 226.113 515.16C225.835 515.672 225.697 516.243 225.697 516.872ZM242.843 521.16C242.192 521.16 241.589 520.995 241.035 520.664C240.48 520.323 240.048 519.896 239.739 519.384V521H238.763V509.32H239.851V514.408C240.224 513.843 240.672 513.389 241.195 513.048C241.717 512.696 242.325 512.52 243.019 512.52C243.605 512.52 244.128 512.643 244.587 512.888C245.056 513.133 245.456 513.464 245.786 513.88C246.117 514.285 246.368 514.749 246.539 515.272C246.709 515.784 246.795 516.312 246.795 516.856C246.795 517.635 246.619 518.349 246.267 519C245.925 519.651 245.456 520.173 244.859 520.568C244.261 520.963 243.589 521.16 242.843 521.16ZM242.587 520.2C243.195 520.2 243.728 520.04 244.187 519.72C244.656 519.4 245.024 518.989 245.291 518.488C245.557 517.976 245.691 517.432 245.691 516.856C245.691 516.269 245.563 515.72 245.307 515.208C245.061 514.696 244.715 514.28 244.267 513.96C243.819 513.64 243.301 513.48 242.715 513.48C242.064 513.48 241.488 513.688 240.987 514.104C240.496 514.52 240.117 515.005 239.851 515.56V518.152C239.904 518.536 240.08 518.883 240.379 519.192C240.677 519.501 241.029 519.747 241.435 519.928C241.84 520.109 242.224 520.2 242.587 520.2ZM252.238 521.16C251.438 521.16 250.723 520.963 250.094 520.568C249.464 520.173 248.968 519.645 248.606 518.984C248.243 518.323 248.062 517.597 248.062 516.808C248.062 516.029 248.238 515.315 248.59 514.664C248.952 514.013 249.448 513.496 250.078 513.112C250.707 512.717 251.422 512.52 252.222 512.52C253.043 512.52 253.763 512.717 254.382 513.112C255 513.507 255.48 514.029 255.822 514.68C256.174 515.32 256.35 516.024 256.35 516.792C256.35 516.963 256.344 517.107 256.334 517.224H249.198C249.251 517.821 249.422 518.355 249.71 518.824C249.998 519.283 250.366 519.651 250.814 519.928C251.262 520.195 251.752 520.328 252.286 520.328C252.83 520.328 253.342 520.189 253.822 519.912C254.302 519.635 254.643 519.272 254.846 518.824L255.79 519.08C255.619 519.485 255.352 519.848 254.99 520.168C254.638 520.477 254.227 520.723 253.758 520.904C253.288 521.075 252.782 521.16 252.238 521.16ZM249.166 516.44H255.326C255.283 515.843 255.118 515.315 254.83 514.856C254.542 514.387 254.174 514.024 253.726 513.768C253.278 513.501 252.782 513.368 252.238 513.368C251.694 513.368 251.198 513.501 250.75 513.768C250.302 514.024 249.934 514.387 249.646 514.856C249.368 515.315 249.208 515.843 249.166 516.44ZM264.842 521.16C264.16 521.16 263.525 521.048 262.938 520.824C262.362 520.589 261.856 520.248 261.418 519.8L261.866 519.032C262.336 519.469 262.805 519.789 263.274 519.992C263.754 520.184 264.261 520.28 264.794 520.28C265.434 520.28 265.957 520.152 266.362 519.896C266.778 519.629 266.986 519.251 266.986 518.76C266.986 518.429 266.885 518.179 266.682 518.008C266.49 517.827 266.208 517.683 265.834 517.576C265.472 517.469 265.034 517.347 264.522 517.208C263.946 517.048 263.461 516.883 263.066 516.712C262.682 516.531 262.389 516.307 262.186 516.04C261.994 515.763 261.898 515.405 261.898 514.968C261.898 514.435 262.032 513.987 262.298 513.624C262.576 513.261 262.949 512.989 263.418 512.808C263.898 512.616 264.432 512.52 265.018 512.52C265.658 512.52 266.224 512.621 266.714 512.824C267.205 513.027 267.605 513.309 267.914 513.672L267.386 514.408C267.098 514.067 266.741 513.816 266.314 513.656C265.898 513.485 265.445 513.4 264.954 513.4C264.613 513.4 264.288 513.448 263.978 513.544C263.669 513.629 263.413 513.779 263.21 513.992C263.018 514.195 262.922 514.477 262.922 514.84C262.922 515.288 263.088 515.597 263.418 515.768C263.749 515.939 264.25 516.12 264.922 516.312C265.552 516.483 266.101 516.653 266.57 516.824C267.04 516.995 267.402 517.224 267.658 517.512C267.914 517.789 268.042 518.179 268.042 518.68C268.042 519.459 267.749 520.067 267.162 520.504C266.576 520.941 265.802 521.16 264.842 521.16ZM273.457 521.16C272.646 521.16 271.926 520.963 271.297 520.568C270.667 520.163 270.171 519.635 269.809 518.984C269.446 518.323 269.265 517.597 269.265 516.808C269.265 516.019 269.441 515.304 269.793 514.664C270.145 514.013 270.635 513.496 271.265 513.112C271.894 512.717 272.619 512.52 273.441 512.52C274.219 512.52 274.902 512.701 275.489 513.064C276.086 513.416 276.534 513.896 276.833 514.504L275.777 514.84C275.542 514.413 275.211 514.083 274.785 513.848C274.369 513.603 273.905 513.48 273.393 513.48C272.827 513.48 272.315 513.624 271.857 513.912C271.409 514.2 271.046 514.6 270.769 515.112C270.502 515.613 270.369 516.179 270.369 516.808C270.369 517.437 270.507 518.008 270.785 518.52C271.062 519.032 271.43 519.443 271.889 519.752C272.347 520.051 272.854 520.2 273.409 520.2C273.771 520.2 274.123 520.136 274.465 520.008C274.806 519.88 275.099 519.709 275.345 519.496C275.59 519.272 275.755 519.032 275.841 518.776L276.913 519.096C276.763 519.491 276.518 519.848 276.177 520.168C275.835 520.477 275.43 520.723 274.961 520.904C274.491 521.075 273.99 521.16 273.457 521.16ZM277.95 518.6C277.95 518.088 278.099 517.645 278.398 517.272C278.697 516.888 279.107 516.589 279.63 516.376C280.163 516.163 280.777 516.056 281.47 516.056C281.875 516.056 282.297 516.093 282.734 516.168C283.171 516.232 283.561 516.323 283.902 516.44V515.736C283.902 515.032 283.694 514.472 283.278 514.056C282.862 513.64 282.286 513.432 281.55 513.432C281.113 513.432 280.675 513.517 280.238 513.688C279.801 513.848 279.347 514.088 278.878 514.408L278.462 513.64C279.006 513.267 279.539 512.989 280.062 512.808C280.585 512.616 281.118 512.52 281.662 512.52C282.686 512.52 283.497 512.813 284.094 513.4C284.691 513.987 284.99 514.797 284.99 515.832V519.688C284.99 519.976 285.123 520.125 285.39 520.136V521C285.155 521.032 284.99 521.043 284.894 521.032C284.627 521.021 284.425 520.936 284.286 520.776C284.147 520.616 284.073 520.445 284.062 520.264L284.046 519.656C283.673 520.136 283.187 520.509 282.59 520.776C281.993 521.032 281.385 521.16 280.766 521.16C280.222 521.16 279.737 521.048 279.31 520.824C278.883 520.589 278.547 520.28 278.302 519.896C278.067 519.501 277.95 519.069 277.95 518.6ZM283.534 519.24C283.779 518.952 283.902 518.685 283.902 518.44V517.224C283.166 516.936 282.398 516.792 281.598 516.792C280.819 516.792 280.19 516.947 279.71 517.256C279.23 517.565 278.99 517.987 278.99 518.52C278.99 518.979 279.166 519.395 279.518 519.768C279.881 520.141 280.382 520.328 281.022 520.328C281.545 520.328 282.03 520.227 282.478 520.024C282.937 519.821 283.289 519.56 283.534 519.24ZM291.501 513.624C290.775 513.645 290.135 513.848 289.581 514.232C289.037 514.616 288.653 515.144 288.429 515.816V521H287.341V512.664H288.365V514.664C288.653 514.077 289.031 513.603 289.501 513.24C289.981 512.877 290.487 512.675 291.021 512.632C291.127 512.621 291.218 512.616 291.293 512.616C291.367 512.616 291.437 512.621 291.501 512.632V513.624ZM296.3 521.16C295.5 521.16 294.785 520.963 294.156 520.568C293.527 520.173 293.031 519.645 292.668 518.984C292.305 518.323 292.124 517.597 292.124 516.808C292.124 516.029 292.3 515.315 292.652 514.664C293.015 514.013 293.511 513.496 294.14 513.112C294.769 512.717 295.484 512.52 296.284 512.52C297.105 512.52 297.825 512.717 298.444 513.112C299.063 513.507 299.543 514.029 299.884 514.68C300.236 515.32 300.412 516.024 300.412 516.792C300.412 516.963 300.407 517.107 300.396 517.224H293.26C293.313 517.821 293.484 518.355 293.772 518.824C294.06 519.283 294.428 519.651 294.876 519.928C295.324 520.195 295.815 520.328 296.348 520.328C296.892 520.328 297.404 520.189 297.884 519.912C298.364 519.635 298.705 519.272 298.908 518.824L299.852 519.08C299.681 519.485 299.415 519.848 299.052 520.168C298.7 520.477 298.289 520.723 297.82 520.904C297.351 521.075 296.844 521.16 296.3 521.16ZM293.228 516.44H299.388C299.345 515.843 299.18 515.315 298.892 514.856C298.604 514.387 298.236 514.024 297.788 513.768C297.34 513.501 296.844 513.368 296.3 513.368C295.756 513.368 295.26 513.501 294.812 513.768C294.364 514.024 293.996 514.387 293.708 514.856C293.431 515.315 293.271 515.843 293.228 516.44ZM301.531 516.856C301.531 516.067 301.691 515.347 302.011 514.696C302.341 514.035 302.795 513.507 303.371 513.112C303.947 512.717 304.603 512.52 305.339 512.52C306.032 512.52 306.651 512.707 307.195 513.08C307.749 513.443 308.181 513.885 308.491 514.408V509.32H309.579V519.688C309.579 519.976 309.707 520.125 309.963 520.136V521C309.749 521.032 309.584 521.043 309.467 521.032C309.232 521.021 309.029 520.936 308.859 520.776C308.699 520.605 308.619 520.413 308.619 520.2V519.384C308.288 519.928 307.84 520.36 307.275 520.68C306.709 521 306.123 521.16 305.515 521.16C304.939 521.16 304.405 521.043 303.915 520.808C303.424 520.573 302.997 520.253 302.635 519.848C302.283 519.443 302.011 518.984 301.819 518.472C301.627 517.949 301.531 517.411 301.531 516.856ZM308.491 518.136V515.56C308.352 515.176 308.128 514.829 307.819 514.52C307.509 514.2 307.157 513.949 306.763 513.768C306.379 513.576 305.995 513.48 305.611 513.48C305.013 513.48 304.491 513.645 304.043 513.976C303.605 514.296 303.264 514.717 303.019 515.24C302.773 515.752 302.651 516.291 302.651 516.856C302.651 517.453 302.784 518.008 303.051 518.52C303.328 519.032 303.701 519.443 304.171 519.752C304.64 520.051 305.168 520.2 305.755 520.2C306.117 520.2 306.496 520.109 306.891 519.928C307.296 519.736 307.648 519.485 307.947 519.176C308.256 518.867 308.437 518.52 308.491 518.136ZM87.528 542.6C87.528 542.088 87.6773 541.645 87.976 541.272C88.2747 540.888 88.6853 540.589 89.208 540.376C89.7413 540.163 90.3547 540.056 91.048 540.056C91.4533 540.056 91.8747 540.093 92.312 540.168C92.7493 540.232 93.1387 540.323 93.48 540.44V539.736C93.48 539.032 93.272 538.472 92.856 538.056C92.44 537.64 91.864 537.432 91.128 537.432C90.6907 537.432 90.2533 537.517 89.816 537.688C89.3787 537.848 88.9253 538.088 88.456 538.408L88.04 537.64C88.584 537.267 89.1173 536.989 89.64 536.808C90.1627 536.616 90.696 536.52 91.24 536.52C92.264 536.52 93.0747 536.813 93.672 537.4C94.2693 537.987 94.568 538.797 94.568 539.832V543.688C94.568 543.976 94.7013 544.125 94.968 544.136V545C94.7333 545.032 94.568 545.043 94.472 545.032C94.2053 545.021 94.0027 544.936 93.864 544.776C93.7253 544.616 93.6507 544.445 93.64 544.264L93.624 543.656C93.2507 544.136 92.7653 544.509 92.168 544.776C91.5707 545.032 90.9627 545.16 90.344 545.16C89.8 545.16 89.3147 545.048 88.888 544.824C88.4613 544.589 88.1253 544.28 87.88 543.896C87.6453 543.501 87.528 543.069 87.528 542.6ZM93.112 543.24C93.3573 542.952 93.48 542.685 93.48 542.44V541.224C92.744 540.936 91.976 540.792 91.176 540.792C90.3973 540.792 89.768 540.947 89.288 541.256C88.808 541.565 88.568 541.987 88.568 542.52C88.568 542.979 88.744 543.395 89.096 543.768C89.4587 544.141 89.96 544.328 90.6 544.328C91.1227 544.328 91.608 544.227 92.056 544.024C92.5147 543.821 92.8667 543.56 93.112 543.24ZM100.999 545.16C100.348 545.16 99.7454 544.995 99.1908 544.664C98.6361 544.323 98.2041 543.896 97.8948 543.384V545H96.9188V533.32H98.0068V538.408C98.3801 537.843 98.8281 537.389 99.3508 537.048C99.8734 536.696 100.481 536.52 101.175 536.52C101.761 536.52 102.284 536.643 102.743 536.888C103.212 537.133 103.612 537.464 103.943 537.88C104.273 538.285 104.524 538.749 104.695 539.272C104.865 539.784 104.951 540.312 104.951 540.856C104.951 541.635 104.775 542.349 104.423 543C104.081 543.651 103.612 544.173 103.015 544.568C102.417 544.963 101.745 545.16 100.999 545.16ZM100.743 544.2C101.351 544.2 101.884 544.04 102.343 543.72C102.812 543.4 103.18 542.989 103.447 542.488C103.713 541.976 103.847 541.432 103.847 540.856C103.847 540.269 103.719 539.72 103.463 539.208C103.217 538.696 102.871 538.28 102.423 537.96C101.975 537.64 101.457 537.48 100.871 537.48C100.22 537.48 99.6441 537.688 99.1428 538.104C98.6521 538.52 98.2734 539.005 98.0068 539.56V542.152C98.0601 542.536 98.2361 542.883 98.5348 543.192C98.8334 543.501 99.1854 543.747 99.5908 543.928C99.9961 544.109 100.38 544.2 100.743 544.2ZM110.346 545.16C109.546 545.16 108.831 544.963 108.202 544.568C107.583 544.173 107.098 543.651 106.746 543C106.394 542.339 106.218 541.624 106.218 540.856C106.218 540.077 106.394 539.363 106.746 538.712C107.108 538.051 107.599 537.523 108.218 537.128C108.847 536.723 109.556 536.52 110.346 536.52C111.146 536.52 111.855 536.723 112.474 537.128C113.103 537.523 113.594 538.051 113.946 538.712C114.308 539.363 114.49 540.077 114.49 540.856C114.49 541.624 114.314 542.339 113.962 543C113.61 543.651 113.119 544.173 112.49 544.568C111.871 544.963 111.156 545.16 110.346 545.16ZM107.322 540.872C107.322 541.491 107.455 542.056 107.722 542.568C107.999 543.069 108.367 543.469 108.826 543.768C109.284 544.056 109.791 544.2 110.346 544.2C110.9 544.2 111.407 544.051 111.866 543.752C112.324 543.453 112.692 543.048 112.97 542.536C113.247 542.024 113.386 541.459 113.386 540.84C113.386 540.221 113.247 539.656 112.97 539.144C112.692 538.632 112.324 538.227 111.866 537.928C111.407 537.629 110.9 537.48 110.346 537.48C109.802 537.48 109.3 537.635 108.842 537.944C108.383 538.243 108.015 538.648 107.738 539.16C107.46 539.672 107.322 540.243 107.322 540.872ZM116.229 541.56V536.664H117.317V541.368C117.317 543.256 117.963 544.2 119.253 544.2C119.893 544.2 120.491 543.992 121.045 543.576C121.611 543.16 122.016 542.605 122.261 541.912V536.664H123.349V543.688C123.349 543.976 123.477 544.125 123.733 544.136V545C123.605 545.021 123.504 545.032 123.429 545.032C123.365 545.032 123.296 545.032 123.221 545.032C122.997 545.011 122.805 544.925 122.645 544.776C122.496 544.627 122.421 544.445 122.421 544.232L122.389 543.112C122.027 543.763 121.531 544.269 120.901 544.632C120.283 544.984 119.611 545.16 118.885 545.16C117.115 545.16 116.229 543.96 116.229 541.56ZM129.809 544.6C129.681 544.653 129.447 544.749 129.105 544.888C128.764 545.027 128.369 545.096 127.921 545.096C127.452 545.096 127.041 544.963 126.689 544.696C126.337 544.429 126.161 544.029 126.161 543.496V537.528H125.009V536.664H126.161V533.848H127.249V536.664H129.169V537.528H127.249V543.192C127.271 543.501 127.377 543.731 127.569 543.88C127.772 544.019 128.001 544.088 128.257 544.088C128.556 544.088 128.823 544.04 129.057 543.944C129.303 543.837 129.457 543.763 129.521 543.72L129.809 544.6ZM131.345 546.296L131.617 544.952H131.249V543.432H132.305V544.952L131.905 546.296H131.345ZM148.884 536.664H149.956L146.372 545H145.428L143.684 540.856L141.956 545H141.012L137.428 536.664H138.484L141.524 543.88L143.06 540.12L141.652 536.68H142.628L143.684 539.384L144.756 536.68H145.716L144.324 540.12L145.86 543.88L148.884 536.664ZM154.722 545.16C153.922 545.16 153.207 544.963 152.578 544.568C151.949 544.173 151.453 543.645 151.09 542.984C150.727 542.323 150.546 541.597 150.546 540.808C150.546 540.029 150.722 539.315 151.074 538.664C151.437 538.013 151.933 537.496 152.562 537.112C153.191 536.717 153.906 536.52 154.706 536.52C155.527 536.52 156.247 536.717 156.866 537.112C157.485 537.507 157.965 538.029 158.306 538.68C158.658 539.32 158.834 540.024 158.834 540.792C158.834 540.963 158.829 541.107 158.818 541.224H151.682C151.735 541.821 151.906 542.355 152.194 542.824C152.482 543.283 152.85 543.651 153.298 543.928C153.746 544.195 154.237 544.328 154.77 544.328C155.314 544.328 155.826 544.189 156.306 543.912C156.786 543.635 157.127 543.272 157.33 542.824L158.274 543.08C158.103 543.485 157.837 543.848 157.474 544.168C157.122 544.477 156.711 544.723 156.242 544.904C155.773 545.075 155.266 545.16 154.722 545.16ZM151.65 540.44H157.81C157.767 539.843 157.602 539.315 157.314 538.856C157.026 538.387 156.658 538.024 156.21 537.768C155.762 537.501 155.266 537.368 154.722 537.368C154.178 537.368 153.682 537.501 153.234 537.768C152.786 538.024 152.418 538.387 152.13 538.856C151.853 539.315 151.693 539.843 151.65 540.44ZM167.935 545.112C167.359 545.112 166.831 544.995 166.351 544.76C165.881 544.525 165.471 544.211 165.119 543.816C164.777 543.411 164.511 542.952 164.319 542.44C164.127 541.928 164.031 541.4 164.031 540.856C164.031 540.077 164.196 539.363 164.527 538.712C164.857 538.051 165.311 537.523 165.887 537.128C166.473 536.723 167.145 536.52 167.903 536.52C168.617 536.52 169.236 536.701 169.759 537.064C170.292 537.427 170.74 537.875 171.103 538.408V536.664H172.079V545.032C172.079 545.811 171.892 546.461 171.519 546.984C171.145 547.507 170.649 547.901 170.031 548.168C169.412 548.435 168.735 548.568 167.999 548.568C167.039 548.568 166.265 548.397 165.679 548.056C165.103 547.715 164.628 547.256 164.255 546.68L164.927 546.152C165.257 546.675 165.695 547.064 166.239 547.32C166.793 547.576 167.38 547.704 167.999 547.704C168.543 547.704 169.039 547.603 169.487 547.4C169.945 547.208 170.308 546.915 170.575 546.52C170.852 546.125 170.991 545.629 170.991 545.032V543.384C170.671 543.907 170.233 544.328 169.679 544.648C169.124 544.957 168.543 545.112 167.935 545.112ZM168.239 544.2C168.676 544.2 169.092 544.099 169.487 543.896C169.881 543.693 170.212 543.437 170.479 543.128C170.756 542.808 170.927 542.477 170.991 542.136V539.56C170.831 539.155 170.601 538.797 170.303 538.488C170.004 538.168 169.663 537.923 169.279 537.752C168.895 537.571 168.505 537.48 168.111 537.48C167.492 537.48 166.959 537.651 166.511 537.992C166.073 538.323 165.732 538.749 165.487 539.272C165.252 539.784 165.135 540.317 165.135 540.872C165.135 541.469 165.273 542.024 165.551 542.536C165.828 543.037 166.201 543.443 166.671 543.752C167.14 544.051 167.663 544.2 168.239 544.2ZM178.033 545.16C177.233 545.16 176.519 544.963 175.889 544.568C175.271 544.173 174.785 543.651 174.433 543C174.081 542.339 173.905 541.624 173.905 540.856C173.905 540.077 174.081 539.363 174.433 538.712C174.796 538.051 175.287 537.523 175.905 537.128C176.535 536.723 177.244 536.52 178.033 536.52C178.833 536.52 179.543 536.723 180.161 537.128C180.791 537.523 181.281 538.051 181.633 538.712C181.996 539.363 182.177 540.077 182.177 540.856C182.177 541.624 182.001 542.339 181.649 543C181.297 543.651 180.807 544.173 180.177 544.568C179.559 544.963 178.844 545.16 178.033 545.16ZM175.009 540.872C175.009 541.491 175.143 542.056 175.409 542.568C175.687 543.069 176.055 543.469 176.513 543.768C176.972 544.056 177.479 544.2 178.033 544.2C178.588 544.2 179.095 544.051 179.553 543.752C180.012 543.453 180.38 543.048 180.657 542.536C180.935 542.024 181.073 541.459 181.073 540.84C181.073 540.221 180.935 539.656 180.657 539.144C180.38 538.632 180.012 538.227 179.553 537.928C179.095 537.629 178.588 537.48 178.033 537.48C177.489 537.48 176.988 537.635 176.529 537.944C176.071 538.243 175.703 538.648 175.425 539.16C175.148 539.672 175.009 540.243 175.009 540.872ZM187.872 544.6C187.744 544.653 187.509 544.749 187.168 544.888C186.827 545.027 186.432 545.096 185.984 545.096C185.515 545.096 185.104 544.963 184.752 544.696C184.4 544.429 184.224 544.029 184.224 543.496V537.528H183.072V536.664H184.224V533.848H185.312V536.664H187.232V537.528H185.312V543.192C185.333 543.501 185.44 543.731 185.632 543.88C185.835 544.019 186.064 544.088 186.32 544.088C186.619 544.088 186.885 544.04 187.12 543.944C187.365 543.837 187.52 543.763 187.584 543.72L187.872 544.6ZM193.352 547.56C193.501 547.571 193.645 547.576 193.784 547.576C193.923 547.587 194.024 547.581 194.088 547.56C194.216 547.549 194.333 547.475 194.44 547.336C194.557 547.208 194.696 546.963 194.856 546.6C195.027 546.248 195.256 545.715 195.544 545L191.912 536.664H193.064L196.12 543.88L198.936 536.664H200.024L195.704 547.416C195.587 547.725 195.389 547.992 195.112 548.216C194.835 548.44 194.467 548.557 194.008 548.568C193.912 548.579 193.811 548.579 193.704 548.568C193.597 548.568 193.48 548.557 193.352 548.536V547.56ZM204.799 545.16C203.999 545.16 203.284 544.963 202.655 544.568C202.036 544.173 201.551 543.651 201.199 543C200.847 542.339 200.671 541.624 200.671 540.856C200.671 540.077 200.847 539.363 201.199 538.712C201.562 538.051 202.052 537.523 202.671 537.128C203.3 536.723 204.01 536.52 204.799 536.52C205.599 536.52 206.308 536.723 206.927 537.128C207.556 537.523 208.047 538.051 208.399 538.712C208.762 539.363 208.943 540.077 208.943 540.856C208.943 541.624 208.767 542.339 208.415 543C208.063 543.651 207.572 544.173 206.943 544.568C206.324 544.963 205.61 545.16 204.799 545.16ZM201.775 540.872C201.775 541.491 201.908 542.056 202.175 542.568C202.452 543.069 202.82 543.469 203.279 543.768C203.738 544.056 204.244 544.2 204.799 544.2C205.354 544.2 205.86 544.051 206.319 543.752C206.778 543.453 207.146 543.048 207.423 542.536C207.7 542.024 207.839 541.459 207.839 540.84C207.839 540.221 207.7 539.656 207.423 539.144C207.146 538.632 206.778 538.227 206.319 537.928C205.86 537.629 205.354 537.48 204.799 537.48C204.255 537.48 203.754 537.635 203.295 537.944C202.836 538.243 202.468 538.648 202.191 539.16C201.914 539.672 201.775 540.243 201.775 540.872ZM210.683 541.56V536.664H211.771V541.368C211.771 543.256 212.416 544.2 213.707 544.2C214.347 544.2 214.944 543.992 215.499 543.576C216.064 543.16 216.469 542.605 216.715 541.912V536.664H217.803V543.688C217.803 543.976 217.931 544.125 218.187 544.136V545C218.059 545.021 217.957 545.032 217.883 545.032C217.819 545.032 217.749 545.032 217.675 545.032C217.451 545.011 217.259 544.925 217.099 544.776C216.949 544.627 216.875 544.445 216.875 544.232L216.843 543.112C216.48 543.763 215.984 544.269 215.355 544.632C214.736 544.984 214.064 545.16 213.339 545.16C211.568 545.16 210.683 543.96 210.683 541.56ZM227.957 545.16C227.146 545.16 226.426 544.963 225.797 544.568C225.167 544.163 224.671 543.635 224.309 542.984C223.946 542.323 223.765 541.597 223.765 540.808C223.765 540.019 223.941 539.304 224.293 538.664C224.645 538.013 225.135 537.496 225.765 537.112C226.394 536.717 227.119 536.52 227.941 536.52C228.719 536.52 229.402 536.701 229.989 537.064C230.586 537.416 231.034 537.896 231.333 538.504L230.277 538.84C230.042 538.413 229.711 538.083 229.285 537.848C228.869 537.603 228.405 537.48 227.893 537.48C227.327 537.48 226.815 537.624 226.357 537.912C225.909 538.2 225.546 538.6 225.269 539.112C225.002 539.613 224.869 540.179 224.869 540.808C224.869 541.437 225.007 542.008 225.285 542.52C225.562 543.032 225.93 543.443 226.389 543.752C226.847 544.051 227.354 544.2 227.909 544.2C228.271 544.2 228.623 544.136 228.965 544.008C229.306 543.88 229.599 543.709 229.845 543.496C230.09 543.272 230.255 543.032 230.341 542.776L231.413 543.096C231.263 543.491 231.018 543.848 230.677 544.168C230.335 544.477 229.93 544.723 229.461 544.904C228.991 545.075 228.49 545.16 227.957 545.16ZM236.596 545.16C235.796 545.16 235.081 544.963 234.452 544.568C233.833 544.173 233.348 543.651 232.996 543C232.644 542.339 232.468 541.624 232.468 540.856C232.468 540.077 232.644 539.363 232.996 538.712C233.358 538.051 233.849 537.523 234.468 537.128C235.097 536.723 235.806 536.52 236.596 536.52C237.396 536.52 238.105 536.723 238.724 537.128C239.353 537.523 239.844 538.051 240.196 538.712C240.558 539.363 240.74 540.077 240.74 540.856C240.74 541.624 240.564 542.339 240.212 543C239.86 543.651 239.369 544.173 238.74 544.568C238.121 544.963 237.406 545.16 236.596 545.16ZM233.572 540.872C233.572 541.491 233.705 542.056 233.972 542.568C234.249 543.069 234.617 543.469 235.076 543.768C235.534 544.056 236.041 544.2 236.596 544.2C237.15 544.2 237.657 544.051 238.116 543.752C238.574 543.453 238.942 543.048 239.22 542.536C239.497 542.024 239.636 541.459 239.636 540.84C239.636 540.221 239.497 539.656 239.22 539.144C238.942 538.632 238.574 538.227 238.116 537.928C237.657 537.629 237.15 537.48 236.596 537.48C236.052 537.48 235.55 537.635 235.092 537.944C234.633 538.243 234.265 538.648 233.988 539.16C233.71 539.672 233.572 540.243 233.572 540.872ZM244.758 545L241.382 536.664H242.518L245.366 543.912L248.23 536.664H249.302L245.926 545H244.758ZM254.128 545.16C253.328 545.16 252.613 544.963 251.984 544.568C251.355 544.173 250.859 543.645 250.496 542.984C250.133 542.323 249.952 541.597 249.952 540.808C249.952 540.029 250.128 539.315 250.48 538.664C250.843 538.013 251.339 537.496 251.968 537.112C252.597 536.717 253.312 536.52 254.112 536.52C254.933 536.52 255.653 536.717 256.272 537.112C256.891 537.507 257.371 538.029 257.712 538.68C258.064 539.32 258.24 540.024 258.24 540.792C258.24 540.963 258.235 541.107 258.224 541.224H251.088C251.141 541.821 251.312 542.355 251.6 542.824C251.888 543.283 252.256 543.651 252.704 543.928C253.152 544.195 253.643 544.328 254.176 544.328C254.72 544.328 255.232 544.189 255.712 543.912C256.192 543.635 256.533 543.272 256.736 542.824L257.68 543.08C257.509 543.485 257.243 543.848 256.88 544.168C256.528 544.477 256.117 544.723 255.648 544.904C255.179 545.075 254.672 545.16 254.128 545.16ZM251.056 540.44H257.216C257.173 539.843 257.008 539.315 256.72 538.856C256.432 538.387 256.064 538.024 255.616 537.768C255.168 537.501 254.672 537.368 254.128 537.368C253.584 537.368 253.088 537.501 252.64 537.768C252.192 538.024 251.824 538.387 251.536 538.856C251.259 539.315 251.099 539.843 251.056 540.44ZM264.079 537.624C263.353 537.645 262.713 537.848 262.159 538.232C261.615 538.616 261.231 539.144 261.007 539.816V545H259.919V536.664H260.943V538.664C261.231 538.077 261.609 537.603 262.079 537.24C262.559 536.877 263.065 536.675 263.599 536.632C263.705 536.621 263.796 536.616 263.871 536.616C263.945 536.616 264.015 536.621 264.079 536.632V537.624ZM268.878 545.16C268.078 545.16 267.363 544.963 266.734 544.568C266.105 544.173 265.609 543.645 265.246 542.984C264.883 542.323 264.702 541.597 264.702 540.808C264.702 540.029 264.878 539.315 265.23 538.664C265.593 538.013 266.089 537.496 266.718 537.112C267.347 536.717 268.062 536.52 268.862 536.52C269.683 536.52 270.403 536.717 271.022 537.112C271.641 537.507 272.121 538.029 272.462 538.68C272.814 539.32 272.99 540.024 272.99 540.792C272.99 540.963 272.985 541.107 272.974 541.224H265.838C265.891 541.821 266.062 542.355 266.35 542.824C266.638 543.283 267.006 543.651 267.454 543.928C267.902 544.195 268.393 544.328 268.926 544.328C269.47 544.328 269.982 544.189 270.462 543.912C270.942 543.635 271.283 543.272 271.486 542.824L272.43 543.08C272.259 543.485 271.993 543.848 271.63 544.168C271.278 544.477 270.867 544.723 270.398 544.904C269.929 545.075 269.422 545.16 268.878 545.16ZM265.806 540.44H271.966C271.923 539.843 271.758 539.315 271.47 538.856C271.182 538.387 270.814 538.024 270.366 537.768C269.918 537.501 269.422 537.368 268.878 537.368C268.334 537.368 267.838 537.501 267.39 537.768C266.942 538.024 266.574 538.387 266.286 538.856C266.009 539.315 265.849 539.843 265.806 540.44ZM274.109 540.856C274.109 540.067 274.269 539.347 274.589 538.696C274.919 538.035 275.373 537.507 275.949 537.112C276.525 536.717 277.181 536.52 277.917 536.52C278.61 536.52 279.229 536.707 279.773 537.08C280.327 537.443 280.759 537.885 281.069 538.408V533.32H282.157V543.688C282.157 543.976 282.285 544.125 282.541 544.136V545C282.327 545.032 282.162 545.043 282.045 545.032C281.81 545.021 281.607 544.936 281.437 544.776C281.277 544.605 281.197 544.413 281.197 544.2V543.384C280.866 543.928 280.418 544.36 279.853 544.68C279.287 545 278.701 545.16 278.093 545.16C277.517 545.16 276.983 545.043 276.493 544.808C276.002 544.573 275.575 544.253 275.213 543.848C274.861 543.443 274.589 542.984 274.397 542.472C274.205 541.949 274.109 541.411 274.109 540.856ZM281.069 542.136V539.56C280.93 539.176 280.706 538.829 280.397 538.52C280.087 538.2 279.735 537.949 279.341 537.768C278.957 537.576 278.573 537.48 278.189 537.48C277.591 537.48 277.069 537.645 276.621 537.976C276.183 538.296 275.842 538.717 275.597 539.24C275.351 539.752 275.229 540.291 275.229 540.856C275.229 541.453 275.362 542.008 275.629 542.52C275.906 543.032 276.279 543.443 276.749 543.752C277.218 544.051 277.746 544.2 278.333 544.2C278.695 544.2 279.074 544.109 279.469 543.928C279.874 543.736 280.226 543.485 280.525 543.176C280.834 542.867 281.015 542.52 281.069 542.136ZM284.462 545V543.432H285.406V545H284.462Z" fill="#22211F"/>
<rect x="87" y="443" width="16" height="8" rx="4" fill="#FF2E63" fill-opacity="0.1"/>
<rect x="107" y="443" width="32" height="8" rx="4" fill="#FF2E63"/>
<rect x="143" y="443" width="16" height="8" rx="4" fill="#FF2E63" fill-opacity="0.1"/>
<rect x="87" y="566.504" width="137" height="46.2766" rx="8" fill="#FF2E63"/>
<path d="M114.028 586.648C113.795 586.387 113.435 586.149 112.95 585.934C112.465 585.719 111.923 585.612 111.326 585.612C110.561 585.612 109.996 585.757 109.632 586.046C109.268 586.335 109.086 586.732 109.086 587.236C109.086 587.591 109.179 587.871 109.366 588.076C109.553 588.281 109.837 588.449 110.22 588.58C110.612 588.711 111.107 588.846 111.704 588.986C112.395 589.135 112.992 589.317 113.496 589.532C114 589.747 114.387 590.036 114.658 590.4C114.929 590.755 115.064 591.231 115.064 591.828C115.064 592.463 114.905 592.985 114.588 593.396C114.271 593.807 113.837 594.11 113.286 594.306C112.745 594.502 112.133 594.6 111.452 594.6C109.903 594.6 108.554 594.133 107.406 593.2L108.008 592.136C108.213 592.341 108.489 592.547 108.834 592.752C109.189 592.957 109.59 593.13 110.038 593.27C110.495 593.401 110.976 593.466 111.48 593.466C112.189 593.466 112.74 593.34 113.132 593.088C113.524 592.827 113.72 592.449 113.72 591.954C113.72 591.581 113.608 591.282 113.384 591.058C113.169 590.834 112.847 590.647 112.418 590.498C111.989 590.349 111.466 590.199 110.85 590.05C110.178 589.882 109.613 589.7 109.156 589.504C108.699 589.299 108.353 589.033 108.12 588.706C107.896 588.379 107.784 587.955 107.784 587.432C107.784 586.797 107.938 586.261 108.246 585.822C108.554 585.383 108.979 585.052 109.52 584.828C110.061 584.604 110.673 584.492 111.354 584.492C112.017 584.492 112.619 584.595 113.16 584.8C113.711 585.005 114.196 585.281 114.616 585.626L114.028 586.648ZM120.169 594.138C120.019 594.203 119.781 594.297 119.455 594.418C119.137 594.539 118.783 594.6 118.391 594.6C117.943 594.6 117.555 594.479 117.229 594.236C116.902 593.984 116.739 593.597 116.739 593.074V588.16H115.745V587.194H116.739V584.758H117.971V587.194H119.609V588.16H117.971V592.696C117.989 592.957 118.078 593.153 118.237 593.284C118.395 593.405 118.582 593.466 118.797 593.466C119.039 593.466 119.263 593.424 119.469 593.34C119.674 593.256 119.809 593.195 119.875 593.158L120.169 594.138ZM120.736 592.388C120.736 591.921 120.867 591.52 121.128 591.184C121.399 590.839 121.768 590.573 122.234 590.386C122.701 590.199 123.242 590.106 123.858 590.106C124.185 590.106 124.53 590.134 124.894 590.19C125.258 590.237 125.58 590.311 125.86 590.414V589.882C125.86 589.322 125.692 588.883 125.356 588.566C125.02 588.239 124.544 588.076 123.928 588.076C123.527 588.076 123.14 588.151 122.766 588.3C122.402 588.44 122.015 588.645 121.604 588.916L121.156 588.048C121.632 587.721 122.108 587.479 122.584 587.32C123.06 587.152 123.555 587.068 124.068 587.068C125.002 587.068 125.739 587.329 126.28 587.852C126.822 588.365 127.092 589.084 127.092 590.008V593.102C127.092 593.391 127.223 593.541 127.484 593.55V594.502C127.363 594.521 127.256 594.535 127.162 594.544C127.078 594.553 127.008 594.558 126.952 594.558C126.663 594.558 126.444 594.479 126.294 594.32C126.154 594.161 126.075 593.993 126.056 593.816L126.028 593.354C125.711 593.765 125.296 594.082 124.782 594.306C124.269 594.53 123.76 594.642 123.256 594.642C122.771 594.642 122.337 594.544 121.954 594.348C121.572 594.143 121.273 593.872 121.058 593.536C120.844 593.191 120.736 592.808 120.736 592.388ZM125.496 592.906C125.608 592.775 125.697 592.645 125.762 592.514C125.828 592.374 125.86 592.257 125.86 592.164V591.254C125.263 591.021 124.647 590.904 124.012 590.904C123.387 590.904 122.878 591.03 122.486 591.282C122.104 591.525 121.912 591.861 121.912 592.29C121.912 592.523 121.973 592.752 122.094 592.976C122.225 593.191 122.412 593.368 122.654 593.508C122.906 593.648 123.214 593.718 123.578 593.718C123.961 593.718 124.325 593.643 124.67 593.494C125.016 593.335 125.291 593.139 125.496 592.906ZM132.926 588.272C132.31 588.281 131.764 588.44 131.288 588.748C130.822 589.047 130.49 589.462 130.294 589.994V594.502H129.062V587.194H130.21V588.888C130.462 588.384 130.794 587.978 131.204 587.67C131.624 587.353 132.063 587.175 132.52 587.138C132.614 587.138 132.693 587.138 132.758 587.138C132.824 587.138 132.88 587.143 132.926 587.152V588.272ZM137.928 594.138C137.779 594.203 137.541 594.297 137.214 594.418C136.897 594.539 136.542 594.6 136.15 594.6C135.702 594.6 135.315 594.479 134.988 594.236C134.662 593.984 134.498 593.597 134.498 593.074V588.16H133.504V587.194H134.498V584.758H135.73V587.194H137.368V588.16H135.73V592.696C135.749 592.957 135.838 593.153 135.996 593.284C136.155 593.405 136.342 593.466 136.556 593.466C136.799 593.466 137.023 593.424 137.228 593.34C137.434 593.256 137.569 593.195 137.634 593.158L137.928 594.138ZM150.437 591.94C150.437 592.453 150.307 592.901 150.045 593.284C149.784 593.667 149.429 593.965 148.981 594.18C148.543 594.395 148.057 594.502 147.525 594.502H142.807V584.562H147.749C148.216 584.562 148.617 584.688 148.953 584.94C149.299 585.183 149.56 585.5 149.737 585.892C149.924 586.275 150.017 586.676 150.017 587.096C150.017 587.581 149.891 588.039 149.639 588.468C149.397 588.888 149.047 589.201 148.589 589.406C149.159 589.574 149.607 589.887 149.933 590.344C150.269 590.792 150.437 591.324 150.437 591.94ZM144.067 585.654V588.972H147.231C147.67 588.972 148.034 588.813 148.323 588.496C148.622 588.169 148.771 587.777 148.771 587.32C148.771 586.853 148.631 586.461 148.351 586.144C148.081 585.817 147.735 585.654 147.315 585.654H144.067ZM149.163 591.716C149.163 591.408 149.093 591.123 148.953 590.862C148.823 590.601 148.641 590.391 148.407 590.232C148.183 590.073 147.922 589.994 147.623 589.994H144.067V593.41H147.525C147.833 593.41 148.109 593.331 148.351 593.172C148.603 593.013 148.799 592.808 148.939 592.556C149.089 592.295 149.163 592.015 149.163 591.716ZM151.43 592.388C151.43 591.921 151.56 591.52 151.822 591.184C152.092 590.839 152.461 590.573 152.928 590.386C153.394 590.199 153.936 590.106 154.552 590.106C154.878 590.106 155.224 590.134 155.588 590.19C155.952 590.237 156.274 590.311 156.554 590.414V589.882C156.554 589.322 156.386 588.883 156.05 588.566C155.714 588.239 155.238 588.076 154.622 588.076C154.22 588.076 153.833 588.151 153.46 588.3C153.096 588.44 152.708 588.645 152.298 588.916L151.85 588.048C152.326 587.721 152.802 587.479 153.278 587.32C153.754 587.152 154.248 587.068 154.762 587.068C155.695 587.068 156.432 587.329 156.974 587.852C157.515 588.365 157.786 589.084 157.786 590.008V593.102C157.786 593.391 157.916 593.541 158.178 593.55V594.502C158.056 594.521 157.949 594.535 157.856 594.544C157.772 594.553 157.702 594.558 157.646 594.558C157.356 594.558 157.137 594.479 156.988 594.32C156.848 594.161 156.768 593.993 156.75 593.816L156.722 593.354C156.404 593.765 155.989 594.082 155.476 594.306C154.962 594.53 154.454 594.642 153.95 594.642C153.464 594.642 153.03 594.544 152.648 594.348C152.265 594.143 151.966 593.872 151.752 593.536C151.537 593.191 151.43 592.808 151.43 592.388ZM156.19 592.906C156.302 592.775 156.39 592.645 156.456 592.514C156.521 592.374 156.554 592.257 156.554 592.164V591.254C155.956 591.021 155.34 590.904 154.706 590.904C154.08 590.904 153.572 591.03 153.18 591.282C152.797 591.525 152.606 591.861 152.606 592.29C152.606 592.523 152.666 592.752 152.788 592.976C152.918 593.191 153.105 593.368 153.348 593.508C153.6 593.648 153.908 593.718 154.272 593.718C154.654 593.718 155.018 593.643 155.364 593.494C155.709 593.335 155.984 593.139 156.19 592.906ZM166.098 594.502H164.866V590.414C164.866 589.639 164.744 589.075 164.502 588.72C164.268 588.356 163.909 588.174 163.424 588.174C163.088 588.174 162.752 588.258 162.416 588.426C162.089 588.594 161.795 588.823 161.534 589.112C161.282 589.392 161.1 589.719 160.988 590.092V594.502H159.756V587.194H160.876V588.762C161.165 588.249 161.58 587.838 162.122 587.53C162.672 587.222 163.27 587.068 163.914 587.068C164.483 587.068 164.922 587.203 165.23 587.474C165.547 587.735 165.771 588.099 165.902 588.566C166.032 589.023 166.098 589.546 166.098 590.134V594.502ZM173.166 594.502L170.632 590.946L169.246 592.248V594.502H168.014V584.282H169.246V590.96L173.026 587.208H174.356L171.444 590.232L174.496 594.502H173.166ZM175.56 585.822V584.282H176.792V585.822H175.56ZM175.56 594.502V587.194H176.792V594.502H175.56ZM185.129 594.502H183.897V590.414C183.897 589.639 183.776 589.075 183.533 588.72C183.3 588.356 182.94 588.174 182.455 588.174C182.119 588.174 181.783 588.258 181.447 588.426C181.12 588.594 180.826 588.823 180.565 589.112C180.313 589.392 180.131 589.719 180.019 590.092V594.502H178.787V587.194H179.907V588.762C180.196 588.249 180.612 587.838 181.153 587.53C181.704 587.222 182.301 587.068 182.945 587.068C183.514 587.068 183.953 587.203 184.261 587.474C184.578 587.735 184.802 588.099 184.933 588.566C185.064 589.023 185.129 589.546 185.129 590.134V594.502ZM189.957 594.586C189.294 594.586 188.706 594.413 188.193 594.068C187.689 593.713 187.292 593.251 187.003 592.682C186.723 592.113 186.583 591.506 186.583 590.862C186.583 590.171 186.723 589.541 187.003 588.972C187.292 588.393 187.693 587.931 188.207 587.586C188.72 587.241 189.308 587.068 189.971 587.068C190.577 587.068 191.105 587.217 191.553 587.516C192.01 587.815 192.393 588.193 192.701 588.65V587.194H193.793V594.418C193.793 595.109 193.625 595.692 193.289 596.168C192.962 596.644 192.514 597.003 191.945 597.246C191.385 597.498 190.759 597.624 190.069 597.624C189.247 597.624 188.575 597.479 188.053 597.19C187.53 596.901 187.096 596.509 186.751 596.014L187.465 595.384C187.754 595.813 188.127 596.135 188.585 596.35C189.051 596.565 189.546 596.672 190.069 596.672C190.517 596.672 190.927 596.588 191.301 596.42C191.683 596.261 191.987 596.014 192.211 595.678C192.444 595.342 192.561 594.922 192.561 594.418V593.13C192.29 593.578 191.917 593.933 191.441 594.194C190.974 594.455 190.479 594.586 189.957 594.586ZM190.335 593.578C190.68 593.578 191.011 593.499 191.329 593.34C191.646 593.181 191.912 592.976 192.127 592.724C192.351 592.472 192.495 592.211 192.561 591.94V589.84C192.365 589.345 192.047 588.939 191.609 588.622C191.17 588.295 190.708 588.132 190.223 588.132C189.728 588.132 189.299 588.267 188.935 588.538C188.58 588.809 188.305 589.154 188.109 589.574C187.922 589.994 187.829 590.433 187.829 590.89C187.829 591.375 187.941 591.823 188.165 592.234C188.389 592.635 188.687 592.962 189.061 593.214C189.443 593.457 189.868 593.578 190.335 593.578Z" fill="white"/>
<defs>
<filter id="filter0_d" x="340" y="0.803711" width="289.964" height="288.896" filterUnits="userSpaceOnUse" color-interpolation-filters="sRGB">
<feFlood flood-opacity="0" result="BackgroundImageFix"/>
<feColorMatrix in="SourceAlpha" type="matrix" values="0 0 0 0 0 0 0 0 0 0 0 0 0 0 0 0 0 0 127 0" result="hardAlpha"/>
<feMorphology radius="5" operator="dilate" in="SourceAlpha" result="effect1_dropShadow"/>
<feOffset dy="15"/>
<feGaussianBlur stdDeviation="25"/>
<feComposite in2="hardAlpha" operator="out"/>
<feColorMatrix type="matrix" values="0 0 0 0 0 0 0 0 0 0 0 0 0 0 0 0 0 0 0.08 0"/>
<feBlend mode="normal" in2="BackgroundImageFix" result="effect1_dropShadow"/>
<feBlend mode="normal" in="SourceGraphic" in2="effect1_dropShadow" result="shape"/>
</filter>
<filter id="filter1_d" x="0" y="371" width="433" height="334" filterUnits="userSpaceOnUse" color-interpolation-filters="sRGB">
<feFlood flood-opacity="0" result="BackgroundImageFix"/>
<feColorMatrix in="SourceAlpha" type="matrix" values="0 0 0 0 0 0 0 0 0 0 0 0 0 0 0 0 0 0 127 0" result="hardAlpha"/>
<feMorphology radius="5" operator="dilate" in="SourceAlpha" result="effect1_dropShadow"/>
<feOffset dy="15"/>
<feGaussianBlur stdDeviation="25"/>
<feComposite in2="hardAlpha" operator="out"/>
<feColorMatrix type="matrix" values="0 0 0 0 0 0 0 0 0 0 0 0 0 0 0 0 0 0 0.08 0"/>
<feBlend mode="normal" in2="BackgroundImageFix" result="effect1_dropShadow"/>
<feBlend mode="normal" in="SourceGraphic" in2="effect1_dropShadow" result="shape"/>
</filter>
</defs>
</svg>
