<svg width="112" height="22" viewBox="0 0 112 22" fill="none" xmlns="http://www.w3.org/2000/svg">
<path d="M11.2 16.0599L15.0733 18.3608C15.7827 18.7824 16.6507 18.1591 16.464 17.3708L15.4373 13.0441L18.8627 10.1291C19.488 9.59745 19.152 8.58911 18.3307 8.52495L13.8227 8.14911L12.0587 4.06078C11.7413 3.31828 10.6587 3.31828 10.3413 4.06078L8.57733 8.13995L4.06933 8.51578C3.24799 8.57995 2.91199 9.58828 3.53733 10.1199L6.96266 13.0349L5.93599 17.3616C5.74933 18.1499 6.61733 18.7733 7.32666 18.3516L11.2 16.0599Z" fill="#FAAD39"/>
<path d="M78.4 16.0599L82.2733 18.3608C82.9827 18.7824 83.8507 18.1591 83.664 17.3708L82.6373 13.0441L86.0627 10.1291C86.688 9.59745 86.352 8.58911 85.5307 8.52495L81.0227 8.14911L79.2587 4.06078C78.9413 3.31828 77.8587 3.31828 77.5413 4.06078L75.7773 8.13995L71.2693 8.51578C70.448 8.57995 70.112 9.58828 70.7373 10.1199L74.1627 13.0349L73.136 17.3616C72.9493 18.1499 73.8173 18.7733 74.5267 18.3516L78.4 16.0599Z" fill="#FAAD39"/>
<path d="M56 16.0599L59.8733 18.3608C60.5827 18.7824 61.4507 18.1591 61.264 17.3708L60.2373 13.0441L63.6627 10.1291C64.288 9.59745 63.952 8.58911 63.1307 8.52495L58.6227 8.14911L56.8587 4.06078C56.5413 3.31828 55.4587 3.31828 55.1413 4.06078L53.3773 8.13995L48.8693 8.51578C48.048 8.57995 47.712 9.58828 48.3373 10.1199L51.7627 13.0349L50.736 17.3616C50.5493 18.1499 51.4173 18.7733 52.1267 18.3516L56 16.0599Z" fill="#FAAD39"/>
<path d="M33.6 16.0599L37.4734 18.3608C38.1827 18.7824 39.0507 18.1591 38.864 17.3708L37.8374 13.0441L41.2627 10.1291C41.888 9.59745 41.552 8.58911 40.7307 8.52495L36.2227 8.14911L34.4587 4.06078C34.1414 3.31828 33.0587 3.31828 32.7414 4.06078L30.9774 8.13995L26.4694 8.51578C25.648 8.57995 25.312 9.58828 25.9374 10.1199L29.3627 13.0349L28.336 17.3616C28.1494 18.1499 29.0174 18.7733 29.7267 18.3516L33.6 16.0599Z" fill="#FAAD39"/>
<path d="M100.8 16.0599L104.673 18.3608C105.383 18.7824 106.251 18.1591 106.064 17.3708L105.037 13.0441L108.463 10.1291C109.088 9.59745 108.752 8.58911 107.931 8.52495L103.423 8.14911L101.659 4.06078C101.341 3.31828 100.259 3.31828 99.9413 4.06078L98.1773 8.13995L93.6693 8.51578C92.848 8.57995 92.512 9.58828 93.1373 10.1199L96.5626 13.0349L95.536 17.3616C95.3493 18.1499 96.2173 18.7733 96.9266 18.3516L100.8 16.0599Z" fill="#FAAD39"/>
</svg>
