<svg width="11" height="9" viewBox="0 0 11 9" fill="none" xmlns="http://www.w3.org/2000/svg">
<path d="M10.5385 1.01367C10.1466 1.18558 9.72898 1.29952 9.29361 1.35485C9.74149 1.08744 10.0833 0.667216 10.244 0.160712C9.82646 0.409683 9.3654 0.585543 8.87404 0.683683C8.47753 0.261486 7.91241 0 7.29591 0C6.09979 0 5.13684 0.970856 5.13684 2.16104C5.13684 2.33229 5.15133 2.49696 5.1869 2.65372C3.39075 2.56612 1.80142 1.70525 0.73374 0.393875C0.547341 0.717274 0.438005 1.08744 0.438005 1.48592C0.438005 2.23415 0.823317 2.89742 1.39766 3.28141C1.05055 3.27483 0.710029 3.17405 0.421538 3.01532C0.421538 3.0219 0.421538 3.03047 0.421538 3.03903C0.421538 4.08892 1.17043 4.96098 2.15248 5.16187C1.97662 5.20995 1.78495 5.233 1.58604 5.233C1.44772 5.233 1.30809 5.2251 1.17701 5.19612C1.45694 6.05171 2.25128 6.68073 3.19579 6.70114C2.46073 7.27615 1.52742 7.6226 0.517043 7.6226C0.339865 7.6226 0.169933 7.6147 0 7.59296C0.957024 8.21012 2.09123 8.5625 3.31435 8.5625C7.28998 8.5625 9.46354 5.26923 9.46354 2.41462C9.46354 2.31912 9.46025 2.22691 9.45564 2.13536C9.88442 1.83106 10.2447 1.45101 10.5385 1.01367Z" fill="white"/>
</svg>
